<svg width="334" height="453" viewBox="0 0 334 453" fill="none" xmlns="http://www.w3.org/2000/svg">
<path d="M23.1307 403.4L3.83582 392.905L12.4932 391.686L31.7796 402.181L23.1307 403.4Z" fill="#858688"/>
<path d="M26.9389 426.895L7.65249 416.4C-0.717076 411.846 0.0361239 395.156 0.112288 394.098L19.3987 404.593C19.3479 405.651 18.5524 422.367 26.9389 426.895Z" fill="#626364"/>
<path d="M31.7796 402.181L12.4932 391.686L12.8147 216.542L32.1012 227.037L31.7796 402.181Z" fill="#606162"/>
<path d="M23.1307 403.4L3.83582 392.905L4.16587 217.76L23.4523 228.255L23.1307 403.4Z" fill="#6E6E6F"/>
<path d="M19.3988 404.593L0.112305 394.098L0.30693 288.846L19.5934 299.34L19.3988 404.593Z" fill="#606162"/>
<path d="M52.4539 222.661L33.159 212.166C32.6637 211.878 32.2563 211.46 31.9805 210.957C31.7047 210.455 31.5708 209.887 31.5934 209.314L50.8883 219.809C50.862 220.382 50.9941 220.952 51.2703 221.455C51.5465 221.958 51.956 222.375 52.4539 222.661Z" fill="#121011"/>
<path d="M32.1012 227.036L12.8147 216.542L28.8176 214.299L48.104 224.794L32.1012 227.036Z" fill="#858688"/>
<path d="M32.1012 227.036L31.7796 402.181L23.1307 403.4L23.4523 228.255L32.1012 227.036Z" fill="#BCBDBD"/>
<path d="M23.4523 228.255L4.16583 217.76L12.8147 216.542L32.1012 227.037L23.4523 228.255Z" fill="#989999"/>
<path d="M19.7287 228.78L0.433838 218.285L4.16585 217.76L23.4523 228.255L19.7287 228.78Z" fill="#858688"/>
<path d="M19.7287 228.78L0.433838 218.285L0.46767 202.992L19.7541 213.486L19.7287 228.78Z" fill="#121010"/>
<path d="M19.5932 299.341L0.306885 288.846L0.467677 202.992L19.754 213.486L19.5932 299.341Z" fill="#606162"/>
<path d="M19.7541 213.461V228.755L23.4777 228.23L23.1561 403.374L31.7796 402.198L32.1434 227.003L48.1463 224.76L48.0109 295.32L47.8163 400.573V401.893C47.537 407.098 45.8191 426.141 33.5736 427.868C18.2478 430.018 19.3817 405.863 19.441 404.559L19.6356 299.307L19.7541 213.461Z" fill="#A4A6A8"/>
<path d="M50.8459 219.809L31.551 209.314L31.7203 117.865L51.0151 128.36L50.8459 219.809Z" fill="#121010"/>
<path d="M54.0956 119.981L34.8008 109.486C35.2268 109.419 35.6622 109.442 36.0787 109.554L55.3735 120.049C54.9571 119.937 54.5216 119.914 54.0956 119.981Z" fill="#171415"/>
<path d="M55.3735 120.049L36.0786 109.554C36.2804 109.603 36.4762 109.674 36.6625 109.766L55.9574 120.26C55.7711 120.169 55.5753 120.098 55.3735 120.049Z" fill="#161414"/>
<path d="M55.9574 120.261L36.6625 109.766L36.781 109.825L56.0674 120.362L55.9574 120.303" fill="#161314"/>
<path d="M46.9786 128.927L27.6921 118.432L28.9954 118.246L48.2818 128.741L46.9786 128.927Z" fill="#191617"/>
<path d="M45.0152 128.589L25.7203 118.094L25.8388 118.153L45.1252 128.648L45.0152 128.589Z" fill="#161314"/>
<path d="M45.1258 128.648L25.8394 118.153C26.0237 118.243 26.2165 118.313 26.4148 118.365L45.6844 128.826C45.4836 128.773 45.2882 128.702 45.1004 128.614" fill="#161414"/>
<path d="M45.6837 128.825L26.3889 118.331C26.8067 118.434 27.2404 118.457 27.6668 118.398L46.9531 128.893C46.5295 128.952 46.0985 128.929 45.6837 128.825Z" fill="#171415"/>
<path d="M48.2987 120.794L29.0038 110.299L34.8007 109.486L54.0956 119.981L48.2987 120.794Z" fill="#191617"/>
<path d="M46.9954 120.98L27.7006 110.485L29.0038 110.299L48.2987 120.794L46.9954 120.98Z" fill="#191617"/>
<path d="M54.0957 119.981C54.5745 119.915 55.0618 119.958 55.5222 120.105C55.9826 120.252 56.4042 120.5 56.7563 120.831C57.1084 121.162 57.3821 121.567 57.5572 122.018C57.7323 122.468 57.8045 122.952 57.7685 123.434C57.7685 123.527 57.7685 123.612 57.7685 123.705C57.7685 123.798 57.7685 123.883 57.7685 123.976L57.5992 218.861C57.5917 219.83 57.2513 220.768 56.6351 221.517C56.0189 222.266 55.1642 222.78 54.2142 222.974C53.7742 223.036 53.3259 222.998 52.9023 222.864C52.4786 222.73 52.0903 222.503 51.7657 222.2C51.4411 221.896 51.1886 221.524 51.0265 221.11C50.8644 220.697 50.797 220.252 50.8291 219.809L50.9984 128.402L48.2649 128.783L46.9616 128.969C46.4824 129.034 45.9949 128.99 45.5345 128.842C45.0742 128.694 44.6527 128.445 44.3008 128.113C43.9489 127.782 43.6755 127.376 43.5004 126.925C43.3254 126.474 43.253 125.99 43.2888 125.508C43.2886 124.448 43.6565 123.422 44.3296 122.603C45.0026 121.785 45.939 121.226 46.9786 121.022L48.2818 120.836L54.0957 119.981Z" fill="#1F1B1C"/>
<path d="M45.0152 128.589L25.7203 118.094C25.1811 117.776 24.7386 117.318 24.4404 116.767C24.1422 116.217 23.9995 115.596 24.0277 114.971C24.0303 114.437 24.1248 113.907 24.307 113.405L43.6019 123.9C43.4128 124.4 43.3154 124.931 43.3142 125.466C43.2869 126.091 43.43 126.711 43.7281 127.261C44.0262 127.811 44.4681 128.27 45.0067 128.589" fill="#121011"/>
<path d="M43.5935 123.9L24.2986 113.405C24.3795 113.194 24.4727 112.988 24.5779 112.787L43.8643 123.282C43.7619 123.482 43.6715 123.689 43.5935 123.9Z" fill="#131111"/>
<path d="M43.8642 123.282L24.5778 112.787C24.6694 112.62 24.7711 112.459 24.8825 112.305L44.1689 122.8C44.0576 122.954 43.9558 123.115 43.8642 123.282Z" fill="#141112"/>
<path d="M44.1689 122.8L24.8825 112.305C24.9851 112.158 25.0953 112.017 25.2126 111.882L44.4989 122.376C44.3797 122.51 44.2695 122.651 44.1689 122.8Z" fill="#141213"/>
<path d="M44.4989 122.376L25.2125 111.899C25.3279 111.763 25.4523 111.636 25.5849 111.518L44.8375 121.996C44.707 122.116 44.5827 122.243 44.4651 122.376" fill="#151313"/>
<path d="M44.8374 121.996L25.551 111.501C25.691 111.373 25.8409 111.257 25.9995 111.154L45.2859 121.649C45.1289 121.754 44.979 121.87 44.8374 121.996Z" fill="#161314"/>
<path d="M45.3198 121.649L26.0334 111.154C26.221 111.022 26.4191 110.906 26.6258 110.807L45.9207 121.302C45.7086 121.395 45.5072 121.512 45.3198 121.649Z" fill="#161414"/>
<path d="M45.9206 121.302L26.6257 110.807C26.9683 110.645 27.3336 110.536 27.709 110.485L46.9954 120.98C46.6227 121.031 46.2603 121.14 45.9206 121.302Z" fill="#171415"/>
<path d="M19.754 213.486L0.467712 202.992L0.628505 113.033L19.9233 123.527L19.754 213.486Z" fill="#121010"/>
<path d="M34.1491 96.2325L14.8627 85.7377C16.1958 85.536 17.5555 85.5964 18.8655 85.9154L38.1519 96.4102C36.842 96.0905 35.4822 96.0302 34.1491 96.2325Z" fill="#171415"/>
<path d="M38.1519 96.4102L18.8655 85.9154C19.4497 86.0582 20.017 86.2624 20.5581 86.5248L39.8444 97.0196C39.3039 96.7559 38.7364 96.5515 38.1519 96.4102Z" fill="#161414"/>
<path d="M39.8191 97.0195L20.5327 86.5078L20.8542 86.6771L40.1491 97.1719L39.8191 97.0026" fill="#161314"/>
<path d="M19.9234 123.527L0.628488 113.033C0.628488 112.305 0.239191 104.044 2.88801 96.7656L22.1744 107.26C19.5256 114.539 19.8895 122.799 19.9234 123.527Z" fill="#121011"/>
<path d="M22.1744 107.26L2.88806 96.7656C3.28469 95.6774 3.75405 94.6171 4.29289 93.5918L23.5792 104.087C23.0388 105.111 22.5694 106.172 22.1744 107.26Z" fill="#131111"/>
<path d="M23.5792 104.087L4.29285 93.5919C4.65341 92.9227 5.04885 92.2729 5.47759 91.6453L24.7724 102.14C24.3409 102.768 23.9427 103.417 23.5792 104.087Z" fill="#141112"/>
<path d="M24.7724 102.14L5.47754 91.6452C5.8321 91.1399 6.2135 90.654 6.62003 90.1895L25.9149 100.684C25.5084 101.149 25.127 101.635 24.7724 102.14Z" fill="#141213"/>
<path d="M25.9149 100.684L6.62012 90.1895C6.99416 89.766 7.39256 89.3647 7.81333 88.9877L27.0658 99.4825C26.6457 99.8575 26.25 100.259 25.881 100.684" fill="#151313"/>
<path d="M27.0658 99.4824L7.77942 88.9876C8.2021 88.6068 8.64868 88.2535 9.11649 87.9297L28.4114 98.416C27.9412 98.7432 27.4918 99.0993 27.0658 99.4824Z" fill="#161314"/>
<path d="M28.4453 98.416L9.15039 87.9297C9.73848 87.5202 10.3615 87.1634 11.0122 86.8633L30.3071 97.3581C29.6564 97.6549 29.0333 98.0089 28.4453 98.416Z" fill="#161414"/>
<path d="M30.3071 97.3581L10.9868 86.8633C12.2068 86.2977 13.5048 85.9182 14.8373 85.7377L34.1238 96.2325C32.7942 96.4141 31.4991 96.7935 30.2817 97.3581" fill="#171415"/>
<path d="M34.149 96.2325C48.3409 94.2351 48.2986 118.238 48.2986 119.533V120.794L46.9954 120.98C45.9558 121.184 45.0194 121.743 44.3463 122.561C43.6733 123.379 43.3054 124.406 43.3057 125.466C43.2699 125.948 43.3421 126.432 43.5172 126.883C43.6923 127.334 43.9658 127.74 44.3177 128.071C44.6696 128.403 45.091 128.652 45.5513 128.8C46.0116 128.948 46.4992 128.991 46.9785 128.927L48.2817 128.741L48.104 224.794L32.1434 227.003L23.4946 228.221L19.771 228.746V213.453L19.9403 123.494C19.8641 122.266 18.8232 98.3569 34.149 96.2325Z" fill="#1F1B1C"/>
<path d="M216.384 423.213L214.463 422.163C214.973 420.775 215.236 419.309 215.242 417.83C215.313 416.098 214.912 414.379 214.08 412.858C213.248 411.337 212.017 410.071 210.52 409.197L212.449 410.247C213.946 411.121 215.177 412.386 216.009 413.907C216.841 415.428 217.243 417.147 217.171 418.88C217.168 420.359 216.901 421.827 216.384 423.213Z" fill="#151516"/>
<path d="M212.077 425.371L210.147 424.322C210.283 424.173 210.407 424.015 210.52 423.848L212.449 424.897C212.336 425.064 212.212 425.222 212.077 425.371Z" fill="#252526"/>
<path d="M212.077 425.371L210.147 424.322C210.283 424.173 210.407 424.015 210.52 423.848L212.449 424.897C212.336 425.064 212.212 425.222 212.077 425.371Z" fill="#252526"/>
<path d="M212.077 425.371L210.147 424.322C210.283 424.173 210.407 424.015 210.52 423.848L212.449 424.897C212.336 425.064 212.212 425.222 212.077 425.371Z" fill="#252526"/>
<path d="M212.077 425.371L210.147 424.322C210.283 424.173 210.407 424.014 210.52 423.848L212.449 424.897C212.336 425.064 212.212 425.222 212.077 425.371Z" fill="#252526"/>
<path d="M212.449 424.897L210.52 423.848C210.643 423.671 210.756 423.488 210.858 423.298L212.788 424.347C212.686 424.537 212.573 424.721 212.449 424.897Z" fill="#232324"/>
<path d="M212.787 424.347L210.858 423.297C210.981 423.071 211.088 422.836 211.18 422.595L213.109 423.644C213.018 423.886 212.91 424.12 212.787 424.347Z" fill="#222223"/>
<path d="M213.109 423.645L211.18 422.595C211.389 422.029 211.498 421.43 211.501 420.826L213.431 421.876C213.423 422.479 213.314 423.077 213.109 423.645Z" fill="#212122"/>
<path d="M209.267 426.954L207.321 425.896C207.738 425.838 208.143 425.715 208.522 425.532L210.452 426.581C210.073 426.765 209.667 426.888 209.25 426.945" fill="#2A2A2B"/>
<path d="M210.469 426.59L208.539 425.54C208.777 425.432 209.003 425.302 209.216 425.151L211.146 426.201C210.933 426.351 210.706 426.482 210.469 426.59Z" fill="#28282A"/>
<path d="M211.146 426.201L209.216 425.151C209.395 425.031 209.564 424.898 209.724 424.753L211.645 425.803C211.49 425.949 211.323 426.082 211.146 426.201Z" fill="#272728"/>
<path d="M211.645 425.803L209.724 424.753C209.868 424.618 210.012 424.474 210.147 424.322L212.077 425.371C211.941 425.523 211.797 425.668 211.645 425.803Z" fill="#262627"/>
<path d="M212.077 425.371L210.147 424.322C210.283 424.173 210.407 424.015 210.52 423.848L212.449 424.897C212.336 425.064 212.212 425.222 212.077 425.371Z" fill="#252526"/>
<path d="M209.267 425.684L207.321 424.635C207.614 424.588 207.899 424.499 208.167 424.372L210.096 425.422C209.828 425.549 209.543 425.637 209.25 425.684" fill="#9FA0A0"/>
<path d="M210.139 425.422L208.209 424.373C208.376 424.29 208.537 424.196 208.692 424.093L210.621 425.143C210.466 425.246 210.305 425.339 210.139 425.422Z" fill="#9A9B9B"/>
<path d="M210.621 425.143L208.692 424.093C208.819 424.005 208.94 423.909 209.055 423.805L210.985 424.855C210.869 424.958 210.748 425.054 210.621 425.143Z" fill="#959696"/>
<path d="M210.985 424.855L209.055 423.805L209.36 423.501L211.29 424.55L210.985 424.855Z" fill="#919191"/>
<path d="M211.29 424.55L209.36 423.501C209.457 423.39 209.548 423.275 209.631 423.154L211.552 424.203C211.474 424.326 211.386 424.442 211.29 424.55Z" fill="#8C8C8C"/>
<path d="M211.552 424.203L209.631 423.154C209.72 423.03 209.799 422.9 209.868 422.764L211.797 423.814C211.726 423.95 211.644 424.08 211.552 424.203Z" fill="#878888"/>
<path d="M211.797 423.814L209.859 422.764C209.944 422.602 210.02 422.435 210.088 422.265L212.017 423.315C211.95 423.485 211.874 423.652 211.789 423.814" fill="#828383"/>
<path d="M212.026 423.357L210.096 422.307C210.245 421.9 210.322 421.471 210.325 421.038L212.254 422.087C212.251 422.52 212.174 422.95 212.026 423.357Z" fill="#7D7E7E"/>
<path d="M213.431 421.876L211.501 420.826L211.51 415.892L213.439 416.941L213.431 421.876Z" fill="#202021"/>
<path d="M212.254 422.045L210.325 420.996L210.333 416.053L212.263 417.102L212.254 422.045Z" fill="#7B7C7C"/>
<path d="M213.439 416.941L211.552 415.892C211.58 415.183 211.415 414.48 211.073 413.858C210.732 413.236 210.227 412.719 209.614 412.363L211.544 413.412C212.157 413.769 212.661 414.286 213.003 414.907C213.344 415.529 213.51 416.233 213.482 416.941" fill="#212122"/>
<path d="M213.439 416.941L211.552 415.892C211.58 415.183 211.415 414.48 211.073 413.858C210.732 413.236 210.227 412.719 209.614 412.363L211.544 413.412C212.157 413.769 212.661 414.286 213.003 414.907C213.344 415.529 213.51 416.233 213.482 416.941" fill="#212122"/>
<path d="M213.439 416.941L211.552 415.892C211.58 415.183 211.415 414.48 211.073 413.858C210.732 413.236 210.227 412.719 209.614 412.363L211.544 413.412C212.157 413.769 212.661 414.286 213.003 414.907C213.344 415.529 213.51 416.233 213.482 416.941" fill="#212122"/>
<path d="M204.68 427.597L202.751 426.548L207.338 425.904L209.267 426.954L204.68 427.597Z" fill="#2D2D2E"/>
<path d="M213.439 416.941L211.552 415.892C211.58 415.183 211.415 414.48 211.073 413.858C210.732 413.236 210.227 412.719 209.614 412.363L211.544 413.412C212.157 413.769 212.661 414.286 213.003 414.907C213.344 415.529 213.51 416.233 213.482 416.941" fill="#212122"/>
<path d="M204.68 426.328L202.751 425.278L207.338 424.635L209.267 425.684L204.68 426.328Z" fill="#AAABAB"/>
<path d="M212.263 417.102L210.333 416.053C210.357 415.544 210.241 415.038 209.997 414.591C209.754 414.143 209.393 413.771 208.954 413.514L210.883 414.563C211.323 414.82 211.684 415.193 211.927 415.64C212.17 416.088 212.286 416.593 212.263 417.102Z" fill="#7D7E7E"/>
<path d="M213.439 416.941L211.552 415.892C211.58 415.183 211.415 414.48 211.073 413.858C210.732 413.236 210.227 412.719 209.614 412.363L211.544 413.412C212.157 413.769 212.661 414.286 213.003 414.907C213.344 415.529 213.51 416.233 213.482 416.941" fill="#212122"/>
<path d="M201.524 430.382L199.594 429.332L199.907 429.493L201.837 430.542L201.524 430.382Z" fill="#19191B"/>
<path d="M201.837 430.542L199.907 429.493C200.421 429.746 200.96 429.945 201.515 430.085L203.445 431.135C202.889 430.994 202.35 430.796 201.837 430.542Z" fill="#1A1A1C"/>
<path d="M203.445 431.135L201.515 430.128C202.665 430.422 203.862 430.482 205.036 430.305L206.965 431.355C205.792 431.532 204.594 431.472 203.445 431.177" fill="#1B1B1C"/>
<path d="M206.965 431.313L205.036 430.263C206.065 430.131 207.069 429.845 208.015 429.417L209.944 430.466C208.999 430.895 207.995 431.18 206.965 431.313Z" fill="#1B1B1C"/>
<path d="M209.944 430.424L208.015 429.374C208.59 429.102 209.142 428.782 209.665 428.418L211.594 429.467C211.072 429.832 210.52 430.151 209.944 430.424Z" fill="#1A1A1C"/>
<path d="M211.594 429.468L209.665 428.435C210.097 428.137 210.509 427.812 210.9 427.462L212.83 428.511C212.439 428.861 212.026 429.186 211.594 429.484" fill="#19191B"/>
<path d="M212.83 428.494L210.9 427.445C211.266 427.114 211.614 426.764 211.941 426.395L213.871 427.445C213.543 427.813 213.196 428.164 212.83 428.494Z" fill="#19191A"/>
<path d="M213.871 427.445L211.941 426.395C212.267 426.023 212.572 425.633 212.855 425.227L214.785 426.277C214.497 426.683 214.192 427.072 213.871 427.445Z" fill="#181819"/>
<path d="M214.785 426.277L212.855 425.227C213.166 424.798 213.449 424.348 213.701 423.882L215.631 424.931C215.378 425.398 215.096 425.847 214.785 426.277Z" fill="#171718"/>
<path d="M215.614 424.931L213.685 423.882C213.982 423.336 214.242 422.77 214.463 422.189L216.384 423.238C216.17 423.821 215.912 424.387 215.614 424.931Z" fill="#161617"/>
<path d="M216.384 423.213L214.463 422.163C214.973 420.775 215.236 419.309 215.242 417.83C215.313 416.098 214.912 414.379 214.08 412.858C213.248 411.337 212.017 410.071 210.52 409.197L212.449 410.247C213.946 411.121 215.177 412.386 216.009 413.907C216.841 415.428 217.243 417.147 217.171 418.88C217.168 420.359 216.901 421.827 216.384 423.213Z" fill="#151516"/>
<path d="M202.472 427.216L200.55 426.167L200.677 426.234L202.607 427.284L202.48 427.216" fill="#272728"/>
<path d="M202.599 427.284L200.67 426.235C200.878 426.339 201.096 426.421 201.321 426.48L203.251 427.53C203.025 427.471 202.807 427.389 202.599 427.284Z" fill="#28282A"/>
<path d="M203.25 427.529L201.321 426.48C201.788 426.596 202.274 426.619 202.751 426.548L204.68 427.597C204.204 427.669 203.718 427.646 203.25 427.529Z" fill="#2A2A2B"/>
<path d="M203.089 426.057L201.16 425.049H201.253L203.182 426.099H203.089" fill="#959696"/>
<path d="M203.182 426.099L201.253 425.049C201.404 425.126 201.563 425.186 201.727 425.227L203.656 426.277C203.492 426.237 203.333 426.177 203.182 426.099Z" fill="#9A9B9B"/>
<path d="M203.656 426.277L201.727 425.227C202.062 425.308 202.409 425.325 202.751 425.278L204.68 426.328C204.339 426.375 203.991 426.358 203.656 426.277Z" fill="#9FA0A0"/>
<path d="M209.284 414.301L207.321 413.251C207.665 413.202 208.016 413.222 208.353 413.311L210.283 414.36C209.946 414.272 209.595 414.252 209.25 414.301" fill="#2A2A2B"/>
<path d="M210.316 414.36L208.387 413.311C208.55 413.353 208.708 413.41 208.861 413.48L210.79 414.529C210.638 414.459 210.479 414.402 210.316 414.36Z" fill="#28282A"/>
<path d="M210.79 414.529L208.861 413.48L208.954 413.531L210.883 414.58L210.79 414.529Z" fill="#272728"/>
<path d="M209.292 413.031L207.363 411.982C207.84 411.913 208.326 411.939 208.793 412.058L210.723 413.107C210.256 412.988 209.77 412.962 209.292 413.031Z" fill="#9FA0A0"/>
<path d="M210.706 413.107L208.776 412.058C209.001 412.114 209.219 412.193 209.428 412.295L211.357 413.344C211.149 413.243 210.931 413.163 210.706 413.107Z" fill="#9A9B9B"/>
<path d="M211.374 413.344L209.445 412.295L209.572 412.363L211.501 413.412L211.374 413.344Z" fill="#959696"/>
<path d="M203.089 426.057L201.16 425.049C200.72 424.792 200.359 424.42 200.116 423.972C199.873 423.525 199.757 423.019 199.78 422.51L201.71 423.56C201.686 424.069 201.803 424.574 202.046 425.022C202.289 425.469 202.65 425.842 203.089 426.099" fill="#212122"/>
<path d="M202.472 427.216L200.551 426.167C199.937 425.81 199.433 425.293 199.091 424.671C198.75 424.05 198.584 423.346 198.613 422.637L200.542 423.687C200.514 424.396 200.679 425.099 201.021 425.721C201.362 426.343 201.867 426.86 202.48 427.216" fill="#7D7E7E"/>
<path d="M204.706 414.952L202.776 413.903L207.354 413.251L209.284 414.301L204.706 414.952Z" fill="#2D2D2E"/>
<path d="M204.706 413.674L202.776 412.625L207.363 411.982L209.292 413.031L204.706 413.674Z" fill="#AAABAB"/>
<path d="M207.008 409.316L205.078 408.266C206.252 408.093 207.448 408.154 208.599 408.444L210.528 409.494C209.378 409.203 208.181 409.143 207.008 409.316Z" fill="#2A2A2B"/>
<path d="M210.528 409.494L208.599 408.444C209.153 408.588 209.691 408.787 210.206 409.037L212.136 410.086C211.621 409.836 211.082 409.638 210.528 409.494Z" fill="#28282A"/>
<path d="M212.136 410.086L210.206 409.036L210.52 409.197L212.449 410.247L212.136 410.086Z" fill="#272728"/>
<path d="M201.71 423.526L199.78 422.477L199.789 417.534L201.718 418.583L201.71 423.526Z" fill="#202021"/>
<path d="M209.284 414.301C209.672 414.248 210.067 414.283 210.441 414.402C210.814 414.522 211.156 414.723 211.441 414.991C211.726 415.26 211.948 415.589 212.09 415.954C212.233 416.319 212.292 416.711 212.263 417.102V422.045C212.265 422.904 211.968 423.737 211.423 424.401C210.878 425.065 210.119 425.519 209.275 425.684L204.689 426.327C204.301 426.379 203.907 426.343 203.535 426.223C203.163 426.103 202.822 425.901 202.538 425.633C202.253 425.365 202.032 425.036 201.89 424.672C201.749 424.308 201.69 423.916 201.718 423.526V418.583C201.716 417.724 202.013 416.891 202.558 416.227C203.103 415.563 203.863 415.109 204.706 414.944L209.284 414.301Z" fill="#373739"/>
<path d="M201.718 418.583L199.789 417.534C199.792 417.103 199.869 416.677 200.017 416.273L201.947 417.322C201.795 417.725 201.717 418.152 201.718 418.583Z" fill="#212122"/>
<path d="M201.947 417.322L200.017 416.273C200.076 416.096 200.153 415.926 200.246 415.765L202.175 416.814C202.082 416.976 202.006 417.146 201.947 417.322Z" fill="#222223"/>
<path d="M202.175 416.814L200.246 415.74C200.317 415.605 200.396 415.475 200.483 415.35L202.412 416.4C202.325 416.524 202.246 416.654 202.175 416.789" fill="#232324"/>
<path d="M202.412 416.425L200.483 415.376C200.566 415.258 200.657 415.144 200.754 415.037L202.683 416.087C202.586 416.194 202.496 416.307 202.412 416.425Z" fill="#252526"/>
<path d="M202.683 416.087L200.754 415.037C200.849 414.926 200.95 414.822 201.058 414.724L202.988 415.773C202.88 415.871 202.778 415.976 202.683 416.087Z" fill="#262627"/>
<path d="M202.988 415.74L201.058 414.69L201.422 414.402L203.352 415.452C203.225 415.541 203.104 415.637 202.988 415.74Z" fill="#272728"/>
<path d="M203.352 415.486L201.397 414.436C201.552 414.333 201.713 414.24 201.879 414.157L203.809 415.206C203.642 415.289 203.481 415.383 203.326 415.486" fill="#28282A"/>
<path d="M203.834 415.206L201.904 414.157C202.174 414.033 202.458 413.945 202.751 413.895L204.68 414.944C204.388 414.994 204.103 415.082 203.834 415.206Z" fill="#2A2A2B"/>
<path d="M200.534 423.687L198.604 422.637L198.613 417.703L200.542 418.753L200.534 423.687Z" fill="#7B7C7C"/>
<path d="M200.55 418.753L198.621 417.703C198.625 417.099 198.733 416.501 198.943 415.934L200.872 416.984C200.663 417.55 200.554 418.149 200.55 418.753Z" fill="#7D7E7E"/>
<path d="M200.864 416.984L198.934 415.934C199.025 415.694 199.129 415.46 199.247 415.232L201.177 416.281C201.055 416.507 200.951 416.742 200.864 416.984Z" fill="#828383"/>
<path d="M201.177 416.281L199.247 415.232C199.349 415.046 199.467 414.859 199.586 414.682L201.515 415.731C201.397 415.909 201.278 416.095 201.177 416.281Z" fill="#878888"/>
<path d="M201.515 415.74L199.586 414.69C199.703 414.525 199.83 414.366 199.967 414.216L201.896 415.266C201.76 415.416 201.633 415.574 201.515 415.74Z" fill="#8C8C8C"/>
<path d="M201.896 415.257L199.967 414.208C200.099 414.056 200.24 413.911 200.39 413.776L202.319 414.826C202.17 414.961 202.028 415.105 201.896 415.257Z" fill="#919191"/>
<path d="M202.319 414.826L200.39 413.776C200.548 413.634 200.715 413.501 200.889 413.378L202.818 414.428C202.644 414.55 202.478 414.683 202.319 414.826Z" fill="#959696"/>
<path d="M202.819 414.428L200.889 413.378C201.104 413.231 201.331 413.101 201.566 412.989L203.496 414.038C203.259 414.148 203.033 414.279 202.819 414.428Z" fill="#9A9B9B"/>
<path d="M203.495 414.047L201.566 412.997C201.949 412.816 202.357 412.693 202.776 412.633L204.706 413.683C204.286 413.743 203.878 413.866 203.495 414.047Z" fill="#9FA0A0"/>
<path d="M209.292 413.031C211.577 412.71 213.439 414.462 213.439 416.941V421.876C213.439 423.073 213.024 424.233 212.265 425.159C211.506 426.085 210.449 426.719 209.276 426.954L204.689 427.597C204.148 427.669 203.597 427.619 203.078 427.452C202.558 427.284 202.083 427.003 201.685 426.628C201.288 426.254 200.98 425.796 200.782 425.287C200.584 424.778 200.502 424.231 200.542 423.687V418.753C200.541 417.555 200.955 416.394 201.714 415.468C202.474 414.542 203.531 413.908 204.706 413.675L209.292 413.031ZM212.254 422.045V417.102C212.283 416.711 212.224 416.319 212.082 415.954C211.94 415.589 211.718 415.26 211.433 414.992C211.147 414.723 210.805 414.522 210.432 414.402C210.059 414.283 209.664 414.248 209.276 414.301L204.697 414.944C203.854 415.109 203.095 415.563 202.55 416.227C202.005 416.891 201.708 417.724 201.71 418.583V423.526C201.681 423.916 201.74 424.308 201.882 424.672C202.023 425.037 202.245 425.365 202.529 425.633C202.814 425.901 203.154 426.103 203.526 426.223C203.898 426.343 204.293 426.379 204.68 426.328L209.267 425.684C210.11 425.519 210.869 425.066 211.415 424.401C211.96 423.737 212.257 422.904 212.254 422.045Z" fill="#D2D3D3"/>
<path d="M201.524 430.382L199.594 429.332C198.096 428.457 196.864 427.19 196.031 425.668C195.197 424.145 194.794 422.425 194.864 420.691C194.876 419.215 195.142 417.752 195.651 416.366L197.58 417.415C197.072 418.801 196.806 420.264 196.793 421.74C196.722 423.475 197.124 425.196 197.958 426.718C198.791 428.241 200.024 429.507 201.524 430.382Z" fill="#212122"/>
<path d="M197.58 417.432L195.651 416.383C195.868 415.802 196.126 415.236 196.421 414.69L198.35 415.74C198.055 416.286 197.798 416.851 197.58 417.432Z" fill="#222223"/>
<path d="M198.35 415.74L196.421 414.69C196.68 414.227 196.962 413.778 197.267 413.344L199.197 414.394C198.892 414.828 198.609 415.277 198.35 415.74Z" fill="#232324"/>
<path d="M199.18 414.352L197.25 413.302C197.534 412.897 197.842 412.51 198.173 412.143L200.102 413.192C199.772 413.56 199.464 413.947 199.18 414.352Z" fill="#252526"/>
<path d="M200.102 413.201L198.172 412.151C198.498 411.78 198.846 411.43 199.213 411.102L201.143 412.151C200.775 412.479 200.427 412.83 200.102 413.201Z" fill="#262627"/>
<path d="M201.143 412.143L199.213 411.093C199.601 410.74 200.011 410.412 200.44 410.111L202.37 411.161C201.94 411.461 201.53 411.789 201.143 412.143Z" fill="#272728"/>
<path d="M202.37 411.161L200.44 410.111C200.976 409.747 201.542 409.43 202.133 409.163L204.063 410.213C203.472 410.479 202.906 410.796 202.37 411.161Z" fill="#28282A"/>
<path d="M204.029 410.213L202.099 409.163C203.04 408.713 204.045 408.411 205.078 408.266L207.008 409.316C205.974 409.46 204.97 409.763 204.029 410.213Z" fill="#2A2A2B"/>
<path d="M207.008 409.316C212.635 408.52 217.163 412.803 217.163 418.88C217.163 424.956 212.584 430.525 206.957 431.321C201.329 432.117 196.802 427.826 196.802 421.74C196.802 415.655 201.397 410.103 207.008 409.316ZM213.431 421.876V416.941C213.431 414.462 211.569 412.71 209.284 413.031L204.697 413.675C203.523 413.908 202.465 414.542 201.706 415.468C200.947 416.394 200.532 417.555 200.534 418.753V423.687C200.494 424.231 200.576 424.778 200.773 425.287C200.971 425.796 201.28 426.254 201.677 426.628C202.074 427.003 202.55 427.284 203.069 427.452C203.589 427.619 204.139 427.669 204.68 427.597L209.267 426.954C210.441 426.719 211.497 426.085 212.256 425.159C213.015 424.233 213.43 423.073 213.431 421.876Z" fill="#373739"/>
<path d="M311.318 386.887L309.389 385.838L310.007 54.3126L311.936 55.362L311.318 386.887Z" fill="#151516"/>
<path d="M106.192 415.723L104.262 414.673L309.389 385.838L311.318 386.887L106.192 415.723Z" fill="#1D1D1E"/>
<path d="M156.138 408.698L154.209 407.649L310.007 54.3126L311.936 55.362L156.138 408.698Z" fill="#242425"/>
<path d="M106.192 415.723L104.262 414.673L104.279 405.431L106.209 406.481L106.192 415.723Z" fill="#353535"/>
<path d="M311.936 55.362L310.007 54.3125L310.066 24.2754L311.995 25.3249L311.936 55.362Z" fill="#151516"/>
<path d="M89.038 451.066L87.1508 450.017C82.4879 447.478 79.399 442.29 79.416 435.883L81.337 436.932C81.337 443.339 84.4174 448.527 89.0803 451.066" fill="#151516"/>
<path d="M271.781 30.9785L269.851 29.929L310.066 24.2754L311.995 25.3249L271.781 30.9785Z" fill="#454545"/>
<path d="M239.479 35.1765L237.558 34.127C255.651 31.5879 268.54 29.8529 269.716 29.8952L271.645 30.9447C270.435 30.8855 257.547 32.6374 239.487 35.1765" fill="#454545"/>
<path d="M271.688 30.9616L269.758 29.9122H269.809L271.738 30.9616H271.688Z" fill="#434343"/>
<path d="M271.738 30.9616L269.809 29.9122L271.738 30.9616Z" fill="#404040"/>
<path d="M271.764 30.9701L269.834 29.9206L271.764 30.9701Z" fill="#3E3E3E"/>
<path d="M209.123 29.3366L207.194 28.2871C207.272 28.0788 207.312 27.858 207.312 27.6354C207.321 27.3756 207.259 27.1183 207.134 26.8904C207.009 26.6626 206.825 26.4726 206.601 26.3405L208.531 27.39C208.755 27.5221 208.939 27.7121 209.064 27.9399C209.189 28.1678 209.25 28.4251 209.242 28.6849C209.238 28.9071 209.198 29.1272 209.123 29.3366Z" fill="#151516"/>
<path d="M207.177 30.5215L205.256 29.472C205.429 29.5065 205.607 29.5065 205.78 29.472C205.935 29.4479 206.086 29.4023 206.229 29.3366L208.159 30.3861C208.016 30.4518 207.865 30.4974 207.71 30.5215C207.534 30.5558 207.353 30.5558 207.177 30.5215Z" fill="#1B1B1C"/>
<path d="M206.889 30.403L204.968 29.3535L206.897 30.403H206.847" fill="#19191B"/>
<path d="M206.94 30.4284L205.01 29.3789C205.089 29.4186 205.171 29.4498 205.256 29.472L207.177 30.5215C207.095 30.4993 207.015 30.4681 206.94 30.4284Z" fill="#1A1A1C"/>
<path d="M207.177 30.5215L205.256 29.472C205.429 29.5065 205.607 29.5065 205.78 29.472C205.935 29.4479 206.086 29.4023 206.229 29.3366L208.159 30.3861C208.016 30.4518 207.865 30.4974 207.71 30.5215C207.534 30.5558 207.353 30.5558 207.177 30.5215Z" fill="#1B1B1C"/>
<path d="M208.167 30.4115L206.237 29.362C206.324 29.3223 206.406 29.2741 206.483 29.2181L208.412 30.2676C208.335 30.3236 208.253 30.3718 208.167 30.4115Z" fill="#1A1A1C"/>
<path d="M208.404 30.2676L206.474 29.2181C206.54 29.1749 206.602 29.1268 206.661 29.0742L208.59 30.1237C208.532 30.1763 208.469 30.2244 208.404 30.2676Z" fill="#19191B"/>
<path d="M208.59 30.1237L206.661 29.0743L206.813 28.9135L208.742 29.9629L208.59 30.1237Z" fill="#19191A"/>
<path d="M208.742 29.9629L206.813 28.9558C206.863 28.9032 206.908 28.8465 206.948 28.7865L208.878 29.836C208.837 29.896 208.792 29.9526 208.742 30.0053" fill="#181819"/>
<path d="M208.878 29.8021L206.948 28.7526C206.997 28.6888 207.039 28.6209 207.075 28.5495L209.005 29.599C208.969 29.6703 208.926 29.7383 208.878 29.8021Z" fill="#171718"/>
<path d="M209.013 29.5905L207.084 28.541C207.084 28.4564 207.168 28.3717 207.202 28.2871L209.132 29.3366C209.132 29.4212 209.055 29.5058 209.013 29.5905Z" fill="#161617"/>
<path d="M209.123 29.3366L207.194 28.2871C207.272 28.0788 207.312 27.858 207.312 27.6354C207.321 27.3756 207.259 27.1183 207.134 26.8904C207.009 26.6626 206.825 26.4726 206.601 26.3405L208.531 27.39C208.755 27.5221 208.939 27.7121 209.064 27.9399C209.189 28.1678 209.25 28.4251 209.242 28.6849C209.238 28.9071 209.198 29.1272 209.123 29.3366Z" fill="#151516"/>
<path d="M209.123 29.3366L207.194 28.2871C207.272 28.0788 207.312 27.858 207.312 27.6354C207.321 27.3756 207.259 27.1183 207.134 26.8904C207.009 26.6626 206.825 26.4726 206.601 26.3405L208.531 27.39C208.755 27.5221 208.939 27.7121 209.064 27.9399C209.189 28.1678 209.25 28.4251 209.242 28.6849C209.238 28.9071 209.198 29.1272 209.123 29.3366Z" fill="#151516"/>
<path d="M207.718 27.263L205.789 26.2135C205.962 26.1793 206.14 26.1793 206.314 26.2135L208.243 27.263C208.07 27.229 207.892 27.229 207.718 27.263Z" fill="#9FA0A0"/>
<path d="M208.243 27.263L206.314 26.2135C206.396 26.2357 206.475 26.2669 206.551 26.3066L208.48 27.3561C208.405 27.3164 208.325 27.2852 208.243 27.263Z" fill="#9A9B9B"/>
<path d="M208.48 27.3731L206.551 26.3236H206.601L208.531 27.3731H208.48Z" fill="#959696"/>
<path d="M206.889 30.403L204.968 29.3536C204.743 29.2249 204.558 29.0369 204.432 28.81C204.307 28.5831 204.246 28.3261 204.257 28.0671C204.258 27.8446 204.298 27.624 204.376 27.4154L206.305 28.4649C206.228 28.6734 206.187 28.8941 206.187 29.1166C206.176 29.3746 206.236 29.6306 206.359 29.8573C206.483 30.0839 206.666 30.2726 206.889 30.403Z" fill="#7D7E7E"/>
<path d="M206.305 28.4649L204.376 27.4154C204.408 27.3276 204.448 27.2427 204.494 27.1615L206.424 28.211C206.377 28.2922 206.338 28.3771 206.305 28.4649Z" fill="#828383"/>
<path d="M206.424 28.211L204.494 27.1615C204.494 27.0938 204.57 27.0261 204.613 26.9584L206.542 28.0079C206.5 28.0756 206.457 28.1433 206.424 28.211Z" fill="#878888"/>
<path d="M206.542 28.0078L204.613 26.9584L204.756 26.7806L206.686 27.8301L206.542 28.0078Z" fill="#8C8C8C"/>
<path d="M206.686 27.8301L204.782 26.7806C204.782 26.7299 204.883 26.6791 204.934 26.6283L206.864 27.6778C206.813 27.7286 206.754 27.7793 206.711 27.8301" fill="#919191"/>
<path d="M206.838 27.6777L204.909 26.6283C204.967 26.5757 205.029 26.5276 205.095 26.4844L207.024 27.5338C206.959 27.577 206.897 27.6251 206.838 27.6777Z" fill="#959696"/>
<path d="M207.024 27.5339L205.095 26.4844C205.17 26.4253 205.252 26.3769 205.34 26.3405L207.27 27.39C207.182 27.4264 207.099 27.4748 207.024 27.5339Z" fill="#9A9B9B"/>
<path d="M207.27 27.39L205.34 26.3405C205.481 26.2712 205.633 26.2254 205.789 26.2051L207.718 27.2545C207.562 27.2738 207.411 27.3196 207.27 27.39Z" fill="#9FA0A0"/>
<path d="M207.718 27.2631C207.917 27.2361 208.119 27.2537 208.309 27.3147C208.5 27.3757 208.675 27.4784 208.821 27.6154C208.967 27.7525 209.08 27.9204 209.153 28.1068C209.226 28.2933 209.256 28.4937 209.242 28.6934C209.24 29.1329 209.087 29.5583 208.808 29.8977C208.529 30.2371 208.141 30.4694 207.71 30.5554C207.512 30.5823 207.31 30.5647 207.119 30.5037C206.928 30.4428 206.754 30.34 206.608 30.203C206.462 30.066 206.348 29.8981 206.275 29.7116C206.203 29.5251 206.172 29.3247 206.187 29.125C206.186 28.6851 206.339 28.2588 206.618 27.9191C206.898 27.5794 207.287 27.3475 207.718 27.2631Z" fill="#D2D3D3"/>
<path d="M106.378 54.4649L104.448 53.4154L144.138 47.601C172.725 43.42 210.824 37.8848 237.566 34.127L239.487 35.1765C212.754 38.9343 174.655 44.4864 146.068 48.6504L106.378 54.4649Z" fill="#454545"/>
<path d="M106.86 54.1602L104.931 53.1107L144.138 47.601L146.059 48.6504L106.86 54.1602Z" fill="#2D2D2E"/>
<path d="M106.86 54.3972L104.931 53.3477V53.1107L106.86 54.1602V54.3972Z" fill="#202021"/>
<path d="M239.479 35.1764C258.334 32.5274 271.535 30.7585 271.772 30.9447L311.987 25.291L311.928 55.3281L156.138 408.698L106.209 415.723V406.48C106.268 373.337 106.378 70.4102 106.378 54.4648L146.068 48.6504C174.655 44.4694 212.754 38.9343 239.479 35.1764Z" fill="#5B5B5B"/>
<path d="M106.209 406.481L104.279 405.431C104.338 372.288 104.448 69.3607 104.448 53.4154L106.378 54.4649C106.378 70.4102 106.268 373.337 106.209 406.481Z" fill="#363636"/>
<path d="M316.743 1.25457C325.95 -0.0403514 333.414 6.95053 333.414 16.9206L332.703 401.597C332.703 411.542 325.197 420.657 315.981 421.952L97.9491 452.598C88.7333 453.893 81.2777 446.877 81.2946 436.932L82.0139 52.2474C82.0139 42.3027 89.5203 33.196 98.7277 31.9349L316.743 1.25457ZM311.936 55.362L311.995 25.3249L271.781 30.9785C271.544 30.7585 258.342 32.5274 239.487 35.2103C212.754 38.9681 174.655 44.5202 146.059 48.6843L106.86 54.194C106.378 54.4987 106.268 373.371 106.209 406.514V415.757L311.335 386.921L311.953 55.3958L311.936 55.362ZM207.016 431.346C212.644 430.559 217.171 424.99 217.222 418.913C217.273 412.837 212.686 408.554 207.067 409.35C201.448 410.145 196.912 415.706 196.852 421.774C196.793 427.842 201.397 432.142 207.007 431.346H207.016ZM207.718 27.263C207.286 27.346 206.896 27.5775 206.616 27.9175C206.337 28.2575 206.185 28.6847 206.187 29.125C206.172 29.3247 206.203 29.5251 206.275 29.7116C206.348 29.898 206.462 30.0659 206.608 30.203C206.754 30.34 206.928 30.4427 207.119 30.5037C207.31 30.5647 207.512 30.5823 207.71 30.5553C208.141 30.4694 208.529 30.2371 208.808 29.8977C209.087 29.5583 209.24 29.1328 209.242 28.6934C209.256 28.4937 209.226 28.2933 209.153 28.1068C209.08 27.9203 208.966 27.7524 208.821 27.6154C208.675 27.4784 208.5 27.3756 208.309 27.3147C208.119 27.2537 207.917 27.2361 207.718 27.263Z" fill="#242426"/>
<path d="M156.138 408.698L311.936 55.362L311.318 386.887L156.138 408.698Z" fill="#373739"/>
<path d="M316.743 1.25459L314.797 0.179719C316.718 -0.104223 318.677 -0.00352854 320.56 0.475947L322.489 1.52541C320.607 1.04594 318.648 0.945256 316.726 1.2292" fill="#1B1B1C"/>
<path d="M322.506 1.55081L320.576 0.501343C321.487 0.736688 322.371 1.06275 323.217 1.47464L325.146 2.52412C324.301 2.11223 323.416 1.78616 322.506 1.55081Z" fill="#1A1A1C"/>
<path d="M325.146 2.52409L323.259 1.47461L323.767 1.73698L325.696 2.78646L325.189 2.52409" fill="#19191B"/>
<path d="M106.86 54.1602L146.059 48.6505C125.444 51.6635 109.772 53.9655 106.86 54.3972V54.1602Z" fill="#373739"/>
<path d="M98.7277 31.901L96.7983 30.8516L314.813 0.205078L316.743 1.25456L98.7277 31.901Z" fill="#1D1D1E"/>
<path d="M81.3031 436.932L79.3652 435.883L80.0845 51.1979L82.0139 52.2559L81.3031 436.932Z" fill="#151516"/>
<path d="M82.014 52.2475L80.0845 51.198C80.0906 48.7791 80.5261 46.3806 81.3708 44.114L83.3004 45.1635C82.4556 47.43 82.0201 49.8286 82.014 52.2475Z" fill="#151516"/>
<path d="M83.3003 45.1634L81.3708 44.114C81.7267 43.1498 82.148 42.2109 82.6317 41.3041L84.5612 42.3536C84.0775 43.2604 83.6562 44.1992 83.3003 45.1634Z" fill="#161617"/>
<path d="M84.5612 42.3536L82.6317 41.3041C83.0416 40.5441 83.4966 39.8093 83.9942 39.1036L85.9237 40.153C85.4261 40.8587 84.9711 41.5936 84.5612 42.3536Z" fill="#171718"/>
<path d="M85.9237 40.153L83.9943 39.112C84.4578 38.4472 84.9578 37.8087 85.4921 37.1993L87.4216 38.2487C86.8874 38.8582 86.3873 39.4967 85.9237 40.1615" fill="#181819"/>
<path d="M87.4216 38.2656L85.4583 37.1908C85.9999 36.5898 86.5669 36.0143 87.1508 35.498L89.0803 36.5475C88.4879 37.0892 87.9209 37.6647 87.3878 38.2403" fill="#19191A"/>
<path d="M89.1226 36.5222L87.1931 35.4727C87.8327 34.8997 88.5083 34.3682 89.2157 33.8815L91.1452 34.931C90.4378 35.4177 89.7622 35.9492 89.1226 36.5222Z" fill="#19191B"/>
<path d="M91.1451 34.931L89.2156 33.8816C90.0723 33.2838 90.9783 32.76 91.9237 32.3158L93.8532 33.3653C92.9078 33.8095 92.0018 34.3333 91.1451 34.931Z" fill="#1A1A1C"/>
<path d="M93.8532 33.3653L91.9238 32.3412C93.4655 31.6102 95.1089 31.1166 96.7983 30.877L98.7277 31.9265C97.0384 32.166 95.395 32.6597 93.8532 33.3907" fill="#1B1B1C"/>
</svg>
