<svg width="163" height="138" viewBox="0 0 163 138" fill="none" xmlns="http://www.w3.org/2000/svg">
<path d="M64.3438 0.8125V7.03125H63.6719C62.9427 3.25 61.0573 1.35938 58.0156 1.35938C56.3802 1.35938 55.1875 2 54.4375 3.28125C53.6875 4.5625 53.3125 7.26042 53.3125 11.375C53.3125 14.7604 53.474 17.0625 53.7969 18.2812C54.1198 19.5 54.6771 20.375 55.4688 20.9062C56.2708 21.4271 57.151 21.6875 58.1094 21.6875C59.3594 21.6875 60.5312 21.2188 61.625 20.2812C62.7292 19.3333 63.5833 17.8177 64.1875 15.7344H64.9219L64.6719 22.125H64.0312C63.7917 21.4583 63.4167 20.8958 62.9062 20.4375C61.2604 21.8021 59.5677 22.4844 57.8281 22.4844C55.6198 22.4844 53.6042 21.4375 51.7812 19.3438C49.9583 17.25 49.0469 14.6875 49.0469 11.6562C49.0469 8.5625 49.9427 5.94271 51.7344 3.79688C53.526 1.64062 55.599 0.5625 57.9531 0.5625C59.7656 0.5625 61.3646 1.21354 62.75 2.51562C63.1562 1.86979 63.4635 1.30208 63.6719 0.8125H64.3438ZM69.5625 21.2031V10.5156H67.0312V9.71875H69.5938C70.9062 9.71875 71.9062 9.65104 72.5938 9.51562V12.4688H72.6562C73.3854 10.5 74.4635 9.51562 75.8906 9.51562C76.5156 9.51562 77.0156 9.70833 77.3906 10.0938C77.776 10.4688 77.9688 10.9271 77.9688 11.4688C77.9688 11.9688 77.8125 12.375 77.5 12.6875C77.1979 12.9896 76.8021 13.1406 76.3125 13.1406C75.4167 13.1406 74.9688 12.6927 74.9688 11.7969L75.0312 11.125C75.0312 10.8854 74.9219 10.7656 74.7031 10.7656C74.3594 10.7656 73.9219 11.2292 73.3906 12.1562C72.8594 13.0833 72.5938 14.5 72.5938 16.4062V21.2031H75.1875V22H67.0312V21.2031H69.5625ZM91.0312 14.9219H83.125C83.0521 18.0052 83.224 19.9062 83.6406 20.625C84.0573 21.3333 84.8021 21.6875 85.875 21.6875C88.0833 21.6875 89.5781 20.4062 90.3594 17.8438H91.0312C90.6875 19.3958 90.0365 20.5417 89.0781 21.2812C88.1198 22.0208 87.0521 22.3906 85.875 22.3906C84.1979 22.3906 82.7396 21.7708 81.5 20.5312C80.2604 19.2812 79.6406 17.7135 79.6406 15.8281C79.6406 13.9948 80.2448 12.4531 81.4531 11.2031C82.6719 9.95312 84.0833 9.32812 85.6875 9.32812C87.0833 9.32812 88.3021 9.82292 89.3438 10.8125C90.3958 11.8021 90.9583 13.1719 91.0312 14.9219ZM83.125 14.2188H87.6719C87.7552 13.4792 87.7969 12.9167 87.7969 12.5312C87.7969 10.8646 87.0417 10.0312 85.5312 10.0312C84.7812 10.0312 84.1927 10.2344 83.7656 10.6406C83.3385 11.0365 83.125 11.5781 83.125 12.2656V14.2188ZM101.547 14.9844V13.3906C101.547 12.0885 101.438 11.2344 101.219 10.8281C101.01 10.4219 100.438 10.2188 99.5 10.2188C97.8125 10.2188 96.9688 10.5417 96.9688 11.1875C96.9688 11.375 97.0365 11.5833 97.1719 11.8125C97.3177 12.0312 97.3906 12.2917 97.3906 12.5938C97.3906 13.0208 97.25 13.349 96.9688 13.5781C96.6875 13.7969 96.3698 13.9062 96.0156 13.9062C95.5573 13.9062 95.2031 13.7656 94.9531 13.4844C94.7031 13.1927 94.5781 12.8542 94.5781 12.4688C94.5781 11.6354 95.0625 10.9375 96.0312 10.375C97.0104 9.80208 98.3698 9.51562 100.109 9.51562C101.505 9.51562 102.526 9.67708 103.172 10C103.818 10.3229 104.214 10.724 104.359 11.2031C104.516 11.6823 104.594 12.3594 104.594 13.2344V18.9844C104.594 19.8281 104.651 20.3542 104.766 20.5625C104.891 20.7708 105.078 20.875 105.328 20.875C105.703 20.875 106.068 20.6198 106.422 20.1094H106.797C106.526 21.6302 105.641 22.3906 104.141 22.3906C102.693 22.3906 101.828 21.5573 101.547 19.8906C100.328 21.5573 98.901 22.3906 97.2656 22.3906C96.1823 22.3906 95.3177 22.099 94.6719 21.5156C94.026 20.9219 93.7031 20.1979 93.7031 19.3438C93.7031 16.6875 96.3177 15.2344 101.547 14.9844ZM101.547 17.3906V15.7031C99.6198 15.776 98.349 16.0677 97.7344 16.5781C97.1198 17.0781 96.8125 17.8073 96.8125 18.7656C96.8125 19.4635 96.9948 20.0052 97.3594 20.3906C97.7344 20.776 98.1615 20.9688 98.6406 20.9688C99.2552 20.9688 99.8073 20.7656 100.297 20.3594C100.797 19.9427 101.13 19.526 101.297 19.1094C101.464 18.6927 101.547 18.1198 101.547 17.3906ZM8.73438 53.9844V52.3906C8.73438 51.0885 8.625 50.2344 8.40625 49.8281C8.19792 49.4219 7.625 49.2188 6.6875 49.2188C5 49.2188 4.15625 49.5417 4.15625 50.1875C4.15625 50.375 4.22396 50.5833 4.35938 50.8125C4.50521 51.0312 4.57812 51.2917 4.57812 51.5938C4.57812 52.0208 4.4375 52.349 4.15625 52.5781C3.875 52.7969 3.55729 52.9062 3.20312 52.9062C2.74479 52.9062 2.39062 52.7656 2.14062 52.4844C1.89062 52.1927 1.76562 51.8542 1.76562 51.4688C1.76562 50.6354 2.25 49.9375 3.21875 49.375C4.19792 48.8021 5.55729 48.5156 7.29688 48.5156C8.69271 48.5156 9.71354 48.6771 10.3594 49C11.0052 49.3229 11.401 49.724 11.5469 50.2031C11.7031 50.6823 11.7812 51.3594 11.7812 52.2344V57.9844C11.7812 58.8281 11.8385 59.3542 11.9531 59.5625C12.0781 59.7708 12.2656 59.875 12.5156 59.875C12.8906 59.875 13.2552 59.6198 13.6094 59.1094H13.9844C13.7135 60.6302 12.8281 61.3906 11.3281 61.3906C9.88021 61.3906 9.01562 60.5573 8.73438 58.8906C7.51562 60.5573 6.08854 61.3906 4.45312 61.3906C3.36979 61.3906 2.50521 61.099 1.85938 60.5156C1.21354 59.9219 0.890625 59.1979 0.890625 58.3438C0.890625 55.6875 3.50521 54.2344 8.73438 53.9844ZM8.73438 56.3906V54.7031C6.80729 54.776 5.53646 55.0677 4.92188 55.5781C4.30729 56.0781 4 56.8073 4 57.7656C4 58.4635 4.18229 59.0052 4.54688 59.3906C4.92188 59.776 5.34896 59.9688 5.82812 59.9688C6.44271 59.9688 6.99479 59.7656 7.48438 59.3594C7.98438 58.9427 8.31771 58.526 8.48438 58.1094C8.65104 57.6927 8.73438 57.1198 8.73438 56.3906ZM18.125 60.2031V49.5156H15.9062V48.7188H17.3281C18.7344 48.7188 20.0104 48.6406 21.1562 48.4844V51.5312H21.2188C22.2917 49.3958 23.8073 48.3281 25.7656 48.3281C26.6823 48.3281 27.4323 48.5625 28.0156 49.0312C28.6094 49.5 29.0104 50.0521 29.2188 50.6875C29.4375 51.3229 29.5469 52.3073 29.5469 53.6406V60.2031H31.9844V61H24.4219V60.2031H26.5V52.3906C26.5 51.1927 26.4219 50.3646 26.2656 49.9062C26.1198 49.4479 25.7292 49.2188 25.0938 49.2188C24.0833 49.2188 23.1719 49.7396 22.3594 50.7812C21.5573 51.8125 21.1562 53.2031 21.1562 54.9531V60.2031H23.2031V61H15.9062V60.2031H18.125ZM35.2344 42.4688C35.2344 42.0104 35.401 41.6146 35.7344 41.2812C36.0781 40.9479 36.4792 40.7812 36.9375 40.7812C37.3958 40.7812 37.7917 40.9479 38.125 41.2812C38.4688 41.6042 38.6406 42 38.6406 42.4688C38.6406 42.9583 38.474 43.3646 38.1406 43.6875C37.8073 44.0104 37.4062 44.1719 36.9375 44.1719C36.4688 44.1719 36.0677 44.0104 35.7344 43.6875C35.401 43.3542 35.2344 42.9479 35.2344 42.4688ZM38.375 48.4844V60.2031H40.4219V61H33.1562V60.2031H35.3438V49.5156H33.1562V48.7188H35.375C36.4375 48.7188 37.4375 48.6406 38.375 48.4844ZM44.3438 60.2031V49.5156H42.1406V48.7188H43.5156C45.1406 48.7188 46.4323 48.651 47.3906 48.5156V51.5312H47.4531C48.276 49.5208 49.7448 48.5156 51.8594 48.5156C54.1615 48.5156 55.4323 49.5833 55.6719 51.7188H55.7344C56.6406 49.5833 58.1458 48.5156 60.25 48.5156C61.1875 48.5156 61.974 48.75 62.6094 49.2188C63.2552 49.6875 63.651 50.2292 63.7969 50.8438C63.9531 51.4583 64.0312 52.474 64.0312 53.8906V60.2031H66.2031V61H58.9375V60.2031H60.9844V52.4844C60.9844 51.2656 60.9115 50.4271 60.7656 49.9688C60.6302 49.5104 60.2552 49.2812 59.6406 49.2812C58.7969 49.2812 57.9271 49.7604 57.0312 50.7188C56.1458 51.6667 55.7031 53.474 55.7031 56.1406V60.2031H57.7188V61H50.6406V60.2031H52.6719V54.1562C52.6719 51.8021 52.5833 50.401 52.4062 49.9531C52.2396 49.5052 51.8333 49.2812 51.1875 49.2812C50.3021 49.2812 49.526 49.6719 48.8594 50.4531C48.2031 51.2344 47.7917 51.9948 47.625 52.7344C47.4688 53.474 47.3906 54.651 47.3906 56.2656V60.2031H49.4062V61H42.1406V60.2031H44.3438ZM76.4844 53.9844V52.3906C76.4844 51.0885 76.375 50.2344 76.1562 49.8281C75.9479 49.4219 75.375 49.2188 74.4375 49.2188C72.75 49.2188 71.9062 49.5417 71.9062 50.1875C71.9062 50.375 71.974 50.5833 72.1094 50.8125C72.2552 51.0312 72.3281 51.2917 72.3281 51.5938C72.3281 52.0208 72.1875 52.349 71.9062 52.5781C71.625 52.7969 71.3073 52.9062 70.9531 52.9062C70.4948 52.9062 70.1406 52.7656 69.8906 52.4844C69.6406 52.1927 69.5156 51.8542 69.5156 51.4688C69.5156 50.6354 70 49.9375 70.9688 49.375C71.9479 48.8021 73.3073 48.5156 75.0469 48.5156C76.4427 48.5156 77.4635 48.6771 78.1094 49C78.7552 49.3229 79.151 49.724 79.2969 50.2031C79.4531 50.6823 79.5312 51.3594 79.5312 52.2344V57.9844C79.5312 58.8281 79.5885 59.3542 79.7031 59.5625C79.8281 59.7708 80.0156 59.875 80.2656 59.875C80.6406 59.875 81.0052 59.6198 81.3594 59.1094H81.7344C81.4635 60.6302 80.5781 61.3906 79.0781 61.3906C77.6302 61.3906 76.7656 60.5573 76.4844 58.8906C75.2656 60.5573 73.8385 61.3906 72.2031 61.3906C71.1198 61.3906 70.2552 61.099 69.6094 60.5156C68.9635 59.9219 68.6406 59.1979 68.6406 58.3438C68.6406 55.6875 71.2552 54.2344 76.4844 53.9844ZM76.4844 56.3906V54.7031C74.5573 54.776 73.2865 55.0677 72.6719 55.5781C72.0573 56.0781 71.75 56.8073 71.75 57.7656C71.75 58.4635 71.9323 59.0052 72.2969 59.3906C72.6719 59.776 73.099 59.9688 73.5781 59.9688C74.1927 59.9688 74.7448 59.7656 75.2344 59.3594C75.7344 58.9427 76.0677 58.526 76.2344 58.1094C76.401 57.6927 76.4844 57.1198 76.4844 56.3906ZM94.8281 56.75H95.5C95.1875 58.2604 94.5729 59.4115 93.6562 60.2031C92.7396 60.9948 91.6354 61.3906 90.3438 61.3906C88.5833 61.3906 87.0938 60.7396 85.875 59.4375C84.6562 58.125 84.0469 56.6198 84.0469 54.9219C84.0469 53.1719 84.6719 51.6354 85.9219 50.3125C87.1719 48.9896 88.724 48.3281 90.5781 48.3281C91.901 48.3281 92.9792 48.6667 93.8125 49.3438C94.6458 50.0104 95.0625 50.7604 95.0625 51.5938C95.0625 52.0104 94.9167 52.3854 94.625 52.7188C94.3438 53.0521 93.974 53.2188 93.5156 53.2188C93.0677 53.2188 92.6927 53.0781 92.3906 52.7969C92.099 52.5156 91.9531 52.1458 91.9531 51.6875C91.9531 51.3646 92.0781 51.0469 92.3281 50.7344C92.5885 50.4219 92.7188 50.2083 92.7188 50.0938C92.7188 49.8125 92.526 49.5677 92.1406 49.3594C91.7552 49.1406 91.2552 49.0312 90.6406 49.0312C89.5573 49.0312 88.75 49.3229 88.2188 49.9062C87.6979 50.4896 87.4375 51.724 87.4375 53.6094C87.4375 55.4948 87.4844 56.8906 87.5781 57.7969C87.6823 58.6927 87.9479 59.401 88.375 59.9219C88.8021 60.4323 89.5052 60.6875 90.4844 60.6875C92.5469 60.6875 93.9948 59.375 94.8281 56.75ZM99.2969 42.4688C99.2969 42.0104 99.4635 41.6146 99.7969 41.2812C100.141 40.9479 100.542 40.7812 101 40.7812C101.458 40.7812 101.854 40.9479 102.188 41.2812C102.531 41.6042 102.703 42 102.703 42.4688C102.703 42.9583 102.536 43.3646 102.203 43.6875C101.87 44.0104 101.469 44.1719 101 44.1719C100.531 44.1719 100.13 44.0104 99.7969 43.6875C99.4635 43.3542 99.2969 42.9479 99.2969 42.4688ZM102.438 48.4844V60.2031H104.484V61H97.2188V60.2031H99.4062V49.5156H97.2188V48.7188H99.4375C100.5 48.7188 101.5 48.6406 102.438 48.4844ZM106.453 54.8281C106.453 53.026 107.073 51.4948 108.312 50.2344C109.552 48.9635 111.089 48.3281 112.922 48.3281C114.714 48.3281 116.229 48.9375 117.469 50.1562C118.719 51.3646 119.344 52.8802 119.344 54.7031C119.344 56.5677 118.698 58.151 117.406 59.4531C116.115 60.7448 114.589 61.3906 112.828 61.3906C111.099 61.3906 109.604 60.7604 108.344 59.5C107.083 58.2292 106.453 56.6719 106.453 54.8281ZM115.828 54.8281C115.828 52.9115 115.76 51.6458 115.625 51.0312C115.5 50.4167 115.208 49.9323 114.75 49.5781C114.302 49.2135 113.682 49.0312 112.891 49.0312C112.141 49.0312 111.521 49.2188 111.031 49.5938C110.552 49.9583 110.255 50.4479 110.141 51.0625C110.026 51.6771 109.969 52.9427 109.969 54.8594C109.969 56.7865 110.036 58.0625 110.172 58.6875C110.318 59.3125 110.625 59.8021 111.094 60.1562C111.573 60.5104 112.172 60.6875 112.891 60.6875C113.62 60.6875 114.224 60.5104 114.703 60.1562C115.193 59.7917 115.5 59.2917 115.625 58.6562C115.76 58.0104 115.828 56.7344 115.828 54.8281ZM123.906 60.2031V49.5156H121.688V48.7188H123.109C124.516 48.7188 125.792 48.6406 126.938 48.4844V51.5312H127C128.073 49.3958 129.589 48.3281 131.547 48.3281C132.464 48.3281 133.214 48.5625 133.797 49.0312C134.391 49.5 134.792 50.0521 135 50.6875C135.219 51.3229 135.328 52.3073 135.328 53.6406V60.2031H137.766V61H130.203V60.2031H132.281V52.3906C132.281 51.1927 132.203 50.3646 132.047 49.9062C131.901 49.4479 131.51 49.2188 130.875 49.2188C129.865 49.2188 128.953 49.7396 128.141 50.7812C127.339 51.8125 126.938 53.2031 126.938 54.9531V60.2031H128.984V61H121.688V60.2031H123.906ZM150.688 53.9219H142.781C142.708 57.0052 142.88 58.9062 143.297 59.625C143.714 60.3333 144.458 60.6875 145.531 60.6875C147.74 60.6875 149.234 59.4062 150.016 56.8438H150.688C150.344 58.3958 149.693 59.5417 148.734 60.2812C147.776 61.0208 146.708 61.3906 145.531 61.3906C143.854 61.3906 142.396 60.7708 141.156 59.5312C139.917 58.2812 139.297 56.7135 139.297 54.8281C139.297 52.9948 139.901 51.4531 141.109 50.2031C142.328 48.9531 143.74 48.3281 145.344 48.3281C146.74 48.3281 147.958 48.8229 149 49.8125C150.052 50.8021 150.615 52.1719 150.688 53.9219ZM142.781 53.2188H147.328C147.411 52.4792 147.453 51.9167 147.453 51.5312C147.453 49.8646 146.698 49.0312 145.188 49.0312C144.438 49.0312 143.849 49.2344 143.422 49.6406C142.995 50.0365 142.781 50.5781 142.781 51.2656V53.2188ZM161.5 48.5781V52.0781H160.859C160.38 50.0469 159.214 49.0312 157.359 49.0312C156.557 49.0312 155.885 49.2448 155.344 49.6719C154.812 50.0885 154.547 50.5677 154.547 51.1094C154.547 51.5677 154.734 51.9323 155.109 52.2031C155.495 52.4635 156.396 52.6875 157.812 52.875C160.927 53.2604 162.484 54.6771 162.484 57.125C162.484 58.3438 162.078 59.3594 161.266 60.1719C160.464 60.9844 159.464 61.3906 158.266 61.3906C157.089 61.3906 155.948 60.9062 154.844 59.9375L153.75 60.875H153.203V56.2656H153.75C154.646 59.2135 156.151 60.6875 158.266 60.6875C159.068 60.6875 159.797 60.4323 160.453 59.9219C161.109 59.4115 161.438 58.8125 161.438 58.125C161.438 57.5521 161.24 57.1198 160.844 56.8281C160.458 56.5365 159.406 56.2656 157.688 56.0156C154.76 55.5885 153.297 54.2865 153.297 52.1094C153.297 51.0365 153.688 50.1406 154.469 49.4219C155.26 48.6927 156.224 48.3281 157.359 48.3281C158.557 48.3281 159.562 48.724 160.375 49.5156C160.583 49.2969 160.797 48.9844 161.016 48.5781H161.5ZM70.2812 94.75H70.9531C70.6406 96.2604 70.026 97.4115 69.1094 98.2031C68.1927 98.9948 67.0885 99.3906 65.7969 99.3906C64.0365 99.3906 62.5469 98.7396 61.3281 97.4375C60.1094 96.125 59.5 94.6198 59.5 92.9219C59.5 91.1719 60.125 89.6354 61.375 88.3125C62.625 86.9896 64.1771 86.3281 66.0312 86.3281C67.3542 86.3281 68.4323 86.6667 69.2656 87.3438C70.099 88.0104 70.5156 88.7604 70.5156 89.5938C70.5156 90.0104 70.3698 90.3854 70.0781 90.7188C69.7969 91.0521 69.4271 91.2188 68.9688 91.2188C68.5208 91.2188 68.1458 91.0781 67.8438 90.7969C67.5521 90.5156 67.4062 90.1458 67.4062 89.6875C67.4062 89.3646 67.5312 89.0469 67.7812 88.7344C68.0417 88.4219 68.1719 88.2083 68.1719 88.0938C68.1719 87.8125 67.9792 87.5677 67.5938 87.3594C67.2083 87.1406 66.7083 87.0312 66.0938 87.0312C65.0104 87.0312 64.2031 87.3229 63.6719 87.9062C63.151 88.4896 62.8906 89.724 62.8906 91.6094C62.8906 93.4948 62.9375 94.8906 63.0312 95.7969C63.1354 96.6927 63.401 97.401 63.8281 97.9219C64.2552 98.4323 64.9583 98.6875 65.9375 98.6875C68 98.6875 69.4479 97.375 70.2812 94.75ZM73.2188 92.8281C73.2188 91.026 73.8385 89.4948 75.0781 88.2344C76.3177 86.9635 77.8542 86.3281 79.6875 86.3281C81.4792 86.3281 82.9948 86.9375 84.2344 88.1562C85.4844 89.3646 86.1094 90.8802 86.1094 92.7031C86.1094 94.5677 85.4635 96.151 84.1719 97.4531C82.8802 98.7448 81.3542 99.3906 79.5938 99.3906C77.8646 99.3906 76.3698 98.7604 75.1094 97.5C73.849 96.2292 73.2188 94.6719 73.2188 92.8281ZM82.5938 92.8281C82.5938 90.9115 82.526 89.6458 82.3906 89.0312C82.2656 88.4167 81.974 87.9323 81.5156 87.5781C81.0677 87.2135 80.4479 87.0312 79.6562 87.0312C78.9062 87.0312 78.2865 87.2188 77.7969 87.5938C77.3177 87.9583 77.0208 88.4479 76.9062 89.0625C76.7917 89.6771 76.7344 90.9427 76.7344 92.8594C76.7344 94.7865 76.8021 96.0625 76.9375 96.6875C77.0833 97.3125 77.3906 97.8021 77.8594 98.1562C78.3385 98.5104 78.9375 98.6875 79.6562 98.6875C80.3854 98.6875 80.9896 98.5104 81.4688 98.1562C81.9583 97.7917 82.2656 97.2917 82.3906 96.6562C82.526 96.0104 82.5938 94.7344 82.5938 92.8281ZM90.6719 98.2031V87.5156H88.4531V86.7188H89.875C91.2812 86.7188 92.5573 86.6406 93.7031 86.4844V89.5312H93.7656C94.8385 87.3958 96.3542 86.3281 98.3125 86.3281C99.2292 86.3281 99.9792 86.5625 100.562 87.0312C101.156 87.5 101.557 88.0521 101.766 88.6875C101.984 89.3229 102.094 90.3073 102.094 91.6406V98.2031H104.531V99H96.9688V98.2031H99.0469V90.3906C99.0469 89.1927 98.9688 88.3646 98.8125 87.9062C98.6667 87.4479 98.276 87.2188 97.6406 87.2188C96.6302 87.2188 95.7188 87.7396 94.9062 88.7812C94.1042 89.8125 93.7031 91.2031 93.7031 92.9531V98.2031H95.75V99H88.4531V98.2031H90.6719ZM41.7188 116.844V137.484H41.0781L27.2812 116.75H27.2188V136.203H30.7656V137H23.3125V136.203H26.4219V116.844H23.0938V116.047H31.0938L40.8594 130.734H40.9219V116.844H37.4531V116.047H44.8906V116.844H41.7188ZM47.5312 130.828C47.5312 129.026 48.151 127.495 49.3906 126.234C50.6302 124.964 52.1667 124.328 54 124.328C55.7917 124.328 57.3073 124.938 58.5469 126.156C59.7969 127.365 60.4219 128.88 60.4219 130.703C60.4219 132.568 59.776 134.151 58.4844 135.453C57.1927 136.745 55.6667 137.391 53.9062 137.391C52.1771 137.391 50.6823 136.76 49.4219 135.5C48.1615 134.229 47.5312 132.672 47.5312 130.828ZM56.9062 130.828C56.9062 128.911 56.8385 127.646 56.7031 127.031C56.5781 126.417 56.2865 125.932 55.8281 125.578C55.3802 125.214 54.7604 125.031 53.9688 125.031C53.2188 125.031 52.599 125.219 52.1094 125.594C51.6302 125.958 51.3333 126.448 51.2188 127.062C51.1042 127.677 51.0469 128.943 51.0469 130.859C51.0469 132.786 51.1146 134.062 51.25 134.688C51.3958 135.312 51.7031 135.802 52.1719 136.156C52.651 136.51 53.25 136.688 53.9688 136.688C54.6979 136.688 55.3021 136.51 55.7812 136.156C56.2708 135.792 56.5781 135.292 56.7031 134.656C56.8385 134.01 56.9062 132.734 56.9062 130.828ZM71.5781 124.578V128.078H70.9375C70.4583 126.047 69.2917 125.031 67.4375 125.031C66.6354 125.031 65.9635 125.245 65.4219 125.672C64.8906 126.089 64.625 126.568 64.625 127.109C64.625 127.568 64.8125 127.932 65.1875 128.203C65.5729 128.464 66.474 128.688 67.8906 128.875C71.0052 129.26 72.5625 130.677 72.5625 133.125C72.5625 134.344 72.1562 135.359 71.3438 136.172C70.5417 136.984 69.5417 137.391 68.3438 137.391C67.1667 137.391 66.026 136.906 64.9219 135.938L63.8281 136.875H63.2812V132.266H63.8281C64.724 135.214 66.2292 136.688 68.3438 136.688C69.1458 136.688 69.875 136.432 70.5312 135.922C71.1875 135.411 71.5156 134.812 71.5156 134.125C71.5156 133.552 71.3177 133.12 70.9219 132.828C70.5365 132.536 69.4844 132.266 67.7656 132.016C64.8385 131.589 63.375 130.286 63.375 128.109C63.375 127.036 63.7656 126.141 64.5469 125.422C65.3385 124.693 66.3021 124.328 67.4375 124.328C68.6354 124.328 69.6406 124.724 70.4531 125.516C70.6615 125.297 70.875 124.984 71.0938 124.578H71.5781ZM75.2188 130.828C75.2188 129.026 75.8385 127.495 77.0781 126.234C78.3177 124.964 79.8542 124.328 81.6875 124.328C83.4792 124.328 84.9948 124.938 86.2344 126.156C87.4844 127.365 88.1094 128.88 88.1094 130.703C88.1094 132.568 87.4635 134.151 86.1719 135.453C84.8802 136.745 83.3542 137.391 81.5938 137.391C79.8646 137.391 78.3698 136.76 77.1094 135.5C75.849 134.229 75.2188 132.672 75.2188 130.828ZM84.5938 130.828C84.5938 128.911 84.526 127.646 84.3906 127.031C84.2656 126.417 83.974 125.932 83.5156 125.578C83.0677 125.214 82.4479 125.031 81.6562 125.031C80.9062 125.031 80.2865 125.219 79.7969 125.594C79.3177 125.958 79.0208 126.448 78.9062 127.062C78.7917 127.677 78.7344 128.943 78.7344 130.859C78.7344 132.786 78.8021 134.062 78.9375 134.688C79.0833 135.312 79.3906 135.802 79.8594 136.156C80.3385 136.51 80.9375 136.688 81.6562 136.688C82.3854 136.688 82.9896 136.51 83.4688 136.156C83.9583 135.792 84.2656 135.292 84.3906 134.656C84.526 134.01 84.5938 132.734 84.5938 130.828ZM96.0938 121.156V124.719H99.7969V125.516H96.0938V133.25C96.0938 134.385 96.1667 135.161 96.3125 135.578C96.4688 135.995 96.875 136.203 97.5312 136.203C98.0312 136.203 98.5104 136.036 98.9688 135.703C99.4375 135.37 99.7917 134.854 100.031 134.156H100.703C100.224 136.177 98.7708 137.188 96.3438 137.188C95.3229 137.188 94.5729 137.005 94.0938 136.641C93.6146 136.266 93.3177 135.807 93.2031 135.266C93.099 134.724 93.0469 133.99 93.0469 133.062V125.516H90.2656V124.719H93.0469V121.422C94.0781 121.422 95.0938 121.333 96.0938 121.156ZM104.641 136.203V125.516H102.109V124.719H104.672C105.984 124.719 106.984 124.651 107.672 124.516V127.469H107.734C108.464 125.5 109.542 124.516 110.969 124.516C111.594 124.516 112.094 124.708 112.469 125.094C112.854 125.469 113.047 125.927 113.047 126.469C113.047 126.969 112.891 127.375 112.578 127.688C112.276 127.99 111.88 128.141 111.391 128.141C110.495 128.141 110.047 127.693 110.047 126.797L110.109 126.125C110.109 125.885 110 125.766 109.781 125.766C109.438 125.766 109 126.229 108.469 127.156C107.938 128.083 107.672 129.5 107.672 131.406V136.203H110.266V137H102.109V136.203H104.641ZM114.906 130.828C114.906 129.026 115.526 127.495 116.766 126.234C118.005 124.964 119.542 124.328 121.375 124.328C123.167 124.328 124.682 124.938 125.922 126.156C127.172 127.365 127.797 128.88 127.797 130.703C127.797 132.568 127.151 134.151 125.859 135.453C124.568 136.745 123.042 137.391 121.281 137.391C119.552 137.391 118.057 136.76 116.797 135.5C115.536 134.229 114.906 132.672 114.906 130.828ZM124.281 130.828C124.281 128.911 124.214 127.646 124.078 127.031C123.953 126.417 123.661 125.932 123.203 125.578C122.755 125.214 122.135 125.031 121.344 125.031C120.594 125.031 119.974 125.219 119.484 125.594C119.005 125.958 118.708 126.448 118.594 127.062C118.479 127.677 118.422 128.943 118.422 130.859C118.422 132.786 118.49 134.062 118.625 134.688C118.771 135.312 119.078 135.802 119.547 136.156C120.026 136.51 120.625 136.688 121.344 136.688C122.073 136.688 122.677 136.51 123.156 136.156C123.646 135.792 123.953 135.292 124.078 134.656C124.214 134.01 124.281 132.734 124.281 130.828ZM138.953 124.578V128.078H138.312C137.833 126.047 136.667 125.031 134.812 125.031C134.01 125.031 133.339 125.245 132.797 125.672C132.266 126.089 132 126.568 132 127.109C132 127.568 132.188 127.932 132.562 128.203C132.948 128.464 133.849 128.688 135.266 128.875C138.38 129.26 139.938 130.677 139.938 133.125C139.938 134.344 139.531 135.359 138.719 136.172C137.917 136.984 136.917 137.391 135.719 137.391C134.542 137.391 133.401 136.906 132.297 135.938L131.203 136.875H130.656V132.266H131.203C132.099 135.214 133.604 136.688 135.719 136.688C136.521 136.688 137.25 136.432 137.906 135.922C138.562 135.411 138.891 134.812 138.891 134.125C138.891 133.552 138.693 133.12 138.297 132.828C137.911 132.536 136.859 132.266 135.141 132.016C132.214 131.589 130.75 130.286 130.75 128.109C130.75 127.036 131.141 126.141 131.922 125.422C132.714 124.693 133.677 124.328 134.812 124.328C136.01 124.328 137.016 124.724 137.828 125.516C138.036 125.297 138.25 124.984 138.469 124.578H138.953Z" fill="white"/>
</svg>
