<svg width="1440" height="810" viewBox="0 0 1440 810" fill="none" xmlns="http://www.w3.org/2000/svg">
<path fill-rule="evenodd" clip-rule="evenodd" d="M751.89 236.49C841.455 236.49 914.07 309.09 914.07 398.662C914.07 488.235 841.455 560.842 751.89 560.842C662.325 560.842 589.71 488.25 589.71 398.662C589.71 309.075 662.318 236.49 751.89 236.49Z" fill="#FAAB22"/>
<path fill-rule="evenodd" clip-rule="evenodd" d="M535.605 295.613H793.747C794.98 295.611 796.201 295.854 797.339 296.328C798.477 296.802 799.51 297.497 800.378 298.373C801.255 299.241 801.952 300.274 802.427 301.414C802.902 302.553 803.146 303.776 803.145 305.01V563.183C803.145 564.416 802.901 565.637 802.426 566.775C801.951 567.913 801.254 568.945 800.378 569.813C799.509 570.686 798.475 571.379 797.338 571.851C796.2 572.324 794.979 572.566 793.747 572.565H535.605C534.372 572.567 533.15 572.324 532.011 571.852C530.872 571.379 529.838 570.686 528.967 569.813C528.093 568.944 527.399 567.911 526.925 566.773C526.451 565.635 526.208 564.415 526.207 563.183V305.04C526.207 303.806 526.45 302.585 526.924 301.445C527.397 300.306 528.092 299.272 528.967 298.403C529.836 297.526 530.87 296.831 532.01 296.358C533.149 295.884 534.371 295.641 535.605 295.643V295.613ZM787.44 547.808H754.8V557.558H787.44V547.808ZM787.44 524.055H754.8V533.805H787.44V524.055ZM787.44 500.273H754.8V510.023H787.44V500.273ZM787.44 476.52H754.8V486.27H787.44V476.52ZM787.44 452.745H754.8V462.495H787.44V452.745ZM787.44 428.993H754.8V438.743H787.44V428.993ZM787.44 405.21H754.8V414.96H787.44V405.21ZM787.44 381.465H754.8V391.215H787.44V381.465ZM787.44 357.705H754.8V367.455H787.44V357.705ZM787.44 333.923H754.8V343.673H787.44V333.923ZM787.44 310.17H754.8V319.92H787.44V310.17ZM573.69 547.808H541.042V557.558H573.675L573.69 547.808ZM573.69 524.055H541.042V533.805H573.675L573.69 524.055ZM573.69 500.273H541.042V510.023H573.675L573.69 500.273ZM573.69 476.52H541.042V486.27H573.675L573.69 476.52ZM573.69 452.745H541.042V462.495H573.675L573.69 452.745ZM573.69 428.993H541.042V438.743H573.675L573.69 428.993ZM573.69 405.21H541.042V414.96H573.675L573.69 405.21ZM573.69 381.465H541.042V391.215H573.675L573.69 381.465ZM573.69 357.705H541.042V367.455H573.675L573.69 357.705ZM573.69 333.923H541.042V343.673H573.675L573.69 333.923ZM573.69 310.17H541.042V319.92H573.675L573.69 310.17ZM589.5 558.053H739.822V442.38H589.5V558.053ZM739.822 310.17H589.5V425.835H739.822V310.17Z" fill="#999999"/>
</svg>
