<svg width="118" height="99" viewBox="0 0 118 99" fill="none" xmlns="http://www.w3.org/2000/svg">
<path d="M6.3125 20.2031V0.84375H3.01562V0.046875H13.3594V0.84375H10.0312V9.79688H19.0781V0.84375H15.8125V0.046875H26.0938V0.84375H22.7969V20.2031H26.0938V21H15.8125V20.2031H19.0781V10.5938H10.0312V20.2031H13.3594V21H3.01562V20.2031H6.3125ZM37.0469 13.9844V12.3906C37.0469 11.0885 36.9375 10.2344 36.7188 9.82812C36.5104 9.42188 35.9375 9.21875 35 9.21875C33.3125 9.21875 32.4688 9.54167 32.4688 10.1875C32.4688 10.375 32.5365 10.5833 32.6719 10.8125C32.8177 11.0312 32.8906 11.2917 32.8906 11.5938C32.8906 12.0208 32.75 12.349 32.4688 12.5781C32.1875 12.7969 31.8698 12.9062 31.5156 12.9062C31.0573 12.9062 30.7031 12.7656 30.4531 12.4844C30.2031 12.1927 30.0781 11.8542 30.0781 11.4688C30.0781 10.6354 30.5625 9.9375 31.5312 9.375C32.5104 8.80208 33.8698 8.51562 35.6094 8.51562C37.0052 8.51562 38.026 8.67708 38.6719 9C39.3177 9.32292 39.7135 9.72396 39.8594 10.2031C40.0156 10.6823 40.0938 11.3594 40.0938 12.2344V17.9844C40.0938 18.8281 40.151 19.3542 40.2656 19.5625C40.3906 19.7708 40.5781 19.875 40.8281 19.875C41.2031 19.875 41.5677 19.6198 41.9219 19.1094H42.2969C42.026 20.6302 41.1406 21.3906 39.6406 21.3906C38.1927 21.3906 37.3281 20.5573 37.0469 18.8906C35.8281 20.5573 34.401 21.3906 32.7656 21.3906C31.6823 21.3906 30.8177 21.099 30.1719 20.5156C29.526 19.9219 29.2031 19.1979 29.2031 18.3438C29.2031 15.6875 31.8177 14.2344 37.0469 13.9844ZM37.0469 16.3906V14.7031C35.1198 14.776 33.849 15.0677 33.2344 15.5781C32.6198 16.0781 32.3125 16.8073 32.3125 17.7656C32.3125 18.4635 32.4948 19.0052 32.8594 19.3906C33.2344 19.776 33.6615 19.9688 34.1406 19.9688C34.7552 19.9688 35.3073 19.7656 35.7969 19.3594C36.2969 18.9427 36.6302 18.526 36.7969 18.1094C36.9635 17.6927 37.0469 17.1198 37.0469 16.3906ZM53.0312 8.57812V12.0781H52.3906C51.9115 10.0469 50.7448 9.03125 48.8906 9.03125C48.0885 9.03125 47.4167 9.24479 46.875 9.67188C46.3438 10.0885 46.0781 10.5677 46.0781 11.1094C46.0781 11.5677 46.2656 11.9323 46.6406 12.2031C47.026 12.4635 47.9271 12.6875 49.3438 12.875C52.4583 13.2604 54.0156 14.6771 54.0156 17.125C54.0156 18.3438 53.6094 19.3594 52.7969 20.1719C51.9948 20.9844 50.9948 21.3906 49.7969 21.3906C48.6198 21.3906 47.4792 20.9062 46.375 19.9375L45.2812 20.875H44.7344V16.2656H45.2812C46.1771 19.2135 47.6823 20.6875 49.7969 20.6875C50.599 20.6875 51.3281 20.4323 51.9844 19.9219C52.6406 19.4115 52.9688 18.8125 52.9688 18.125C52.9688 17.5521 52.7708 17.1198 52.375 16.8281C51.9896 16.5365 50.9375 16.2656 49.2188 16.0156C46.2917 15.5885 44.8281 14.2865 44.8281 12.1094C44.8281 11.0365 45.2188 10.1406 46 9.42188C46.7917 8.69271 47.7552 8.32812 48.8906 8.32812C50.0885 8.32812 51.0938 8.72396 51.9062 9.51562C52.1146 9.29688 52.3281 8.98438 52.5469 8.57812H53.0312ZM75.2344 16.75H75.9062C75.5938 18.2604 74.9792 19.4115 74.0625 20.2031C73.1458 20.9948 72.0417 21.3906 70.75 21.3906C68.9896 21.3906 67.5 20.7396 66.2812 19.4375C65.0625 18.125 64.4531 16.6198 64.4531 14.9219C64.4531 13.1719 65.0781 11.6354 66.3281 10.3125C67.5781 8.98958 69.1302 8.32812 70.9844 8.32812C72.3073 8.32812 73.3854 8.66667 74.2188 9.34375C75.0521 10.0104 75.4688 10.7604 75.4688 11.5938C75.4688 12.0104 75.3229 12.3854 75.0312 12.7188C74.75 13.0521 74.3802 13.2188 73.9219 13.2188C73.474 13.2188 73.099 13.0781 72.7969 12.7969C72.5052 12.5156 72.3594 12.1458 72.3594 11.6875C72.3594 11.3646 72.4844 11.0469 72.7344 10.7344C72.9948 10.4219 73.125 10.2083 73.125 10.0938C73.125 9.8125 72.9323 9.56771 72.5469 9.35938C72.1615 9.14062 71.6615 9.03125 71.0469 9.03125C69.9635 9.03125 69.1562 9.32292 68.625 9.90625C68.1042 10.4896 67.8438 11.724 67.8438 13.6094C67.8438 15.4948 67.8906 16.8906 67.9844 17.7969C68.0885 18.6927 68.3542 19.401 68.7812 19.9219C69.2083 20.4323 69.9115 20.6875 70.8906 20.6875C72.9531 20.6875 74.401 19.375 75.2344 16.75ZM79.7031 2.46875C79.7031 2.01042 79.8698 1.61458 80.2031 1.28125C80.5469 0.947917 80.9479 0.78125 81.4062 0.78125C81.8646 0.78125 82.2604 0.947917 82.5938 1.28125C82.9375 1.60417 83.1094 2 83.1094 2.46875C83.1094 2.95833 82.9427 3.36458 82.6094 3.6875C82.276 4.01042 81.875 4.17188 81.4062 4.17188C80.9375 4.17188 80.5365 4.01042 80.2031 3.6875C79.8698 3.35417 79.7031 2.94792 79.7031 2.46875ZM82.8438 8.48438V20.2031H84.8906V21H77.625V20.2031H79.8125V9.51562H77.625V8.71875H79.8438C80.9062 8.71875 81.9062 8.64062 82.8438 8.48438ZM88.625 20.2031V9.51562H86.4062V8.71875H87.8281C89.2344 8.71875 90.5104 8.64062 91.6562 8.48438V11.5312H91.7188C92.7917 9.39583 94.3073 8.32812 96.2656 8.32812C97.1823 8.32812 97.9323 8.5625 98.5156 9.03125C99.1094 9.5 99.5104 10.0521 99.7188 10.6875C99.9375 11.3229 100.047 12.3073 100.047 13.6406V20.2031H102.484V21H94.9219V20.2031H97V12.3906C97 11.1927 96.9219 10.3646 96.7656 9.90625C96.6198 9.44792 96.2292 9.21875 95.5938 9.21875C94.5833 9.21875 93.6719 9.73958 92.8594 10.7812C92.0573 11.8125 91.6562 13.2031 91.6562 14.9531V20.2031H93.7031V21H86.4062V20.2031H88.625ZM115.406 13.9219H107.5C107.427 17.0052 107.599 18.9062 108.016 19.625C108.432 20.3333 109.177 20.6875 110.25 20.6875C112.458 20.6875 113.953 19.4062 114.734 16.8438H115.406C115.062 18.3958 114.411 19.5417 113.453 20.2812C112.495 21.0208 111.427 21.3906 110.25 21.3906C108.573 21.3906 107.115 20.7708 105.875 19.5312C104.635 18.2812 104.016 16.7135 104.016 14.8281C104.016 12.9948 104.62 11.4531 105.828 10.2031C107.047 8.95312 108.458 8.32812 110.062 8.32812C111.458 8.32812 112.677 8.82292 113.719 9.8125C114.771 10.8021 115.333 12.1719 115.406 13.9219ZM107.5 13.2188H112.047C112.13 12.4792 112.172 11.9167 112.172 11.5312C112.172 9.86458 111.417 9.03125 109.906 9.03125C109.156 9.03125 108.568 9.23438 108.141 9.64062C107.714 10.0365 107.5 10.5781 107.5 11.2656V13.2188ZM47.7812 55.75H48.4531C48.1406 57.2604 47.526 58.4115 46.6094 59.2031C45.6927 59.9948 44.5885 60.3906 43.2969 60.3906C41.5365 60.3906 40.0469 59.7396 38.8281 58.4375C37.6094 57.125 37 55.6198 37 53.9219C37 52.1719 37.625 50.6354 38.875 49.3125C40.125 47.9896 41.6771 47.3281 43.5312 47.3281C44.8542 47.3281 45.9323 47.6667 46.7656 48.3438C47.599 49.0104 48.0156 49.7604 48.0156 50.5938C48.0156 51.0104 47.8698 51.3854 47.5781 51.7188C47.2969 52.0521 46.9271 52.2188 46.4688 52.2188C46.0208 52.2188 45.6458 52.0781 45.3438 51.7969C45.0521 51.5156 44.9062 51.1458 44.9062 50.6875C44.9062 50.3646 45.0312 50.0469 45.2812 49.7344C45.5417 49.4219 45.6719 49.2083 45.6719 49.0938C45.6719 48.8125 45.4792 48.5677 45.0938 48.3594C44.7083 48.1406 44.2083 48.0312 43.5938 48.0312C42.5104 48.0312 41.7031 48.3229 41.1719 48.9062C40.651 49.4896 40.3906 50.724 40.3906 52.6094C40.3906 54.4948 40.4375 55.8906 40.5312 56.7969C40.6354 57.6927 40.901 58.401 41.3281 58.9219C41.7552 59.4323 42.4583 59.6875 43.4375 59.6875C45.5 59.6875 46.9479 58.375 47.7812 55.75ZM50.7188 53.8281C50.7188 52.026 51.3385 50.4948 52.5781 49.2344C53.8177 47.9635 55.3542 47.3281 57.1875 47.3281C58.9792 47.3281 60.4948 47.9375 61.7344 49.1562C62.9844 50.3646 63.6094 51.8802 63.6094 53.7031C63.6094 55.5677 62.9635 57.151 61.6719 58.4531C60.3802 59.7448 58.8542 60.3906 57.0938 60.3906C55.3646 60.3906 53.8698 59.7604 52.6094 58.5C51.349 57.2292 50.7188 55.6719 50.7188 53.8281ZM60.0938 53.8281C60.0938 51.9115 60.026 50.6458 59.8906 50.0312C59.7656 49.4167 59.474 48.9323 59.0156 48.5781C58.5677 48.2135 57.9479 48.0312 57.1562 48.0312C56.4062 48.0312 55.7865 48.2188 55.2969 48.5938C54.8177 48.9583 54.5208 49.4479 54.4062 50.0625C54.2917 50.6771 54.2344 51.9427 54.2344 53.8594C54.2344 55.7865 54.3021 57.0625 54.4375 57.6875C54.5833 58.3125 54.8906 58.8021 55.3594 59.1562C55.8385 59.5104 56.4375 59.6875 57.1562 59.6875C57.8854 59.6875 58.4896 59.5104 58.9688 59.1562C59.4583 58.7917 59.7656 58.2917 59.8906 57.6562C60.026 57.0104 60.0938 55.7344 60.0938 53.8281ZM68.1719 59.2031V48.5156H65.9531V47.7188H67.375C68.7812 47.7188 70.0573 47.6406 71.2031 47.4844V50.5312H71.2656C72.3385 48.3958 73.8542 47.3281 75.8125 47.3281C76.7292 47.3281 77.4792 47.5625 78.0625 48.0312C78.6562 48.5 79.0573 49.0521 79.2656 49.6875C79.4844 50.3229 79.5938 51.3073 79.5938 52.6406V59.2031H82.0312V60H74.4688V59.2031H76.5469V51.3906C76.5469 50.1927 76.4688 49.3646 76.3125 48.9062C76.1667 48.4479 75.776 48.2188 75.1406 48.2188C74.1302 48.2188 73.2188 48.7396 72.4062 49.7812C71.6042 50.8125 71.2031 52.2031 71.2031 53.9531V59.2031H73.25V60H65.9531V59.2031H68.1719ZM19.2188 77.8438V98.4844H18.5781L4.78125 77.75H4.71875V97.2031H8.26562V98H0.8125V97.2031H3.92188V77.8438H0.59375V77.0469H8.59375L18.3594 91.7344H18.4219V77.8438H14.9531V77.0469H22.3906V77.8438H19.2188ZM25.0312 91.8281C25.0312 90.026 25.651 88.4948 26.8906 87.2344C28.1302 85.9635 29.6667 85.3281 31.5 85.3281C33.2917 85.3281 34.8073 85.9375 36.0469 87.1562C37.2969 88.3646 37.9219 89.8802 37.9219 91.7031C37.9219 93.5677 37.276 95.151 35.9844 96.4531C34.6927 97.7448 33.1667 98.3906 31.4062 98.3906C29.6771 98.3906 28.1823 97.7604 26.9219 96.5C25.6615 95.2292 25.0312 93.6719 25.0312 91.8281ZM34.4062 91.8281C34.4062 89.9115 34.3385 88.6458 34.2031 88.0312C34.0781 87.4167 33.7865 86.9323 33.3281 86.5781C32.8802 86.2135 32.2604 86.0312 31.4688 86.0312C30.7188 86.0312 30.099 86.2188 29.6094 86.5938C29.1302 86.9583 28.8333 87.4479 28.7188 88.0625C28.6042 88.6771 28.5469 89.9427 28.5469 91.8594C28.5469 93.7865 28.6146 95.0625 28.75 95.6875C28.8958 96.3125 29.2031 96.8021 29.6719 97.1562C30.151 97.5104 30.75 97.6875 31.4688 97.6875C32.1979 97.6875 32.8021 97.5104 33.2812 97.1562C33.7708 96.7917 34.0781 96.2917 34.2031 95.6562C34.3385 95.0104 34.4062 93.7344 34.4062 91.8281ZM49.0781 85.5781V89.0781H48.4375C47.9583 87.0469 46.7917 86.0312 44.9375 86.0312C44.1354 86.0312 43.4635 86.2448 42.9219 86.6719C42.3906 87.0885 42.125 87.5677 42.125 88.1094C42.125 88.5677 42.3125 88.9323 42.6875 89.2031C43.0729 89.4635 43.974 89.6875 45.3906 89.875C48.5052 90.2604 50.0625 91.6771 50.0625 94.125C50.0625 95.3438 49.6562 96.3594 48.8438 97.1719C48.0417 97.9844 47.0417 98.3906 45.8438 98.3906C44.6667 98.3906 43.526 97.9062 42.4219 96.9375L41.3281 97.875H40.7812V93.2656H41.3281C42.224 96.2135 43.7292 97.6875 45.8438 97.6875C46.6458 97.6875 47.375 97.4323 48.0312 96.9219C48.6875 96.4115 49.0156 95.8125 49.0156 95.125C49.0156 94.5521 48.8177 94.1198 48.4219 93.8281C48.0365 93.5365 46.9844 93.2656 45.2656 93.0156C42.3385 92.5885 40.875 91.2865 40.875 89.1094C40.875 88.0365 41.2656 87.1406 42.0469 86.4219C42.8385 85.6927 43.8021 85.3281 44.9375 85.3281C46.1354 85.3281 47.1406 85.724 47.9531 86.5156C48.1615 86.2969 48.375 85.9844 48.5938 85.5781H49.0781ZM52.7188 91.8281C52.7188 90.026 53.3385 88.4948 54.5781 87.2344C55.8177 85.9635 57.3542 85.3281 59.1875 85.3281C60.9792 85.3281 62.4948 85.9375 63.7344 87.1562C64.9844 88.3646 65.6094 89.8802 65.6094 91.7031C65.6094 93.5677 64.9635 95.151 63.6719 96.4531C62.3802 97.7448 60.8542 98.3906 59.0938 98.3906C57.3646 98.3906 55.8698 97.7604 54.6094 96.5C53.349 95.2292 52.7188 93.6719 52.7188 91.8281ZM62.0938 91.8281C62.0938 89.9115 62.026 88.6458 61.8906 88.0312C61.7656 87.4167 61.474 86.9323 61.0156 86.5781C60.5677 86.2135 59.9479 86.0312 59.1562 86.0312C58.4062 86.0312 57.7865 86.2188 57.2969 86.5938C56.8177 86.9583 56.5208 87.4479 56.4062 88.0625C56.2917 88.6771 56.2344 89.9427 56.2344 91.8594C56.2344 93.7865 56.3021 95.0625 56.4375 95.6875C56.5833 96.3125 56.8906 96.8021 57.3594 97.1562C57.8385 97.5104 58.4375 97.6875 59.1562 97.6875C59.8854 97.6875 60.4896 97.5104 60.9688 97.1562C61.4583 96.7917 61.7656 96.2917 61.8906 95.6562C62.026 95.0104 62.0938 93.7344 62.0938 91.8281ZM73.5938 82.1562V85.7188H77.2969V86.5156H73.5938V94.25C73.5938 95.3854 73.6667 96.1615 73.8125 96.5781C73.9688 96.9948 74.375 97.2031 75.0312 97.2031C75.5312 97.2031 76.0104 97.0365 76.4688 96.7031C76.9375 96.3698 77.2917 95.8542 77.5312 95.1562H78.2031C77.724 97.1771 76.2708 98.1875 73.8438 98.1875C72.8229 98.1875 72.0729 98.0052 71.5938 97.6406C71.1146 97.2656 70.8177 96.8073 70.7031 96.2656C70.599 95.724 70.5469 94.9896 70.5469 94.0625V86.5156H67.7656V85.7188H70.5469V82.4219C71.5781 82.4219 72.5938 82.3333 73.5938 82.1562ZM82.1406 97.2031V86.5156H79.6094V85.7188H82.1719C83.4844 85.7188 84.4844 85.651 85.1719 85.5156V88.4688H85.2344C85.9635 86.5 87.0417 85.5156 88.4688 85.5156C89.0938 85.5156 89.5938 85.7083 89.9688 86.0938C90.3542 86.4688 90.5469 86.9271 90.5469 87.4688C90.5469 87.9688 90.3906 88.375 90.0781 88.6875C89.776 88.9896 89.3802 89.1406 88.8906 89.1406C87.9948 89.1406 87.5469 88.6927 87.5469 87.7969L87.6094 87.125C87.6094 86.8854 87.5 86.7656 87.2812 86.7656C86.9375 86.7656 86.5 87.2292 85.9688 88.1562C85.4375 89.0833 85.1719 90.5 85.1719 92.4062V97.2031H87.7656V98H79.6094V97.2031H82.1406ZM92.4062 91.8281C92.4062 90.026 93.026 88.4948 94.2656 87.2344C95.5052 85.9635 97.0417 85.3281 98.875 85.3281C100.667 85.3281 102.182 85.9375 103.422 87.1562C104.672 88.3646 105.297 89.8802 105.297 91.7031C105.297 93.5677 104.651 95.151 103.359 96.4531C102.068 97.7448 100.542 98.3906 98.7812 98.3906C97.0521 98.3906 95.5573 97.7604 94.2969 96.5C93.0365 95.2292 92.4062 93.6719 92.4062 91.8281ZM101.781 91.8281C101.781 89.9115 101.714 88.6458 101.578 88.0312C101.453 87.4167 101.161 86.9323 100.703 86.5781C100.255 86.2135 99.6354 86.0312 98.8438 86.0312C98.0938 86.0312 97.474 86.2188 96.9844 86.5938C96.5052 86.9583 96.2083 87.4479 96.0938 88.0625C95.9792 88.6771 95.9219 89.9427 95.9219 91.8594C95.9219 93.7865 95.9896 95.0625 96.125 95.6875C96.2708 96.3125 96.5781 96.8021 97.0469 97.1562C97.526 97.5104 98.125 97.6875 98.8438 97.6875C99.5729 97.6875 100.177 97.5104 100.656 97.1562C101.146 96.7917 101.453 96.2917 101.578 95.6562C101.714 95.0104 101.781 93.7344 101.781 91.8281ZM116.453 85.5781V89.0781H115.812C115.333 87.0469 114.167 86.0312 112.312 86.0312C111.51 86.0312 110.839 86.2448 110.297 86.6719C109.766 87.0885 109.5 87.5677 109.5 88.1094C109.5 88.5677 109.688 88.9323 110.062 89.2031C110.448 89.4635 111.349 89.6875 112.766 89.875C115.88 90.2604 117.438 91.6771 117.438 94.125C117.438 95.3438 117.031 96.3594 116.219 97.1719C115.417 97.9844 114.417 98.3906 113.219 98.3906C112.042 98.3906 110.901 97.9062 109.797 96.9375L108.703 97.875H108.156V93.2656H108.703C109.599 96.2135 111.104 97.6875 113.219 97.6875C114.021 97.6875 114.75 97.4323 115.406 96.9219C116.062 96.4115 116.391 95.8125 116.391 95.125C116.391 94.5521 116.193 94.1198 115.797 93.8281C115.411 93.5365 114.359 93.2656 112.641 93.0156C109.714 92.5885 108.25 91.2865 108.25 89.1094C108.25 88.0365 108.641 87.1406 109.422 86.4219C110.214 85.6927 111.177 85.3281 112.312 85.3281C113.51 85.3281 114.516 85.724 115.328 86.5156C115.536 86.2969 115.75 85.9844 115.969 85.5781H116.453Z" fill="white"/>
</svg>
