<svg width="417" height="266" viewBox="0 0 417 266" fill="none" xmlns="http://www.w3.org/2000/svg">
<path d="M347.72 27.21C347.72 27.21 348.72 24.27 353.55 22.9C358.38 21.53 369.33 20.32 369.33 20.32C369.33 20.32 386.15 22.73 388.89 38.85C391.63 54.97 382.72 61.33 382.72 61.33L371.72 64.88C371.72 64.88 366.05 65.28 361.94 62.88C357.83 60.48 347.72 27.21 347.72 27.21Z" fill="#666666"/>
<path d="M346.51 27.87C349.104 26.317 352.067 25.4882 355.09 25.47C360.09 25.47 371.56 28.73 373.79 43.32C376.02 57.91 370.19 64.59 361.96 62.88L346.51 27.87Z" fill="#545454"/>
<path d="M120.54 31.91C120.54 31.91 112.73 32.39 112.73 41.91C112.73 51.43 125.94 63.45 133.34 63.45C140.74 63.45 137.44 56.34 137.44 56.34L120.54 31.91Z" fill="#2B2B2B"/>
<path d="M201.06 56.15C197.44 45.98 187.06 39.73 176.84 38.08C174.48 37.69 173.47 41.3 175.84 41.69C184.62 43.12 194.28 48.29 197.43 57.14C198.24 59.4 201.86 58.43 201.05 56.14L201.06 56.15Z" fill="#3A3A3A"/>
<path d="M168.09 35.59L178.42 37.05C179.38 39.0014 179.545 41.2494 178.88 43.32L169.13 48.94L168.09 35.59Z" fill="#545454"/>
<path d="M157.8 32.14H164.8C164.8 32.14 168.58 33.62 170.08 41.34C171.58 49.06 166.43 51.72 166.43 51.72L157.8 32.14Z" fill="#3A3A3A"/>
<path d="M120.54 31.91L137.44 56.36L166.44 51.72C166.993 50.9984 167.354 50.1483 167.488 49.2493C167.623 48.3503 167.527 47.4319 167.21 46.58C166.09 43.66 156.21 29.93 156.21 29.93C156.21 29.93 154.92 26.67 148.06 27.53C141.2 28.39 120.54 31.91 120.54 31.91Z" fill="#545454"/>
<path d="M118.56 60.66L158.46 50.82L167.56 54.04L130.79 62.47L118.56 60.66Z" fill="#666666"/>
<path d="M331.07 188.99L323.65 182.8L320.99 191.97L331.07 188.99Z" fill="#2B2B2B"/>
<path d="M368.8 180C368.8 180 371.05 194.5 365.56 198.28C360.07 202.06 245.45 229.33 245.45 229.33C245.45 229.33 249.57 221.44 245.45 209.09L368.8 180Z" fill="#3A3A3A"/>
<path d="M245.45 229.31L205.45 211.64L245.45 209.07C247.595 212.779 248.774 216.967 248.88 221.25C248.88 227.94 245.45 229.31 245.45 229.31Z" fill="#2B2B2B"/>
<path d="M331.07 189L290.23 160.35L272.47 95.49C272.47 95.49 305.33 94.29 319.57 107.07C333.81 119.85 340.68 128.77 338.45 157.77C336.22 186.77 331.07 189 331.07 189Z" fill="#3A3A3A"/>
<path d="M245.45 209.07L227.17 217.66C227.17 217.66 240.22 181.08 230.1 159.53C223.694 146.034 216.178 133.093 207.63 120.84L217.14 121.73C217.14 121.73 242.74 129.11 248.88 166.34C253.9 196.73 245.45 209.07 245.45 209.07Z" fill="#3A3A3A"/>
<path d="M329.35 118.64C329.35 118.64 336.35 148.84 334.84 161.54C333.33 174.24 331.07 189 331.07 189L372.72 179C372.72 179 380.66 165.1 379.11 140.91C377.56 116.72 372.59 107.02 372.59 107.02L329.35 118.64Z" fill="#545454"/>
<path d="M272.47 95.48C272.47 95.48 318.54 103.97 329.35 118.64L372.59 107.06C372.59 107.06 368.59 99.22 351.49 92.13C327.01 81.98 322.66 83.13 316.23 84.41C309.8 85.69 272.47 95.48 272.47 95.48Z" fill="#666666"/>
<path d="M245.45 209.07C245.45 209.07 252.31 190.02 247.51 165.65C242.71 141.28 229.51 127.39 217.14 121.73L311.85 111.26C311.85 111.26 329.18 124.73 330.73 148.02C332.28 171.31 322.6 190.87 322.6 190.87L245.45 209.07Z" fill="#545454"/>
<path d="M280.66 116.41C280.66 116.41 323 103.86 327.3 97.28C334.64 85.95 323.35 74.37 321.3 72.28C319.25 70.19 310.15 64.05 302.6 65.08C295.05 66.11 279.08 72 279.08 72L259.27 59.38L321.27 43.38L322.58 55.9L330.87 68.77H337.23V78L347.91 90.59L356.51 94.5L280.66 116.41Z" fill="#545454"/>
<path d="M302.59 65.11C302.59 65.11 311.54 72.75 312.37 78.92C313.2 85.09 312.2 94.87 302.59 98.77C292.98 102.67 279.08 105.77 279.08 105.77L280.66 116.41C280.66 116.41 324.37 106.29 330.89 97.28C337.41 88.27 328.68 74.28 322.6 70.28C312 63.22 302.59 65.11 302.59 65.11Z" fill="#3A3A3A"/>
<path d="M243.4 53.92L309.45 37.65L321.29 43.31L259.27 59.35L243.4 53.92Z" fill="#666666"/>
<path d="M212.1 222L199.51 225.63C199.51 225.63 214.15 192.08 206.51 170C198.87 147.92 177.39 122.75 177.39 122.75L190.33 121.88C190.33 121.88 221.85 135 224.58 170C227.31 205 212.1 222 212.1 222Z" fill="#3A3A3A"/>
<path d="M267.07 68.71L267.93 128.42L280.65 125.36L279.08 66.14L267.07 68.71Z" fill="#3A3A3A"/>
<path d="M279.08 66.14L221.94 46.57L212.16 48.63L267.07 68.71L279.08 66.14Z" fill="#666666"/>
<path d="M212.16 48.63V107.06L267.93 128.42L267.07 68.71L212.16 48.63Z" fill="#545454"/>
<path d="M367.45 20.32C367.45 20.32 367.96 15.69 376.02 9.32001C384.08 2.95001 387.35 0.740005 387.35 0.740005C387.35 0.740005 407.6 9.48999 413.95 29.4C420.3 49.31 415.32 67.32 406.74 71.61C398.16 75.9 393.01 73.84 390.74 71.61C388.47 69.38 380.6 62 380.6 62L367.45 20.32Z" fill="#3A3A3A"/>
<path d="M309.45 37.65C315.41 34.8545 321.621 32.628 328 31C336.92 28.94 342.93 27.91 346.53 27.91C350.13 27.91 360.6 34.78 362.83 44.39C364.11 50.5399 363.817 56.9132 361.98 62.92L337.27 68.75H330.91L322.62 55.88L321.31 43.36L309.45 37.65Z" fill="#3A3A3A"/>
<path d="M160.74 126L149.68 128L135.89 130.57L161.37 233.21L183.37 230.26C183.37 230.26 199.68 207.51 195.46 169.82C191.62 135.8 160.74 126 160.74 126Z" fill="#3A3A3A"/>
<path d="M227.17 217.66L210.24 222.66C230.04 186.54 222.62 147.48 190.32 121.84L207.63 120.79C239.92 146.47 247 181.54 227.17 217.66Z" fill="#545454"/>
<path d="M196.75 126C196.635 125.998 196.524 125.958 196.435 125.885C196.347 125.813 196.285 125.712 196.26 125.6C196.247 125.536 196.246 125.469 196.259 125.405C196.271 125.34 196.297 125.279 196.333 125.224C196.369 125.169 196.416 125.122 196.47 125.086C196.525 125.049 196.586 125.023 196.65 125.01L207.89 122.74C208.02 122.716 208.154 122.743 208.264 122.816C208.374 122.889 208.451 123.001 208.48 123.13C208.493 123.194 208.494 123.261 208.481 123.325C208.469 123.39 208.443 123.451 208.407 123.506C208.371 123.561 208.324 123.608 208.27 123.644C208.215 123.681 208.154 123.707 208.09 123.72L196.85 126H196.75Z" fill="#3A3A3A"/>
<path d="M200.44 128.84C200.307 128.853 200.175 128.813 200.072 128.729C199.969 128.645 199.903 128.523 199.89 128.39C199.877 128.257 199.917 128.125 200.001 128.022C200.085 127.919 200.207 127.853 200.34 127.84L211.57 125.57C211.703 125.543 211.84 125.571 211.953 125.646C212.065 125.721 212.143 125.837 212.17 125.97C212.196 126.103 212.169 126.24 212.094 126.353C212.019 126.465 211.903 126.543 211.77 126.57L200.54 128.84H200.44Z" fill="#3A3A3A"/>
<path d="M203.88 131.88C203.765 131.878 203.654 131.838 203.566 131.765C203.477 131.693 203.415 131.592 203.39 131.48C203.375 131.416 203.374 131.349 203.386 131.284C203.398 131.219 203.423 131.157 203.459 131.102C203.496 131.047 203.543 131 203.598 130.963C203.653 130.927 203.715 130.902 203.78 130.89L215 128.62C215.064 128.607 215.131 128.606 215.195 128.619C215.26 128.631 215.321 128.657 215.376 128.693C215.431 128.729 215.478 128.776 215.514 128.83C215.551 128.884 215.577 128.946 215.59 129.01C215.614 129.141 215.585 129.276 215.51 129.386C215.435 129.497 215.321 129.573 215.19 129.6L204 131.87L203.88 131.88Z" fill="#3A3A3A"/>
<path d="M207.08 135.1C206.965 135.1 206.853 135.06 206.764 134.987C206.674 134.914 206.613 134.813 206.59 134.7C206.575 134.636 206.574 134.569 206.586 134.504C206.598 134.439 206.623 134.377 206.659 134.322C206.696 134.267 206.743 134.22 206.798 134.183C206.853 134.147 206.915 134.122 206.98 134.11L218.22 131.84C218.353 131.815 218.49 131.843 218.601 131.919C218.713 131.995 218.79 132.112 218.815 132.245C218.84 132.378 218.812 132.515 218.736 132.626C218.66 132.738 218.543 132.815 218.41 132.84L207.18 135.11L207.08 135.1Z" fill="#3A3A3A"/>
<path d="M210 138.49C209.88 138.481 209.767 138.431 209.681 138.347C209.595 138.263 209.541 138.152 209.529 138.032C209.517 137.913 209.548 137.793 209.616 137.693C209.684 137.594 209.784 137.522 209.9 137.49L221.14 135.23C221.206 135.217 221.273 135.217 221.339 135.23C221.405 135.243 221.467 135.269 221.523 135.306C221.579 135.343 221.626 135.391 221.664 135.446C221.701 135.502 221.727 135.564 221.74 135.63C221.753 135.696 221.753 135.763 221.74 135.829C221.727 135.895 221.701 135.957 221.664 136.013C221.627 136.069 221.579 136.116 221.524 136.154C221.468 136.191 221.406 136.217 221.34 136.23L210.1 138.5L210 138.49Z" fill="#3A3A3A"/>
<path d="M212.73 142C212.614 141.999 212.503 141.958 212.415 141.883C212.327 141.808 212.269 141.704 212.25 141.59C212.235 141.526 212.234 141.46 212.246 141.396C212.258 141.331 212.283 141.27 212.32 141.216C212.356 141.161 212.404 141.115 212.459 141.08C212.514 141.044 212.575 141.021 212.64 141.01L223.87 138.74C224.003 138.713 224.14 138.741 224.253 138.816C224.365 138.891 224.443 139.007 224.47 139.14C224.496 139.273 224.469 139.41 224.394 139.523C224.319 139.635 224.203 139.713 224.07 139.74L212.83 142H212.73Z" fill="#3A3A3A"/>
<path d="M215.19 145.71C215.075 145.708 214.964 145.668 214.875 145.595C214.787 145.523 214.725 145.422 214.7 145.31C214.685 145.246 214.684 145.179 214.696 145.114C214.708 145.049 214.733 144.987 214.769 144.932C214.806 144.877 214.853 144.83 214.908 144.793C214.963 144.757 215.025 144.732 215.09 144.72L226.33 142.45C226.463 142.425 226.6 142.453 226.711 142.529C226.823 142.605 226.9 142.722 226.925 142.855C226.95 142.988 226.922 143.125 226.846 143.236C226.77 143.348 226.653 143.425 226.52 143.45L215.29 145.72L215.19 145.71Z" fill="#3A3A3A"/>
<path d="M217.39 149.51C217.274 149.512 217.162 149.473 217.072 149.4C216.982 149.326 216.921 149.224 216.9 149.11C216.887 149.046 216.887 148.979 216.899 148.915C216.911 148.85 216.937 148.789 216.973 148.734C217.009 148.679 217.056 148.632 217.11 148.596C217.164 148.559 217.226 148.533 217.29 148.52L228.53 146.26C228.594 146.247 228.659 146.247 228.723 146.259C228.787 146.272 228.848 146.297 228.902 146.333C228.956 146.37 229.002 146.416 229.038 146.471C229.073 146.525 229.098 146.586 229.11 146.65C229.123 146.714 229.124 146.781 229.111 146.845C229.099 146.91 229.073 146.971 229.037 147.026C229.001 147.081 228.954 147.128 228.9 147.164C228.845 147.201 228.784 147.227 228.72 147.24L217.49 149.5L217.39 149.51Z" fill="#3A3A3A"/>
<path d="M219.33 153.44C219.215 153.438 219.104 153.398 219.016 153.325C218.927 153.253 218.865 153.152 218.84 153.04C218.827 152.976 218.827 152.909 218.839 152.845C218.851 152.78 218.877 152.719 218.913 152.664C218.949 152.609 218.996 152.562 219.05 152.526C219.104 152.489 219.166 152.463 219.23 152.45L230.47 150.18C230.534 150.167 230.601 150.167 230.665 150.179C230.73 150.192 230.791 150.217 230.846 150.253C230.901 150.289 230.948 150.336 230.984 150.39C231.021 150.445 231.047 150.506 231.06 150.57C231.084 150.7 231.057 150.834 230.984 150.944C230.911 151.054 230.799 151.131 230.67 151.16L219.43 153.43L219.33 153.44Z" fill="#3A3A3A"/>
<path d="M221 157.46C220.885 157.46 220.773 157.42 220.684 157.347C220.594 157.274 220.533 157.173 220.51 157.06C220.486 156.929 220.515 156.794 220.59 156.683C220.665 156.573 220.779 156.497 220.91 156.47L232.14 154.2C232.204 154.187 232.271 154.187 232.335 154.199C232.4 154.211 232.461 154.237 232.516 154.273C232.571 154.309 232.618 154.356 232.654 154.41C232.691 154.464 232.717 154.526 232.73 154.59C232.745 154.654 232.746 154.721 232.734 154.786C232.722 154.851 232.697 154.913 232.661 154.968C232.624 155.023 232.577 155.07 232.522 155.107C232.467 155.143 232.405 155.168 232.34 155.18L221.1 157.45L221 157.46Z" fill="#3A3A3A"/>
<path d="M222.44 161.57C222.324 161.572 222.212 161.533 222.122 161.46C222.032 161.386 221.971 161.284 221.95 161.17C221.937 161.106 221.936 161.039 221.949 160.975C221.961 160.91 221.987 160.849 222.023 160.794C222.059 160.739 222.106 160.692 222.16 160.656C222.215 160.619 222.276 160.593 222.34 160.58L233.57 158.31C233.635 158.297 233.702 158.297 233.767 158.31C233.832 158.323 233.894 158.349 233.949 158.386C234.004 158.424 234.051 158.471 234.087 158.527C234.123 158.583 234.148 158.645 234.16 158.71C234.174 158.774 234.176 158.84 234.164 158.904C234.152 158.969 234.127 159.03 234.09 159.084C234.054 159.139 234.006 159.185 233.951 159.22C233.896 159.256 233.835 159.279 233.77 159.29L222.54 161.56L222.44 161.57Z" fill="#3A3A3A"/>
<path d="M223.59 165.76C223.475 165.76 223.363 165.72 223.274 165.647C223.184 165.574 223.123 165.473 223.1 165.36C223.076 165.229 223.105 165.094 223.18 164.984C223.255 164.873 223.369 164.797 223.5 164.77L234.73 162.5C234.794 162.487 234.861 162.486 234.925 162.499C234.99 162.511 235.051 162.537 235.106 162.573C235.161 162.609 235.208 162.656 235.244 162.71C235.281 162.765 235.307 162.826 235.32 162.89C235.335 162.954 235.336 163.021 235.324 163.086C235.312 163.151 235.287 163.213 235.251 163.268C235.214 163.323 235.167 163.37 235.112 163.407C235.057 163.443 234.995 163.468 234.93 163.48L223.69 165.75L223.59 165.76Z" fill="#3A3A3A"/>
<path d="M224.48 170C224.365 170.002 224.254 169.962 224.166 169.889C224.078 169.815 224.019 169.713 224 169.6C223.985 169.536 223.984 169.469 223.996 169.404C224.008 169.339 224.033 169.277 224.069 169.222C224.106 169.167 224.153 169.12 224.208 169.083C224.263 169.047 224.325 169.022 224.39 169.01L235.62 166.74C235.684 166.727 235.751 166.727 235.815 166.739C235.88 166.752 235.941 166.777 235.996 166.813C236.051 166.849 236.098 166.896 236.134 166.95C236.171 167.005 236.197 167.066 236.21 167.13C236.225 167.194 236.226 167.261 236.214 167.326C236.202 167.391 236.177 167.453 236.141 167.508C236.104 167.563 236.057 167.61 236.002 167.647C235.947 167.683 235.885 167.708 235.82 167.72L224.58 170H224.48Z" fill="#3A3A3A"/>
<path d="M225.11 174.31C224.977 174.323 224.845 174.283 224.742 174.199C224.639 174.115 224.573 173.993 224.56 173.86C224.547 173.727 224.587 173.595 224.671 173.492C224.755 173.389 224.877 173.323 225.01 173.31L236.24 171.04C236.304 171.027 236.371 171.027 236.435 171.039C236.5 171.051 236.561 171.077 236.616 171.113C236.671 171.149 236.718 171.196 236.754 171.25C236.791 171.305 236.817 171.366 236.83 171.43C236.845 171.494 236.846 171.561 236.834 171.626C236.822 171.691 236.797 171.753 236.761 171.808C236.724 171.863 236.677 171.91 236.622 171.947C236.567 171.983 236.505 172.008 236.44 172.02L225.21 174.29L225.11 174.31Z" fill="#3A3A3A"/>
<path d="M225.11 178.64C224.994 178.642 224.881 178.603 224.792 178.53C224.702 178.456 224.641 178.354 224.62 178.24C224.607 178.176 224.607 178.109 224.619 178.045C224.631 177.98 224.657 177.919 224.693 177.864C224.729 177.809 224.776 177.762 224.83 177.726C224.884 177.689 224.946 177.663 225.01 177.65L236.24 175.39C236.306 175.377 236.373 175.377 236.439 175.39C236.505 175.403 236.567 175.429 236.623 175.466C236.679 175.503 236.726 175.551 236.764 175.606C236.801 175.662 236.827 175.724 236.84 175.79C236.853 175.856 236.853 175.923 236.84 175.989C236.827 176.055 236.801 176.117 236.764 176.173C236.727 176.229 236.679 176.276 236.624 176.314C236.568 176.351 236.506 176.377 236.44 176.39L225.21 178.65L225.11 178.64Z" fill="#3A3A3A"/>
<path d="M224.84 183C224.725 183 224.613 182.96 224.524 182.887C224.434 182.814 224.373 182.713 224.35 182.6C224.326 182.47 224.353 182.336 224.426 182.226C224.499 182.116 224.611 182.039 224.74 182.01L236 179.74C236.131 179.716 236.266 179.745 236.376 179.82C236.487 179.895 236.563 180.009 236.59 180.14C236.603 180.204 236.603 180.269 236.591 180.333C236.578 180.397 236.553 180.458 236.517 180.512C236.48 180.566 236.434 180.612 236.379 180.648C236.325 180.683 236.264 180.708 236.2 180.72L224.94 183H224.84Z" fill="#3A3A3A"/>
<path d="M225.11 187.37C224.994 187.372 224.882 187.333 224.792 187.26C224.702 187.186 224.641 187.084 224.62 186.97C224.605 186.906 224.604 186.839 224.616 186.774C224.628 186.709 224.653 186.647 224.689 186.592C224.726 186.537 224.773 186.49 224.828 186.453C224.883 186.417 224.945 186.392 225.01 186.38L236.24 184.11C236.304 184.097 236.371 184.097 236.435 184.109C236.5 184.122 236.561 184.147 236.616 184.183C236.671 184.219 236.718 184.266 236.754 184.32C236.791 184.375 236.817 184.436 236.83 184.5C236.845 184.564 236.846 184.631 236.834 184.696C236.822 184.761 236.797 184.823 236.761 184.878C236.724 184.933 236.677 184.98 236.622 185.017C236.567 185.053 236.505 185.078 236.44 185.09L225.21 187.36L225.11 187.37Z" fill="#3A3A3A"/>
<path d="M224.48 191.74C224.364 191.739 224.253 191.698 224.165 191.623C224.077 191.548 224.019 191.444 224 191.33C223.985 191.266 223.984 191.2 223.996 191.136C224.008 191.071 224.033 191.01 224.07 190.956C224.106 190.901 224.154 190.855 224.209 190.82C224.264 190.784 224.325 190.761 224.39 190.75L235.62 188.48C235.753 188.453 235.89 188.481 236.003 188.556C236.115 188.631 236.193 188.747 236.22 188.88C236.246 189.013 236.219 189.15 236.144 189.263C236.069 189.375 235.953 189.453 235.82 189.48L224.58 191.75L224.48 191.74Z" fill="#3A3A3A"/>
<path d="M223.59 196.09C223.474 196.088 223.362 196.046 223.273 195.971C223.184 195.897 223.123 195.794 223.1 195.68C223.077 195.55 223.106 195.416 223.18 195.308C223.255 195.199 223.37 195.124 223.5 195.1L234.73 192.83C234.863 192.803 235 192.831 235.113 192.906C235.225 192.981 235.303 193.097 235.33 193.23C235.357 193.363 235.329 193.5 235.254 193.613C235.179 193.725 235.063 193.803 234.93 193.83L223.69 196.1L223.59 196.09Z" fill="#3A3A3A"/>
<path d="M222.44 200.41C222.307 200.423 222.175 200.383 222.072 200.299C221.969 200.215 221.903 200.093 221.89 199.96C221.877 199.827 221.917 199.695 222.001 199.592C222.085 199.489 222.207 199.423 222.34 199.41L233.57 197.14C233.703 197.113 233.84 197.141 233.953 197.216C234.065 197.291 234.143 197.407 234.17 197.54C234.196 197.673 234.169 197.81 234.094 197.923C234.019 198.035 233.903 198.113 233.77 198.14L222.54 200.41H222.44Z" fill="#3A3A3A"/>
<path d="M221.56 204.69C221.443 204.69 221.33 204.648 221.241 204.573C221.151 204.499 221.091 204.395 221.07 204.28C221.055 204.216 221.054 204.15 221.066 204.086C221.078 204.021 221.103 203.96 221.14 203.906C221.176 203.851 221.224 203.805 221.279 203.77C221.334 203.734 221.395 203.711 221.46 203.7L232.7 201.43C232.764 201.417 232.829 201.417 232.893 201.429C232.957 201.442 233.018 201.467 233.072 201.503C233.126 201.54 233.172 201.586 233.208 201.641C233.243 201.695 233.268 201.756 233.28 201.82C233.293 201.884 233.293 201.951 233.281 202.015C233.269 202.08 233.243 202.141 233.207 202.196C233.171 202.251 233.124 202.298 233.07 202.334C233.016 202.371 232.954 202.397 232.89 202.41L221.66 204.68L221.56 204.69Z" fill="#3A3A3A"/>
<path d="M219.66 208.91C219.527 208.923 219.395 208.883 219.292 208.799C219.189 208.715 219.123 208.593 219.11 208.46C219.097 208.327 219.137 208.195 219.221 208.092C219.305 207.989 219.427 207.923 219.56 207.91L230.8 205.64C230.93 205.616 231.064 205.643 231.174 205.716C231.284 205.789 231.361 205.901 231.39 206.03C231.403 206.094 231.403 206.161 231.391 206.225C231.378 206.29 231.353 206.351 231.317 206.406C231.281 206.461 231.234 206.508 231.18 206.544C231.125 206.581 231.064 206.607 231 206.62L219.76 208.89L219.66 208.91Z" fill="#3A3A3A"/>
<path d="M217.64 213.07C217.524 213.068 217.412 213.026 217.323 212.951C217.234 212.877 217.173 212.774 217.15 212.66C217.136 212.596 217.134 212.53 217.146 212.466C217.158 212.401 217.183 212.34 217.22 212.286C217.256 212.231 217.303 212.185 217.359 212.15C217.414 212.114 217.475 212.091 217.54 212.08L228.78 209.81C228.844 209.797 228.911 209.796 228.975 209.809C229.04 209.821 229.101 209.847 229.156 209.883C229.211 209.919 229.258 209.966 229.294 210.02C229.331 210.075 229.357 210.136 229.37 210.2C229.394 210.331 229.365 210.466 229.29 210.576C229.215 210.687 229.1 210.763 228.97 210.79L217.74 213.06L217.64 213.07Z" fill="#3A3A3A"/>
<path d="M215.91 217.14C215.795 217.14 215.683 217.1 215.594 217.027C215.504 216.954 215.443 216.853 215.42 216.74C215.396 216.61 215.423 216.476 215.496 216.366C215.569 216.256 215.681 216.179 215.81 216.15L227.05 213.88C227.181 213.856 227.316 213.885 227.427 213.96C227.537 214.035 227.613 214.149 227.64 214.28C227.653 214.344 227.653 214.409 227.641 214.473C227.628 214.537 227.603 214.598 227.567 214.652C227.53 214.706 227.484 214.752 227.429 214.788C227.375 214.823 227.314 214.848 227.25 214.86L216 217.13L215.91 217.14Z" fill="#3A3A3A"/>
<path d="M200 225.5L180.82 231C200.63 194.88 203.3 155.84 160.74 126L177.38 122.77C216.82 150.2 219.78 189.38 200 225.5Z" fill="#545454"/>
<path d="M169.08 130.48C168.965 130.48 168.853 130.44 168.764 130.367C168.674 130.294 168.613 130.193 168.59 130.08C168.566 129.95 168.593 129.816 168.666 129.706C168.739 129.596 168.851 129.519 168.98 129.49L180.22 127.23C180.284 127.217 180.351 127.217 180.415 127.229C180.48 127.241 180.541 127.267 180.596 127.303C180.651 127.339 180.698 127.386 180.734 127.44C180.771 127.494 180.797 127.556 180.81 127.62C180.834 127.75 180.807 127.884 180.734 127.994C180.661 128.104 180.549 128.181 180.42 128.21L169.18 130.47L169.08 130.48Z" fill="#3A3A3A"/>
<path d="M172.77 133.33C172.654 133.332 172.541 133.293 172.452 133.22C172.362 133.146 172.301 133.044 172.28 132.93C172.267 132.866 172.267 132.799 172.279 132.735C172.291 132.67 172.317 132.609 172.353 132.554C172.389 132.499 172.436 132.452 172.49 132.416C172.544 132.379 172.606 132.353 172.67 132.34L183.9 130.07C184.031 130.046 184.167 130.075 184.277 130.15C184.388 130.226 184.464 130.341 184.49 130.472C184.516 130.603 184.49 130.739 184.417 130.851C184.344 130.963 184.23 131.041 184.1 131.07L172.87 133.33H172.77Z" fill="#3A3A3A"/>
<path d="M176.21 136.37C176.077 136.383 175.945 136.343 175.842 136.259C175.739 136.175 175.673 136.053 175.66 135.92C175.647 135.787 175.687 135.655 175.771 135.552C175.856 135.449 175.977 135.383 176.11 135.37L187.35 133.11C187.414 133.097 187.481 133.097 187.545 133.109C187.61 133.122 187.671 133.147 187.726 133.183C187.781 133.219 187.828 133.266 187.864 133.32C187.901 133.375 187.927 133.436 187.94 133.5C187.964 133.631 187.935 133.766 187.86 133.877C187.785 133.987 187.67 134.063 187.54 134.09L176.31 136.35L176.21 136.37Z" fill="#3A3A3A"/>
<path d="M179.41 139.6C179.293 139.6 179.18 139.558 179.091 139.483C179.001 139.409 178.941 139.305 178.92 139.19C178.905 139.126 178.904 139.06 178.916 138.996C178.928 138.931 178.953 138.87 178.99 138.816C179.026 138.761 179.074 138.715 179.129 138.68C179.184 138.644 179.245 138.621 179.31 138.61L190.55 136.34C190.614 136.327 190.679 136.327 190.743 136.339C190.807 136.352 190.868 136.377 190.922 136.413C190.976 136.45 191.022 136.496 191.058 136.551C191.094 136.605 191.118 136.666 191.13 136.73C191.143 136.794 191.143 136.861 191.131 136.925C191.119 136.99 191.093 137.051 191.057 137.106C191.021 137.161 190.974 137.208 190.92 137.244C190.866 137.281 190.804 137.307 190.74 137.32L179.51 139.59L179.41 139.6Z" fill="#3A3A3A"/>
<path d="M182.36 143C182.245 143 182.133 142.96 182.044 142.887C181.954 142.814 181.893 142.713 181.87 142.6C181.846 142.47 181.873 142.336 181.946 142.226C182.019 142.116 182.131 142.039 182.26 142.01L193.5 139.74C193.631 139.716 193.766 139.745 193.876 139.82C193.987 139.895 194.063 140.009 194.09 140.14C194.103 140.204 194.103 140.269 194.091 140.333C194.078 140.397 194.053 140.458 194.017 140.512C193.98 140.566 193.934 140.612 193.879 140.648C193.825 140.683 193.764 140.708 193.7 140.72L182.46 143H182.36Z" fill="#3A3A3A"/>
<path d="M185.06 146.52C184.945 146.522 184.834 146.482 184.746 146.409C184.658 146.335 184.599 146.233 184.58 146.12C184.567 146.056 184.566 145.989 184.579 145.925C184.591 145.86 184.617 145.799 184.653 145.744C184.689 145.689 184.736 145.642 184.79 145.606C184.845 145.569 184.906 145.543 184.97 145.53L196.2 143.26C196.265 143.247 196.332 143.247 196.397 143.26C196.462 143.273 196.524 143.299 196.579 143.336C196.634 143.374 196.681 143.421 196.717 143.477C196.753 143.533 196.778 143.595 196.79 143.66C196.804 143.724 196.806 143.79 196.794 143.854C196.782 143.919 196.757 143.98 196.72 144.034C196.684 144.089 196.637 144.135 196.581 144.17C196.526 144.206 196.465 144.229 196.4 144.24L185.16 146.51L185.06 146.52Z" fill="#3A3A3A"/>
<path d="M187.52 150.2C187.387 150.213 187.255 150.173 187.152 150.089C187.049 150.005 186.983 149.883 186.97 149.75C186.957 149.617 186.997 149.485 187.081 149.382C187.165 149.279 187.287 149.213 187.42 149.2L198.66 146.93C198.791 146.909 198.925 146.939 199.034 147.013C199.144 147.087 199.221 147.201 199.25 147.33C199.274 147.461 199.245 147.596 199.17 147.706C199.095 147.817 198.98 147.893 198.85 147.92L187.62 150.18L187.52 150.2Z" fill="#3A3A3A"/>
<path d="M189.72 154C189.604 154.002 189.491 153.963 189.402 153.89C189.312 153.816 189.251 153.714 189.23 153.6C189.217 153.536 189.216 153.469 189.229 153.405C189.241 153.34 189.267 153.279 189.303 153.224C189.339 153.169 189.386 153.122 189.44 153.086C189.494 153.049 189.556 153.023 189.62 153.01L200.86 150.74C200.99 150.717 201.124 150.746 201.232 150.82C201.341 150.895 201.416 151.01 201.44 151.14C201.454 151.204 201.456 151.27 201.444 151.334C201.432 151.399 201.407 151.46 201.37 151.514C201.334 151.569 201.286 151.615 201.231 151.65C201.176 151.686 201.115 151.709 201.05 151.72L189.82 154H189.72Z" fill="#3A3A3A"/>
<path d="M191.66 157.93C191.545 157.93 191.433 157.89 191.344 157.817C191.254 157.744 191.193 157.643 191.17 157.53C191.146 157.4 191.173 157.266 191.246 157.156C191.319 157.046 191.431 156.969 191.56 156.94L202.8 154.68C202.864 154.667 202.931 154.667 202.995 154.679C203.06 154.692 203.121 154.717 203.176 154.753C203.231 154.789 203.278 154.836 203.314 154.89C203.351 154.945 203.377 155.006 203.39 155.07C203.414 155.2 203.387 155.334 203.314 155.444C203.241 155.554 203.129 155.631 203 155.66L191.76 157.92L191.66 157.93Z" fill="#3A3A3A"/>
<path d="M193.34 162C193.274 162.006 193.208 161.999 193.145 161.979C193.082 161.959 193.024 161.928 192.973 161.885C192.923 161.843 192.881 161.791 192.85 161.733C192.82 161.674 192.801 161.611 192.795 161.545C192.789 161.479 192.796 161.413 192.816 161.35C192.836 161.287 192.867 161.229 192.91 161.178C192.952 161.128 193.004 161.086 193.062 161.055C193.12 161.025 193.184 161.006 193.25 161L204.48 158.73C204.546 158.717 204.613 158.717 204.679 158.73C204.745 158.743 204.807 158.769 204.863 158.806C204.919 158.843 204.966 158.891 205.004 158.946C205.041 159.002 205.067 159.064 205.08 159.13C205.093 159.196 205.093 159.263 205.08 159.329C205.067 159.395 205.041 159.457 205.004 159.513C204.967 159.569 204.919 159.616 204.864 159.654C204.808 159.691 204.746 159.717 204.68 159.73L193.44 162H193.34Z" fill="#3A3A3A"/>
<path d="M194.77 166.07C194.654 166.072 194.541 166.033 194.452 165.96C194.362 165.886 194.301 165.784 194.28 165.67C194.265 165.606 194.264 165.539 194.276 165.474C194.288 165.409 194.313 165.347 194.349 165.292C194.386 165.237 194.433 165.19 194.488 165.153C194.543 165.117 194.605 165.092 194.67 165.08L205.9 162.81C205.964 162.797 206.031 162.796 206.095 162.809C206.16 162.821 206.221 162.847 206.276 162.883C206.331 162.919 206.378 162.966 206.414 163.02C206.451 163.075 206.477 163.136 206.49 163.2C206.505 163.264 206.506 163.331 206.494 163.396C206.482 163.461 206.457 163.523 206.421 163.578C206.384 163.633 206.337 163.68 206.282 163.717C206.227 163.753 206.165 163.778 206.1 163.79L194.87 166.06L194.77 166.07Z" fill="#3A3A3A"/>
<path d="M195.92 170.26C195.805 170.258 195.694 170.218 195.605 170.145C195.517 170.073 195.455 169.972 195.43 169.86C195.417 169.795 195.417 169.728 195.43 169.663C195.443 169.598 195.469 169.536 195.506 169.481C195.544 169.426 195.591 169.379 195.647 169.343C195.703 169.307 195.765 169.282 195.83 169.27L207.06 167C207.193 166.973 207.33 167.001 207.443 167.076C207.555 167.151 207.633 167.267 207.66 167.4C207.686 167.533 207.659 167.67 207.584 167.783C207.509 167.895 207.393 167.973 207.26 168L196 170.25L195.92 170.26Z" fill="#3A3A3A"/>
<path d="M196.81 174.51C196.744 174.516 196.678 174.509 196.615 174.489C196.552 174.47 196.494 174.438 196.443 174.395C196.393 174.353 196.351 174.301 196.32 174.243C196.29 174.185 196.271 174.121 196.265 174.055C196.259 173.989 196.266 173.923 196.286 173.86C196.306 173.797 196.337 173.739 196.38 173.688C196.422 173.638 196.474 173.596 196.532 173.565C196.591 173.535 196.654 173.516 196.72 173.51L208 171.25C208.133 171.223 208.27 171.251 208.383 171.326C208.495 171.401 208.573 171.517 208.6 171.65C208.627 171.783 208.599 171.92 208.524 172.033C208.449 172.145 208.333 172.223 208.2 172.25L196.96 174.52L196.81 174.51Z" fill="#3A3A3A"/>
<path d="M197.44 178.81C197.323 178.812 197.209 178.771 197.119 178.696C197.029 178.621 196.969 178.516 196.95 178.4C196.935 178.336 196.934 178.27 196.946 178.206C196.958 178.141 196.983 178.08 197.02 178.026C197.056 177.971 197.103 177.925 197.159 177.89C197.214 177.854 197.275 177.831 197.34 177.82L208.57 175.55C208.703 175.523 208.84 175.551 208.953 175.626C209.065 175.701 209.143 175.817 209.17 175.95C209.196 176.083 209.169 176.22 209.094 176.333C209.019 176.445 208.903 176.523 208.77 176.55L197.54 178.82L197.44 178.81Z" fill="#3A3A3A"/>
<path d="M197.44 183.14C197.324 183.142 197.212 183.103 197.122 183.03C197.032 182.956 196.971 182.854 196.95 182.74C196.935 182.676 196.934 182.609 196.946 182.544C196.958 182.479 196.983 182.417 197.019 182.362C197.056 182.307 197.103 182.26 197.158 182.223C197.213 182.187 197.275 182.162 197.34 182.15L208.57 179.88C208.634 179.867 208.701 179.867 208.765 179.879C208.83 179.891 208.891 179.917 208.946 179.953C209.001 179.989 209.048 180.036 209.084 180.09C209.121 180.145 209.147 180.206 209.16 180.27C209.175 180.334 209.176 180.401 209.164 180.466C209.152 180.531 209.127 180.593 209.091 180.648C209.054 180.703 209.007 180.75 208.952 180.787C208.897 180.823 208.835 180.848 208.77 180.86L197.54 183.13L197.44 183.14Z" fill="#3A3A3A"/>
<path d="M197.17 187.5C197.055 187.498 196.944 187.458 196.855 187.385C196.767 187.313 196.705 187.212 196.68 187.1C196.667 187.036 196.667 186.969 196.679 186.905C196.691 186.84 196.717 186.779 196.753 186.724C196.789 186.669 196.836 186.622 196.89 186.586C196.944 186.549 197.006 186.523 197.07 186.51L208.31 184.24C208.44 184.216 208.574 184.243 208.684 184.316C208.794 184.389 208.871 184.501 208.9 184.63C208.913 184.694 208.913 184.761 208.901 184.825C208.888 184.89 208.863 184.951 208.827 185.006C208.791 185.061 208.744 185.108 208.69 185.144C208.635 185.181 208.574 185.207 208.51 185.22L197.27 187.49L197.17 187.5Z" fill="#3A3A3A"/>
<path d="M197.44 191.87C197.307 191.883 197.175 191.843 197.072 191.759C196.969 191.675 196.903 191.553 196.89 191.42C196.877 191.287 196.917 191.155 197.001 191.052C197.085 190.949 197.207 190.883 197.34 190.87L208.57 188.6C208.703 188.573 208.84 188.601 208.953 188.676C209.065 188.751 209.143 188.867 209.17 189C209.196 189.133 209.169 189.27 209.094 189.383C209.019 189.495 208.903 189.573 208.77 189.6L197.54 191.87H197.44Z" fill="#3A3A3A"/>
<path d="M196.81 196.23C196.695 196.232 196.584 196.192 196.496 196.119C196.408 196.045 196.349 195.943 196.33 195.83C196.317 195.766 196.316 195.699 196.329 195.635C196.341 195.57 196.367 195.509 196.403 195.454C196.439 195.399 196.486 195.352 196.54 195.316C196.595 195.279 196.656 195.253 196.72 195.24L208 193C208.065 192.987 208.132 192.987 208.197 193C208.262 193.013 208.324 193.039 208.379 193.076C208.434 193.114 208.481 193.161 208.517 193.217C208.553 193.273 208.578 193.335 208.59 193.4C208.605 193.464 208.606 193.53 208.594 193.594C208.582 193.659 208.557 193.72 208.52 193.774C208.484 193.829 208.436 193.875 208.381 193.91C208.326 193.946 208.265 193.969 208.2 193.98L196.96 196.25L196.81 196.23Z" fill="#3A3A3A"/>
<path d="M195.92 200.58C195.805 200.58 195.693 200.54 195.604 200.467C195.514 200.394 195.453 200.293 195.43 200.18C195.406 200.049 195.435 199.914 195.51 199.804C195.585 199.693 195.699 199.617 195.83 199.59L207.06 197.32C207.125 197.307 207.192 197.307 207.257 197.32C207.322 197.333 207.384 197.359 207.439 197.396C207.494 197.434 207.541 197.481 207.577 197.537C207.613 197.593 207.638 197.655 207.65 197.72C207.665 197.784 207.666 197.85 207.654 197.914C207.642 197.979 207.617 198.04 207.58 198.094C207.544 198.149 207.496 198.195 207.441 198.23C207.386 198.266 207.325 198.289 207.26 198.3L196 200.57L195.92 200.58Z" fill="#3A3A3A"/>
<path d="M194.77 204.9C194.654 204.902 194.541 204.863 194.452 204.79C194.362 204.716 194.301 204.614 194.28 204.5C194.267 204.436 194.267 204.369 194.279 204.305C194.291 204.24 194.317 204.179 194.353 204.124C194.389 204.069 194.436 204.022 194.49 203.986C194.544 203.949 194.606 203.923 194.67 203.91L205.9 201.65C205.966 201.637 206.033 201.637 206.099 201.65C206.165 201.663 206.227 201.689 206.283 201.726C206.339 201.763 206.386 201.811 206.424 201.866C206.461 201.922 206.487 201.984 206.5 202.05C206.513 202.116 206.513 202.183 206.5 202.249C206.487 202.315 206.461 202.377 206.424 202.433C206.387 202.489 206.339 202.536 206.284 202.574C206.228 202.611 206.166 202.637 206.1 202.65L194.87 204.91L194.77 204.9Z" fill="#3A3A3A"/>
<path d="M193.89 209.18C193.774 209.182 193.662 209.143 193.572 209.07C193.482 208.996 193.421 208.894 193.4 208.78C193.387 208.716 193.387 208.649 193.399 208.585C193.411 208.52 193.437 208.459 193.473 208.404C193.509 208.349 193.556 208.302 193.61 208.266C193.664 208.229 193.726 208.203 193.79 208.19L205 205.92C205.13 205.897 205.264 205.926 205.372 206C205.481 206.075 205.556 206.19 205.58 206.32C205.595 206.384 205.596 206.45 205.584 206.514C205.572 206.579 205.547 206.64 205.51 206.694C205.474 206.749 205.426 206.795 205.371 206.83C205.316 206.866 205.255 206.889 205.19 206.9L194 209.17L193.89 209.18Z" fill="#3A3A3A"/>
<path d="M192 213.41C191.885 213.408 191.774 213.368 191.685 213.295C191.597 213.223 191.535 213.122 191.51 213.01C191.497 212.946 191.496 212.879 191.509 212.815C191.521 212.75 191.547 212.689 191.583 212.634C191.619 212.579 191.666 212.532 191.72 212.496C191.775 212.459 191.836 212.433 191.9 212.42L203.14 210.15C203.206 210.137 203.273 210.137 203.339 210.15C203.405 210.163 203.467 210.189 203.523 210.226C203.579 210.263 203.626 210.311 203.664 210.366C203.701 210.422 203.727 210.484 203.74 210.55C203.753 210.616 203.753 210.683 203.74 210.749C203.727 210.815 203.701 210.877 203.664 210.933C203.627 210.989 203.579 211.036 203.524 211.074C203.468 211.111 203.406 211.137 203.34 211.15L192.1 213.42L192 213.41Z" fill="#3A3A3A"/>
<path d="M190 217.56C189.867 217.573 189.735 217.533 189.632 217.449C189.529 217.365 189.463 217.243 189.45 217.11C189.437 216.977 189.477 216.845 189.561 216.742C189.645 216.639 189.767 216.573 189.9 216.56L201.14 214.3C201.204 214.287 201.271 214.287 201.335 214.299C201.4 214.312 201.461 214.337 201.516 214.373C201.571 214.409 201.618 214.456 201.654 214.51C201.691 214.565 201.717 214.626 201.73 214.69C201.754 214.821 201.725 214.956 201.65 215.067C201.575 215.177 201.461 215.253 201.33 215.28L190.1 217.54L190 217.56Z" fill="#3A3A3A"/>
<path d="M188.24 221.64C188.174 221.647 188.108 221.64 188.045 221.621C187.982 221.602 187.923 221.571 187.872 221.529C187.821 221.487 187.778 221.436 187.747 221.378C187.716 221.319 187.697 221.256 187.69 221.19C187.683 221.124 187.69 221.058 187.709 220.995C187.728 220.932 187.759 220.873 187.801 220.822C187.843 220.771 187.894 220.728 187.952 220.697C188.011 220.666 188.074 220.647 188.14 220.64L199.38 218.37C199.51 218.346 199.644 218.373 199.754 218.446C199.864 218.519 199.941 218.631 199.97 218.76C199.983 218.824 199.983 218.891 199.971 218.955C199.959 219.02 199.933 219.081 199.897 219.136C199.861 219.191 199.814 219.238 199.76 219.274C199.706 219.311 199.644 219.337 199.58 219.35L188.34 221.62L188.24 221.64Z" fill="#3A3A3A"/>
<path d="M185.87 226C185.804 226.006 185.738 225.999 185.675 225.979C185.612 225.959 185.554 225.928 185.503 225.885C185.453 225.843 185.411 225.791 185.38 225.733C185.35 225.674 185.331 225.611 185.325 225.545C185.319 225.479 185.326 225.413 185.346 225.35C185.366 225.287 185.397 225.229 185.44 225.178C185.482 225.128 185.534 225.086 185.592 225.055C185.651 225.025 185.714 225.006 185.78 225L197 222.72C197.064 222.707 197.131 222.706 197.195 222.719C197.26 222.731 197.321 222.757 197.376 222.793C197.431 222.829 197.478 222.876 197.514 222.93C197.551 222.985 197.577 223.046 197.59 223.11C197.605 223.174 197.606 223.241 197.594 223.306C197.582 223.371 197.557 223.433 197.521 223.488C197.484 223.543 197.437 223.59 197.382 223.627C197.327 223.663 197.265 223.688 197.2 223.7L186 226H185.87Z" fill="#3A3A3A"/>
<path d="M134.09 265.17L73.01 232.23L65.46 213.7L63.57 136.14L70.78 125.68L134.78 151.76L141.81 168.74L144.56 253.33L138.04 265.17H134.09Z" fill="#757575"/>
<path d="M138.04 261.57L142.67 251.79L139.24 167.2L132.72 153.64L75.41 129.11L71.46 128.42L65.46 136.66L67.69 212.67L74.04 230.69L135.81 263.97L138.04 261.57Z" fill="#3A3A3A"/>
<path d="M112.73 200.92L111.35 154.92L130.52 163.32L124.13 205.91L112.73 200.92Z" fill="#2B2B2B"/>
<path d="M112.73 155.53V200.92L74.64 214.64L74.04 138.2L112.73 155.53Z" fill="#3A3A3A"/>
<path d="M74.64 214.64L142.67 251.79L141.11 213.36L112.73 200.92L74.64 214.64Z" fill="#545454"/>
<path d="M74.04 138.2L139.24 167.2L132.72 153.64L75.41 129.11L69.75 136.31L71.63 214.64L77.81 228.24L138.04 261.57L142.67 251.79L74.64 214.64L74.04 138.2Z" fill="#666666"/>
<path d="M138.04 265.17L154.17 258.14L159.49 250.76L158.11 169.6L150.22 149.53L90.85 124.48L70.78 125.68L134.78 151.76L141.81 168.74L144.56 253.33L138.04 265.17Z" fill="#3A3A3A"/>
<path d="M155.39 256.44L175.79 249.39L180.93 241.32V173.89L179.05 162.91L170.98 146.78L158.28 138.2L112.73 122.76L90.85 124.48L150.22 149.53L158.11 169.6L159.49 250.76L155.39 256.44Z" fill="#545454"/>
<path d="M117.46 157.51C117.46 157.51 114.36 165.83 115.13 179.21C115.806 187.957 117.869 196.541 121.24 204.64L141.11 213.36L140.94 209.07C140.94 209.07 128.66 190.15 130.52 163.32L117.46 157.51Z" fill="#3A3A3A"/>
<path d="M130.52 163.32L139.24 167.2L140.94 209.07C140.94 209.07 128.83 191.35 130.52 163.32Z" fill="#2B2B2B"/>
<path d="M17.93 88.17C40.2709 87.276 62.5342 84.9882 84.59 81.32C119.08 75.4 126.54 71.32 126.54 71.32C126.54 71.32 132.93 57.46 128.06 46.62C121.11 31.13 108.22 33.28 108.22 33.28L11.83 50.81L17.93 88.17Z" fill="#545454"/>
<path d="M17.9476 88.1472C24.0034 87.1588 27.5458 77.9841 25.8599 67.655C24.174 57.3259 17.8982 49.7537 11.8424 50.7421C5.78667 51.7305 2.2442 60.9052 3.9301 71.2343C5.61601 81.5634 11.8919 89.1356 17.9476 88.1472Z" fill="#3A3A3A"/>
<path d="M154.85 65.32L189.08 76.56L212.16 70.9L179.17 60.22L154.85 65.32Z" fill="#666666"/>
<path d="M178.42 96.73C178.42 96.73 187.42 98.73 200.42 95.45C213.42 92.17 212.17 90.64 212.17 90.64V70.9L189.09 76.56L178.42 96.73Z" fill="#545454"/>
<path d="M189.08 76.56V92.73C189.08 92.73 186.08 97.28 169.27 97.28L154.85 65.28L189.08 76.56Z" fill="#3A3A3A"/>
<path d="M126.72 103.29C126.86 103.14 169.27 97.29 169.27 97.29C170.426 91.9657 170.856 86.5097 170.55 81.07C169.99 68.4 158.2 65.12 158.2 65.12L120.54 67.56C120.54 67.56 114.07 66.94 108.22 72.79L126.72 103.29Z" fill="#545454"/>
<path d="M125.36 103.22L114.11 101.33C108.17 100.61 103.57 94.28 103.89 87.27L104.14 81.85C104.46 74.85 109.59 69.68 115.53 70.4L126.18 71.7C132.12 72.42 136.72 78.75 136.4 85.76L136.15 91.18C135.83 98.19 131.3 104 125.36 103.22Z" fill="#3A3A3A"/>
<path d="M167.56 54.04L170.09 62.13L131.95 70.9L130.79 62.47L167.56 54.04Z" fill="#3A3A3A"/>
<path d="M130.79 62.47L118.56 60.66L118.05 68.39L131.95 70.9L130.79 62.47Z" fill="#2B2B2B"/>
<path d="M109.48 97.36C109.31 104.97 111.55 114.44 118.21 118.94C131.02 127.59 141.67 115.69 153.68 111.82C162.153 109.158 170.945 107.641 179.82 107.31C185.56 107.06 191.27 107.69 197.01 107.71C207.28 107.76 214.41 103.98 214.01 92.71C213.93 90.31 210.18 90.3 210.26 92.71C210.43 97.91 209.17 102.06 203.7 103.39C199.45 104.39 194.76 103.89 190.44 103.69C178.703 103.014 166.933 104.226 155.58 107.28C150.721 108.571 146.039 110.455 141.64 112.89C135.46 116.42 129.94 120.45 122.64 117.08C115.34 113.71 113.07 104.77 113.23 97.32C113.29 94.9 109.54 94.9 109.48 97.32V97.36Z" fill="#3A3A3A"/>
<path d="M192.34 64.48V57.64H212.16V70.9L192.34 64.48Z" fill="#2B2B2B"/>
<path d="M211 65.11L214.73 66.11C217.785 70.9641 219.114 76.7072 218.5 82.41C217.3 91.5 214.85 92.7 214.85 92.7H212.15C212.15 92.7 206.66 89.96 206.66 78.89C206.66 67.82 211 65.11 211 65.11Z" fill="#3A3A3A"/>
</svg>
