<svg width="432" height="344" viewBox="0 0 432 344" fill="none" xmlns="http://www.w3.org/2000/svg">
<path fill-rule="evenodd" clip-rule="evenodd" d="M162.547 0.610001C252.112 0.610001 324.72 73.21 324.72 162.783C324.72 252.355 252.112 325 162.547 325C72.9824 325 0.367432 252.348 0.367432 162.783C0.367432 73.2175 72.9674 0.610001 162.547 0.610001Z" fill="#FAAB22"/>
<path fill-rule="evenodd" clip-rule="evenodd" d="M56.0025 133H58.74L59.61 134.433C67.1706 147.054 77.8729 157.501 90.6735 164.755C103.474 172.009 117.936 175.821 132.649 175.821C147.362 175.821 161.823 172.009 174.624 164.755C187.425 157.501 198.127 147.054 205.688 134.433L206.565 133H230.048L230.798 134.83C235.63 146.926 243.978 157.296 254.763 164.601C265.547 171.906 278.274 175.81 291.3 175.81C304.326 175.81 317.053 171.906 327.837 164.601C338.622 157.296 346.97 146.926 351.802 134.83L352.552 133H359.753C360.911 132.999 362.059 133.226 363.13 133.669C364.201 134.112 365.174 134.762 365.994 135.581C366.814 136.4 367.464 137.372 367.908 138.443C368.352 139.514 368.58 140.661 368.58 141.82V192.25L427.642 171.655C428.007 171.524 428.393 171.466 428.78 171.486C429.167 171.505 429.546 171.602 429.895 171.769C430.244 171.937 430.556 172.172 430.813 172.462C431.07 172.751 431.267 173.089 431.392 173.455C431.501 173.763 431.554 174.088 431.55 174.415V276.415C431.552 276.803 431.477 277.187 431.33 277.545C431.182 277.904 430.965 278.23 430.691 278.504C430.417 278.778 430.091 278.995 429.733 279.142C429.374 279.29 428.99 279.365 428.603 279.363C428.191 279.361 427.783 279.28 427.403 279.123L368.58 258.61V309.085C368.583 310.243 368.353 311.39 367.905 312.458C367.457 313.526 366.799 314.493 365.97 315.303C364.321 316.953 362.086 317.883 359.753 317.89H241.905V340.795C241.908 341.182 241.834 341.566 241.687 341.925C241.541 342.283 241.325 342.609 241.051 342.883C240.778 343.157 240.452 343.375 240.094 343.522C239.736 343.67 239.352 343.745 238.965 343.742H171.885C171.103 343.742 170.354 343.432 169.801 342.879C169.248 342.326 168.938 341.577 168.938 340.795V317.935H56.0025C54.8424 317.937 53.6934 317.71 52.6214 317.266C51.5494 316.823 50.5757 316.172 49.7561 315.351C48.9365 314.53 48.2872 313.555 47.8456 312.482C47.4039 311.41 47.1785 310.26 47.1825 309.1V182.905L28.5 189.415C28.13 189.573 27.7321 189.654 27.33 189.655C26.5509 189.653 25.8042 189.343 25.2533 188.792C24.7024 188.241 24.392 187.494 24.39 186.715V149.868C24.3942 149.54 24.4551 149.215 24.57 148.908C24.6945 148.541 24.891 148.202 25.1479 147.912C25.4049 147.622 25.7172 147.387 26.0665 147.219C26.4158 147.051 26.795 146.955 27.182 146.936C27.569 146.917 27.9559 146.975 28.32 147.108L47.2125 153.685V141.79C47.2177 139.453 48.1417 137.212 49.785 135.55C51.4455 133.899 53.6912 132.972 56.0325 132.97L56.0025 133ZM291.3 52.5475C304.735 52.554 317.752 57.2186 328.134 65.7465C338.515 74.2745 345.619 86.1381 348.234 99.3161C350.849 112.494 348.814 126.171 342.476 138.017C336.137 149.863 325.888 159.145 313.473 164.281C301.059 169.417 287.247 170.09 274.392 166.185C261.537 162.28 250.434 154.039 242.974 142.865C235.514 131.692 232.159 118.277 233.481 104.907C234.803 91.5373 240.719 79.0393 250.223 69.5425C255.613 64.1439 262.016 59.8633 269.066 56.9468C276.115 54.0303 283.671 52.5352 291.3 52.5475ZM312.045 89.875C307.243 85.0662 300.922 82.0715 294.159 81.4012C287.397 80.7309 280.611 82.4265 274.958 86.1991C269.306 89.9716 265.137 95.5876 263.161 102.09C261.185 108.592 261.526 115.578 264.124 121.858C266.723 128.137 271.418 133.321 277.411 136.526C283.404 139.731 290.322 140.759 296.987 139.435C303.653 138.11 309.653 134.515 313.964 129.262C318.276 124.009 320.633 117.423 320.633 110.628C320.634 102.845 317.545 95.3807 312.045 89.875ZM132.668 12.625C150.71 12.6392 168.19 18.9079 182.129 30.3635C196.069 41.819 205.606 57.7527 209.116 75.4507C212.626 93.1486 209.892 111.516 201.38 127.425C192.867 143.333 179.103 155.798 162.432 162.697C145.76 169.597 127.212 170.503 109.948 165.261C92.6832 160.02 77.7695 148.956 67.7471 133.953C57.7246 118.95 53.2134 100.936 54.9817 82.9805C56.75 65.0247 64.6885 48.2372 77.445 35.4775C84.6916 28.2199 93.3003 22.465 102.777 18.5433C112.254 14.6217 122.411 12.6104 132.668 12.625ZM161.64 61.69C154.936 55.0144 146.125 50.8686 136.708 49.9586C127.291 49.0486 117.849 51.4305 109.99 56.6989C102.132 61.9673 96.3423 69.7965 93.607 78.8535C90.8718 87.9106 91.3602 97.6357 94.9889 106.373C98.6177 115.111 105.163 122.321 113.509 126.775C121.856 131.23 131.489 132.654 140.767 130.805C150.046 128.956 158.397 123.949 164.399 116.635C170.401 109.321 173.682 100.154 173.685 90.6925C173.69 85.3027 172.629 79.9651 170.561 74.9874C168.494 70.0097 165.462 65.4905 161.64 61.69Z" fill="#999999"/>
</svg>
