<svg width="375" height="361" viewBox="0 0 375 361" fill="none" xmlns="http://www.w3.org/2000/svg">
<path fill-rule="evenodd" clip-rule="evenodd" d="M163.315 0.559326C253.385 0.559326 326.388 73.5555 326.388 163.54C326.388 253.525 253.385 326.514 163.315 326.514C73.2446 326.514 0.241272 253.555 0.241272 163.54C0.241272 73.5254 73.2747 0.559326 163.315 0.559326Z" fill="#FAAB22"/>
<path d="M344.217 59.2351H102.921C94.9199 59.255 87.2528 62.4429 81.5987 68.1006C75.9446 73.7583 72.7643 81.4247 72.7543 89.4209V360.717L133.088 300.42H344.254C352.245 300.389 359.9 297.202 365.55 291.555C371.201 285.908 374.389 278.258 374.421 270.272V89.4209C374.411 81.4182 371.226 73.7461 365.563 68.0874C359.901 62.4286 352.224 59.2451 344.217 59.2351Z" fill="#999999"/>
</svg>
