<svg width="279" height="82" viewBox="0 0 279 82" fill="none" xmlns="http://www.w3.org/2000/svg">
<path d="M16.9531 28.8125V35.0312H16.2812C15.5521 31.25 13.6667 29.3594 10.625 29.3594C8.98958 29.3594 7.79688 30 7.04688 31.2812C6.29688 32.5625 5.92188 35.2604 5.92188 39.375C5.92188 42.7604 6.08333 45.0625 6.40625 46.2812C6.72917 47.5 7.28646 48.375 8.07812 48.9062C8.88021 49.4271 9.76042 49.6875 10.7188 49.6875C11.9688 49.6875 13.1406 49.2188 14.2344 48.2812C15.3385 47.3333 16.1927 45.8177 16.7969 43.7344H17.5312L17.2812 50.125H16.6406C16.401 49.4583 16.026 48.8958 15.5156 48.4375C13.8698 49.8021 12.1771 50.4844 10.4375 50.4844C8.22917 50.4844 6.21354 49.4375 4.39062 47.3438C2.56771 45.25 1.65625 42.6875 1.65625 39.6562C1.65625 36.5625 2.55208 33.9427 4.34375 31.7969C6.13542 29.6406 8.20833 28.5625 10.5625 28.5625C12.375 28.5625 13.974 29.2135 15.3594 30.5156C15.7656 29.8698 16.0729 29.3021 16.2812 28.8125H16.9531ZM22.1719 49.2031V38.5156H19.6406V37.7188H22.2031C23.5156 37.7188 24.5156 37.651 25.2031 37.5156V40.4688H25.2656C25.9948 38.5 27.0729 37.5156 28.5 37.5156C29.125 37.5156 29.625 37.7083 30 38.0938C30.3854 38.4688 30.5781 38.9271 30.5781 39.4688C30.5781 39.9688 30.4219 40.375 30.1094 40.6875C29.8073 40.9896 29.4115 41.1406 28.9219 41.1406C28.026 41.1406 27.5781 40.6927 27.5781 39.7969L27.6406 39.125C27.6406 38.8854 27.5312 38.7656 27.3125 38.7656C26.9688 38.7656 26.5312 39.2292 26 40.1562C25.4688 41.0833 25.2031 42.5 25.2031 44.4062V49.2031H27.7969V50H19.6406V49.2031H22.1719ZM43.6406 42.9219H35.7344C35.6615 46.0052 35.8333 47.9062 36.25 48.625C36.6667 49.3333 37.4115 49.6875 38.4844 49.6875C40.6927 49.6875 42.1875 48.4062 42.9688 45.8438H43.6406C43.2969 47.3958 42.6458 48.5417 41.6875 49.2812C40.7292 50.0208 39.6615 50.3906 38.4844 50.3906C36.8073 50.3906 35.349 49.7708 34.1094 48.5312C32.8698 47.2812 32.25 45.7135 32.25 43.8281C32.25 41.9948 32.8542 40.4531 34.0625 39.2031C35.2812 37.9531 36.6927 37.3281 38.2969 37.3281C39.6927 37.3281 40.9115 37.8229 41.9531 38.8125C43.0052 39.8021 43.5677 41.1719 43.6406 42.9219ZM35.7344 42.2188H40.2812C40.3646 41.4792 40.4062 40.9167 40.4062 40.5312C40.4062 38.8646 39.651 38.0312 38.1406 38.0312C37.3906 38.0312 36.8021 38.2344 36.375 38.6406C35.9479 39.0365 35.7344 39.5781 35.7344 40.2656V42.2188ZM36.0469 35.375L35.6406 34.9844L38.7656 31.2188C39.349 30.5208 39.7865 30.0469 40.0781 29.7969C40.3698 29.5469 40.6927 29.4219 41.0469 29.4219C41.3802 29.4219 41.6771 29.5521 41.9375 29.8125C42.1979 30.0625 42.3281 30.3281 42.3281 30.6094C42.3281 31.0469 42.1562 31.4219 41.8125 31.7344C41.4792 32.0365 40.8594 32.4635 39.9531 33.0156L36.0469 35.375ZM58.7969 28.8125V49.2031H60.9062V50H59.1562C58.0521 50 56.8854 50.0625 55.6562 50.1875V47.625H55.5938C54.7604 49.4688 53.4271 50.3906 51.5938 50.3906C50.125 50.3906 48.8281 49.7396 47.7031 48.4375C46.5885 47.125 46.0312 45.6406 46.0312 43.9844C46.0312 42.2135 46.6198 40.6615 47.7969 39.3281C48.9844 37.9948 50.3802 37.3281 51.9844 37.3281C53.6198 37.3281 54.8229 38.0625 55.5938 39.5312H55.6562V29.8438H52.8125V29.0469H55.6562C56.7083 29.0469 57.7552 28.9688 58.7969 28.8125ZM52.0781 38.0312C50.9427 38.0312 50.2292 38.4583 49.9375 39.3125C49.6562 40.1562 49.5156 41.875 49.5156 44.4688C49.5156 46.7083 49.6979 48.1198 50.0625 48.7031C50.4271 49.2865 51.0156 49.5781 51.8281 49.5781C52.7031 49.5781 53.474 49.2812 54.1406 48.6875C54.8073 48.0938 55.2448 47.4167 55.4531 46.6562C55.6615 45.8958 55.7656 44.6615 55.7656 42.9531C55.7656 41.3281 55.4375 40.1042 54.7812 39.2812C54.125 38.4479 53.224 38.0312 52.0781 38.0312ZM64.625 31.4688C64.625 31.0104 64.7917 30.6146 65.125 30.2812C65.4688 29.9479 65.8698 29.7812 66.3281 29.7812C66.7865 29.7812 67.1823 29.9479 67.5156 30.2812C67.8594 30.6042 68.0312 31 68.0312 31.4688C68.0312 31.9583 67.8646 32.3646 67.5312 32.6875C67.1979 33.0104 66.7969 33.1719 66.3281 33.1719C65.8594 33.1719 65.4583 33.0104 65.125 32.6875C64.7917 32.3542 64.625 31.9479 64.625 31.4688ZM67.7656 37.4844V49.2031H69.8125V50H62.5469V49.2031H64.7344V38.5156H62.5469V37.7188H64.7656C65.8281 37.7188 66.8281 37.6406 67.7656 37.4844ZM76.9688 34.1562V37.7188H80.6719V38.5156H76.9688V46.25C76.9688 47.3854 77.0417 48.1615 77.1875 48.5781C77.3438 48.9948 77.75 49.2031 78.4062 49.2031C78.9062 49.2031 79.3854 49.0365 79.8438 48.7031C80.3125 48.3698 80.6667 47.8542 80.9062 47.1562H81.5781C81.099 49.1771 79.6458 50.1875 77.2188 50.1875C76.1979 50.1875 75.4479 50.0052 74.9688 49.6406C74.4896 49.2656 74.1927 48.8073 74.0781 48.2656C73.974 47.724 73.9219 46.9896 73.9219 46.0625V38.5156H71.1406V37.7188H73.9219V34.4219C74.9531 34.4219 75.9688 34.3333 76.9688 34.1562ZM83.7812 43.8281C83.7812 42.026 84.401 40.4948 85.6406 39.2344C86.8802 37.9635 88.4167 37.3281 90.25 37.3281C92.0417 37.3281 93.5573 37.9375 94.7969 39.1562C96.0469 40.3646 96.6719 41.8802 96.6719 43.7031C96.6719 45.5677 96.026 47.151 94.7344 48.4531C93.4427 49.7448 91.9167 50.3906 90.1562 50.3906C88.4271 50.3906 86.9323 49.7604 85.6719 48.5C84.4115 47.2292 83.7812 45.6719 83.7812 43.8281ZM93.1562 43.8281C93.1562 41.9115 93.0885 40.6458 92.9531 40.0312C92.8281 39.4167 92.5365 38.9323 92.0781 38.5781C91.6302 38.2135 91.0104 38.0312 90.2188 38.0312C89.4688 38.0312 88.849 38.2188 88.3594 38.5938C87.8802 38.9583 87.5833 39.4479 87.4688 40.0625C87.3542 40.6771 87.2969 41.9427 87.2969 43.8594C87.2969 45.7865 87.3646 47.0625 87.5 47.6875C87.6458 48.3125 87.9531 48.8021 88.4219 49.1562C88.901 49.5104 89.5 49.6875 90.2188 49.6875C90.9479 49.6875 91.5521 49.5104 92.0312 49.1562C92.5208 48.7917 92.8281 48.2917 92.9531 47.6562C93.0885 47.0104 93.1562 45.7344 93.1562 43.8281ZM107.828 37.5781V41.0781H107.188C106.708 39.0469 105.542 38.0312 103.688 38.0312C102.885 38.0312 102.214 38.2448 101.672 38.6719C101.141 39.0885 100.875 39.5677 100.875 40.1094C100.875 40.5677 101.062 40.9323 101.438 41.2031C101.823 41.4635 102.724 41.6875 104.141 41.875C107.255 42.2604 108.812 43.6771 108.812 46.125C108.812 47.3438 108.406 48.3594 107.594 49.1719C106.792 49.9844 105.792 50.3906 104.594 50.3906C103.417 50.3906 102.276 49.9062 101.172 48.9375L100.078 49.875H99.5312V45.2656H100.078C100.974 48.2135 102.479 49.6875 104.594 49.6875C105.396 49.6875 106.125 49.4323 106.781 48.9219C107.438 48.4115 107.766 47.8125 107.766 47.125C107.766 46.5521 107.568 46.1198 107.172 45.8281C106.786 45.5365 105.734 45.2656 104.016 45.0156C101.089 44.5885 99.625 43.2865 99.625 41.1094C99.625 40.0365 100.016 39.1406 100.797 38.4219C101.589 37.6927 102.552 37.3281 103.688 37.3281C104.885 37.3281 105.891 37.724 106.703 38.5156C106.911 38.2969 107.125 37.9844 107.344 37.5781H107.828Z" fill="white"/>
<line x1="237.646" y1="81.0055" x2="277.646" y2="41.0055" stroke="white"/>
<line x1="238.354" y1="0.646447" x2="278.354" y2="40.6464" stroke="white"/>
</svg>
