<svg width="40" height="41" viewBox="0 0 40 41" fill="none" xmlns="http://www.w3.org/2000/svg">
<rect x="0.5" y="0.833374" width="39" height="39" stroke="white"/>
<path d="M20.6733 39V24.9355H17.5933V21.4102H20.6733V16.6973C20.6733 14.3594 21.1558 12.6338 22.1206 11.5205C23.0978 10.4072 24.6069 9.85059 26.6479 9.85059C27.0809 9.85059 27.5262 9.88151 27.9839 9.94336C28.4416 10.0052 28.9054 10.1042 29.3755 10.2402V13.877C29.0539 13.6914 28.7261 13.5553 28.3921 13.4688C28.0705 13.3698 27.7427 13.3203 27.4087 13.3203C26.4438 13.3203 25.7511 13.6172 25.3306 14.2109C24.91 14.8047 24.6997 15.8066 24.6997 17.2168V21.4102H28.9302V24.9355H24.6997V39H20.6733Z" fill="white"/>
</svg>
