<svg width="139" height="70" viewBox="0 0 139 70" fill="none" xmlns="http://www.w3.org/2000/svg">
<path d="M23.976 15.416V11.42C21.312 9.584 18.576 8.648 15.516 8.648C11.736 8.648 8.568 9.908 5.94 12.428C3.24 15.056 1.908 18.26 1.908 22.256C1.908 26.828 3.96 30.716 7.704 33.308C9.936 34.856 12.564 35.684 15.3 35.684C18.432 35.684 21.42 34.712 23.976 32.876V28.808C21.636 31.544 18.792 32.876 15.552 32.876C12.06 32.876 8.928 31.22 6.876 28.304C5.688 26.612 5.112 24.596 5.112 22.22C5.112 19.196 6.084 16.676 8.064 14.624C9.972 12.644 12.708 11.492 15.408 11.492C18.756 11.492 21.492 12.716 23.976 15.416ZM55.4979 22.184C55.4979 18.512 54.1299 15.164 51.5019 12.608C48.9099 10.088 45.3819 8.684 41.7459 8.684C38.1099 8.684 34.6179 10.088 32.0259 12.608C29.3979 15.164 27.9939 18.512 27.9939 22.184C27.9939 25.856 29.3979 29.168 32.0259 31.724C34.6179 34.244 38.1099 35.684 41.7459 35.684C45.3459 35.684 48.8739 34.28 51.5019 31.724C54.0939 29.204 55.4979 25.856 55.4979 22.184ZM41.7459 32.804C38.9019 32.804 36.3459 31.724 34.2939 29.672C32.2779 27.62 31.1979 25.064 31.1979 22.184C31.1979 19.304 32.2779 16.676 34.2939 14.624C36.2739 12.608 38.9019 11.528 41.7459 11.528C44.5899 11.528 47.1819 12.608 49.1979 14.624C51.2139 16.64 52.2939 19.304 52.2939 22.184C52.2939 25.064 51.2139 27.656 49.1979 29.672C47.1459 31.724 44.5539 32.804 41.7459 32.804ZM81.3862 15.416V11.42C78.7222 9.584 75.9862 8.648 72.9262 8.648C69.1462 8.648 65.9782 9.908 63.3502 12.428C60.6502 15.056 59.3182 18.26 59.3182 22.256C59.3182 26.828 61.3702 30.716 65.1142 33.308C67.3462 34.856 69.9742 35.684 72.7102 35.684C75.8422 35.684 78.8302 34.712 81.3862 32.876V28.808C79.0462 31.544 76.2022 32.876 72.9622 32.876C69.4702 32.876 66.3382 31.22 64.2862 28.304C63.0982 26.612 62.5222 24.596 62.5222 22.22C62.5222 19.196 63.4942 16.676 65.4742 14.624C67.3822 12.644 70.1182 11.492 72.8182 11.492C76.1662 11.492 78.9022 12.716 81.3862 15.416ZM112.908 22.184C112.908 18.512 111.54 15.164 108.912 12.608C106.32 10.088 102.792 8.684 99.1561 8.684C95.5201 8.684 92.0281 10.088 89.4361 12.608C86.8081 15.164 85.4041 18.512 85.4041 22.184C85.4041 25.856 86.8081 29.168 89.4361 31.724C92.0281 34.244 95.5201 35.684 99.1561 35.684C102.756 35.684 106.284 34.28 108.912 31.724C111.504 29.204 112.908 25.856 112.908 22.184ZM99.1561 32.804C96.3121 32.804 93.7561 31.724 91.7041 29.672C89.6881 27.62 88.6081 25.064 88.6081 22.184C88.6081 19.304 89.6881 16.676 91.7041 14.624C93.6841 12.608 96.3121 11.528 99.1561 11.528C102 11.528 104.592 12.608 106.608 14.624C108.624 16.64 109.704 19.304 109.704 22.184C109.704 25.064 108.624 27.656 106.608 29.672C104.556 31.724 101.964 32.804 99.1561 32.804ZM125.384 8.252L113.72 35H117.032L120.38 27.116H130.424L133.772 35H137.084L125.384 8.252ZM125.384 15.02L129.488 24.488H121.28L125.384 15.02ZM15.0815 39.8193L15.1797 45.5117H14.4109C13.3204 42.0985 11.3957 40.3918 8.63672 40.3918C7.11003 40.3918 5.92139 40.8171 5.0708 41.6677C4.23112 42.5074 3.81128 43.3798 3.81128 44.2849C3.81128 45.1246 4.16024 45.8389 4.85815 46.4277C5.56698 47.0166 6.85376 47.4746 8.71851 47.8018C10.5833 48.118 12.0009 48.5106 12.9714 48.9795C13.9529 49.4375 14.7762 50.2063 15.4414 51.2859C16.1175 52.3655 16.4556 53.6032 16.4556 54.999C16.4556 57.1473 15.7522 58.9357 14.3455 60.3643C12.9496 61.7928 11.2157 62.5071 9.1438 62.5071C7.45353 62.5071 5.76872 61.88 4.08936 60.626L2.55176 62H1.97925V55.866H2.68262C3.32601 57.7961 4.22567 59.2465 5.38159 60.217C6.53752 61.1876 7.80249 61.6729 9.17651 61.6729C10.5396 61.6729 11.7882 61.2257 12.9224 60.3315C14.0674 59.4264 14.6399 58.2869 14.6399 56.9128C14.6399 55.7569 14.2419 54.7864 13.4458 54.0012C12.6606 53.2052 11.3793 52.6599 9.60181 52.3655C7.83521 52.0601 6.47754 51.7112 5.52881 51.3186C4.58008 50.9151 3.76766 50.2227 3.09155 49.2412C2.41545 48.2489 2.07739 47.1529 2.07739 45.9534C2.07739 44.2958 2.66626 42.8182 3.84399 41.5205C5.02173 40.2119 6.6193 39.5576 8.63672 39.5576C10.327 39.5576 11.9028 40.092 13.364 41.1606C13.7675 40.779 14.1165 40.3319 14.4109 39.8193H15.0815ZM19.6289 40.0647H38.3254L38.8979 47.5237H38.0637C37.5512 45.0264 36.8696 43.298 36.019 42.3384C35.1794 41.3787 34.0725 40.8989 32.6985 40.8989H30.9155V61.1658H34.8413V62H23.113V61.1658H27.0388V40.8989H25.2559C23.8818 40.8989 22.7695 41.3787 21.9189 42.3384C21.0793 43.298 20.4032 45.0264 19.8906 47.5237H19.0564L19.6289 40.0647ZM45.4736 61.1658V40.8989H42.0222V40.0647H54.0449C55.6152 40.0647 56.902 40.201 57.9053 40.4736C58.9194 40.7463 59.7918 41.3133 60.5225 42.1748C61.2531 43.0254 61.6184 44.0068 61.6184 45.1191C61.6184 46.5041 61.0841 47.6273 60.0154 48.4888C58.9467 49.3503 57.1365 49.9991 54.5847 50.4353V50.5171C56.4167 50.877 57.9162 51.5749 59.083 52.6108C60.2607 53.6468 60.8496 55.4025 60.8496 57.8779C60.8496 59.2956 61.0132 60.2061 61.3403 60.6096C61.6784 61.0022 62.1418 61.1985 62.7307 61.1985C63.1124 61.1985 63.5704 61.1222 64.1047 60.9695V61.771C63.156 62.0981 62.24 62.2617 61.3567 62.2617C59.5574 62.2617 58.2869 61.7601 57.5454 60.7568C56.8039 59.7536 56.444 58.7721 56.4658 57.8125L56.5312 55.0317C56.5312 54.0612 56.2205 53.107 55.5989 52.1692C54.9882 51.2205 53.5924 50.7461 51.4114 50.7461H49.3667V61.1658H52.8181V62H42.0222V61.1658H45.4736ZM49.3667 40.8989V49.9773H52.311C53.576 49.9773 54.5411 49.8955 55.2063 49.7319C55.8715 49.5575 56.4004 49.1158 56.793 48.407C57.1965 47.6873 57.3982 46.5477 57.3982 44.9883C57.3982 43.7124 57.1965 42.78 56.793 42.1912C56.3895 41.6023 55.8988 41.2424 55.3208 41.1116C54.7537 40.9698 54.0068 40.8989 53.0798 40.8989H49.3667ZM74.4426 40.8989V50.3044H76.4219C77.1198 50.3044 77.7087 50.239 78.1885 50.1082C78.6792 49.9664 79.1154 49.5956 79.4971 48.9958C79.8896 48.3961 80.1132 47.4583 80.1677 46.1824H81.0183V55.4734H80.1677C80.0805 53.7068 79.737 52.5454 79.1372 51.9893C78.5483 51.4222 77.6432 51.1387 76.4219 51.1387H74.4426V61.1658H78.9082C81.4382 61.1658 83.1884 60.6369 84.1589 59.5791C85.1404 58.5104 85.7238 56.8692 85.9092 54.6555H86.7434L86.5308 62H67.0818V61.1658H70.5659V40.8989H67.0818V40.0647H85.7292L86.1055 45.9207H85.2712C84.9877 44.1431 84.4043 42.8618 83.521 42.0767C82.6377 41.2915 81.1655 40.8989 79.1045 40.8989H74.4426ZM102.692 55.1626H95.7236L93.4827 61.1658H97.5393V62H89.5896V61.1658H92.6157L100.615 39.5576H101.122L108.793 61.1658H111.738V62H101.285V61.1658H104.835L102.692 55.1626ZM96.0344 54.3284H102.397L99.3059 45.5444H99.2405L96.0344 54.3284ZM113.848 40.0647H121.716L126.41 55.5715H126.476L131.203 40.0647H138.875V40.8989H135.619V61.1658H138.875V62H128.553V61.1658H131.906V40.5227H131.841L125.314 62H124.562L118.035 40.5227H117.97V61.1658H121.323V62H113.848V61.1658H117.135V40.8989H113.848V40.0647Z" fill="white"/>
</svg>
