<svg width="367" height="392" viewBox="0 0 367 392" fill="none" xmlns="http://www.w3.org/2000/svg">
<path fill-rule="evenodd" clip-rule="evenodd" d="M203.873 0.14502C293.445 0.14502 366.052 72.76 366.052 162.325C366.052 251.89 293.445 324.505 203.873 324.505C114.3 324.505 41.7 251.89 41.7 162.325C41.7 72.76 114.308 0.14502 203.873 0.14502Z" fill="#FAAB22"/>
<path d="M162.113 391.75L0.75 298.57V112.202L162.113 19L323.475 112.202V298.57L162.113 391.75ZM22.6125 285.948L162.113 366.512L301.613 285.948V124.825L162.113 44.26L22.6125 124.825V285.948Z" fill="#999999"/>
<path d="M84.3525 250.217L39.525 205.382L84.3525 160.555L99.8025 176.012L70.425 205.382L99.8025 234.76L84.3525 250.217Z" fill="#999999"/>
<path d="M239.872 250.217L224.422 234.76L253.8 205.382L224.422 176.012L239.872 160.555L284.708 205.382L239.872 250.217Z" fill="#999999"/>
<path d="M178.057 149.05L197.602 158.8L146.167 261.707L126.615 251.957L178.057 149.05Z" fill="#999999"/>
</svg>
