<svg width="282" height="84" viewBox="0 0 282 84" fill="none" xmlns="http://www.w3.org/2000/svg">
<path d="M19.1406 34.8281V35.625C18.7865 35.6667 18.2292 35.6875 17.4688 35.6875C15.5521 35.6875 13.6406 35.2083 11.7344 34.25C9.83854 33.3021 8.89062 31.5521 8.89062 29C6.65104 28.25 4.875 26.8698 3.5625 24.8594C2.25 22.8385 1.59375 20.7083 1.59375 18.4688C1.59375 15.6146 2.5625 13.0833 4.5 10.875C6.4375 8.66667 8.72396 7.5625 11.3594 7.5625C13.8073 7.5625 16.0365 8.63021 18.0469 10.7656C20.0573 12.901 21.0625 15.4375 21.0625 18.375C21.0625 20.7708 20.3125 23.0156 18.8125 25.1094C17.3125 27.2031 15.4688 28.5 13.2812 29C13.2812 31.2708 13.6615 32.8125 14.4219 33.625C15.1927 34.4479 16.7656 34.849 19.1406 34.8281ZM11.3906 8.35938C10.2344 8.35938 9.17188 8.65104 8.20312 9.23438C7.24479 9.81771 6.63021 10.7656 6.35938 12.0781C6.08854 13.3906 5.95312 15.7031 5.95312 19.0156C5.95312 21.2656 6.04167 23.026 6.21875 24.2969C6.39583 25.5573 6.86979 26.6042 7.64062 27.4375C8.42188 28.2708 9.65104 28.6875 11.3281 28.6875C12.5781 28.6875 13.651 28.3646 14.5469 27.7188C15.4531 27.0625 16.0365 26.0104 16.2969 24.5625C16.5677 23.1042 16.7031 20.849 16.7031 17.7969C16.7031 14.8698 16.526 12.8177 16.1719 11.6406C15.8281 10.4531 15.1719 9.60938 14.2031 9.10938C13.2448 8.60938 12.3073 8.35938 11.3906 8.35938ZM37.0312 16.7188V28.2031H39.1406V29H37.0312C35.4062 29 34.3802 29.0625 33.9531 29.1875V26.2812H33.8906C32.9531 28.2188 31.4792 29.1875 29.4688 29.1875C28.3125 29.1875 27.3802 28.8854 26.6719 28.2812C25.974 27.6667 25.625 26.3802 25.625 24.4219V17.5156H23.3594V16.7188H28.6719V24.9688C28.6719 26.2604 28.75 27.1562 28.9062 27.6562C29.0625 28.1458 29.4635 28.3906 30.1094 28.3906C31.0677 28.3906 31.9531 27.8802 32.7656 26.8594C33.5781 25.8281 33.9844 24.2812 33.9844 22.2188V17.5156H31.4844V16.7188H37.0312ZM52.6094 21.9219H44.7031C44.6302 25.0052 44.8021 26.9062 45.2188 27.625C45.6354 28.3333 46.3802 28.6875 47.4531 28.6875C49.6615 28.6875 51.1562 27.4062 51.9375 24.8438H52.6094C52.2656 26.3958 51.6146 27.5417 50.6562 28.2812C49.6979 29.0208 48.6302 29.3906 47.4531 29.3906C45.776 29.3906 44.3177 28.7708 43.0781 27.5312C41.8385 26.2812 41.2188 24.7135 41.2188 22.8281C41.2188 20.9948 41.8229 19.4531 43.0312 18.2031C44.25 16.9531 45.6615 16.3281 47.2656 16.3281C48.6615 16.3281 49.8802 16.8229 50.9219 17.8125C51.974 18.8021 52.5365 20.1719 52.6094 21.9219ZM44.7031 21.2188H49.25C49.3333 20.4792 49.375 19.9167 49.375 19.5312C49.375 17.8646 48.6198 17.0312 47.1094 17.0312C46.3594 17.0312 45.7708 17.2344 45.3438 17.6406C44.9167 18.0365 44.7031 18.5781 44.7031 19.2656V21.2188ZM4.76562 67.2031V47.8438H1.46875V47.0469H11.8125V47.8438H8.48438V56.7969H17.5312V47.8438H14.2656V47.0469H24.5469V47.8438H21.25V67.2031H24.5469V68H14.2656V67.2031H17.5312V57.5938H8.48438V67.2031H11.8125V68H1.46875V67.2031H4.76562ZM35.5 60.9844V59.3906C35.5 58.0885 35.3906 57.2344 35.1719 56.8281C34.9635 56.4219 34.3906 56.2188 33.4531 56.2188C31.7656 56.2188 30.9219 56.5417 30.9219 57.1875C30.9219 57.375 30.9896 57.5833 31.125 57.8125C31.2708 58.0312 31.3438 58.2917 31.3438 58.5938C31.3438 59.0208 31.2031 59.349 30.9219 59.5781C30.6406 59.7969 30.3229 59.9062 29.9688 59.9062C29.5104 59.9062 29.1562 59.7656 28.9062 59.4844C28.6562 59.1927 28.5312 58.8542 28.5312 58.4688C28.5312 57.6354 29.0156 56.9375 29.9844 56.375C30.9635 55.8021 32.3229 55.5156 34.0625 55.5156C35.4583 55.5156 36.4792 55.6771 37.125 56C37.7708 56.3229 38.1667 56.724 38.3125 57.2031C38.4688 57.6823 38.5469 58.3594 38.5469 59.2344V64.9844C38.5469 65.8281 38.6042 66.3542 38.7188 66.5625C38.8438 66.7708 39.0312 66.875 39.2812 66.875C39.6562 66.875 40.0208 66.6198 40.375 66.1094H40.75C40.4792 67.6302 39.5938 68.3906 38.0938 68.3906C36.6458 68.3906 35.7812 67.5573 35.5 65.8906C34.2812 67.5573 32.8542 68.3906 31.2188 68.3906C30.1354 68.3906 29.2708 68.099 28.625 67.5156C27.9792 66.9219 27.6562 66.1979 27.6562 65.3438C27.6562 62.6875 30.2708 61.2344 35.5 60.9844ZM35.5 63.3906V61.7031C33.5729 61.776 32.3021 62.0677 31.6875 62.5781C31.0729 63.0781 30.7656 63.8073 30.7656 64.7656C30.7656 65.4635 30.9479 66.0052 31.3125 66.3906C31.6875 66.776 32.1146 66.9688 32.5938 66.9688C33.2083 66.9688 33.7604 66.7656 34.25 66.3594C34.75 65.9427 35.0833 65.526 35.25 65.1094C35.4167 64.6927 35.5 64.1198 35.5 63.3906ZM53.8438 63.75H54.5156C54.2031 65.2604 53.5885 66.4115 52.6719 67.2031C51.7552 67.9948 50.651 68.3906 49.3594 68.3906C47.599 68.3906 46.1094 67.7396 44.8906 66.4375C43.6719 65.125 43.0625 63.6198 43.0625 61.9219C43.0625 60.1719 43.6875 58.6354 44.9375 57.3125C46.1875 55.9896 47.7396 55.3281 49.5938 55.3281C50.9167 55.3281 51.9948 55.6667 52.8281 56.3438C53.6615 57.0104 54.0781 57.7604 54.0781 58.5938C54.0781 59.0104 53.9323 59.3854 53.6406 59.7188C53.3594 60.0521 52.9896 60.2188 52.5312 60.2188C52.0833 60.2188 51.7083 60.0781 51.4062 59.7969C51.1146 59.5156 50.9688 59.1458 50.9688 58.6875C50.9688 58.3646 51.0938 58.0469 51.3438 57.7344C51.6042 57.4219 51.7344 57.2083 51.7344 57.0938C51.7344 56.8125 51.5417 56.5677 51.1562 56.3594C50.7708 56.1406 50.2708 56.0312 49.6562 56.0312C48.5729 56.0312 47.7656 56.3229 47.2344 56.9062C46.7135 57.4896 46.4531 58.724 46.4531 60.6094C46.4531 62.4948 46.5 63.8906 46.5938 64.7969C46.6979 65.6927 46.9635 66.401 47.3906 66.9219C47.8177 67.4323 48.5208 67.6875 49.5 67.6875C51.5625 67.6875 53.0104 66.375 53.8438 63.75ZM67.9844 60.9219H60.0781C60.0052 64.0052 60.1771 65.9062 60.5938 66.625C61.0104 67.3333 61.7552 67.6875 62.8281 67.6875C65.0365 67.6875 66.5312 66.4062 67.3125 63.8438H67.9844C67.6406 65.3958 66.9896 66.5417 66.0312 67.2812C65.0729 68.0208 64.0052 68.3906 62.8281 68.3906C61.151 68.3906 59.6927 67.7708 58.4531 66.5312C57.2135 65.2812 56.5938 63.7135 56.5938 61.8281C56.5938 59.9948 57.1979 58.4531 58.4062 57.2031C59.625 55.9531 61.0365 55.3281 62.6406 55.3281C64.0365 55.3281 65.2552 55.8229 66.2969 56.8125C67.349 57.8021 67.9115 59.1719 67.9844 60.9219ZM60.0781 60.2188H64.625C64.7083 59.4792 64.75 58.9167 64.75 58.5312C64.75 56.8646 63.9948 56.0312 62.4844 56.0312C61.7344 56.0312 61.1458 56.2344 60.7188 56.6406C60.2917 57.0365 60.0781 57.5781 60.0781 58.2656V60.2188ZM72.3906 67.2031V56.5156H70.1875V55.7188H71.5625C73.1875 55.7188 74.4792 55.651 75.4375 55.5156V58.5312H75.5C76.3229 56.5208 77.7917 55.5156 79.9062 55.5156C82.2083 55.5156 83.4792 56.5833 83.7188 58.7188H83.7812C84.6875 56.5833 86.1927 55.5156 88.2969 55.5156C89.2344 55.5156 90.0208 55.75 90.6562 56.2188C91.3021 56.6875 91.6979 57.2292 91.8438 57.8438C92 58.4583 92.0781 59.474 92.0781 60.8906V67.2031H94.25V68H86.9844V67.2031H89.0312V59.4844C89.0312 58.2656 88.9583 57.4271 88.8125 56.9688C88.6771 56.5104 88.3021 56.2812 87.6875 56.2812C86.8438 56.2812 85.974 56.7604 85.0781 57.7188C84.1927 58.6667 83.75 60.474 83.75 63.1406V67.2031H85.7656V68H78.6875V67.2031H80.7188V61.1562C80.7188 58.8021 80.6302 57.401 80.4531 56.9531C80.2865 56.5052 79.8802 56.2812 79.2344 56.2812C78.349 56.2812 77.5729 56.6719 76.9062 57.4531C76.25 58.2344 75.8385 58.9948 75.6719 59.7344C75.5156 60.474 75.4375 61.651 75.4375 63.2656V67.2031H77.4531V68H70.1875V67.2031H72.3906ZM96.4688 61.8281C96.4688 60.026 97.0885 58.4948 98.3281 57.2344C99.5677 55.9635 101.104 55.3281 102.938 55.3281C104.729 55.3281 106.245 55.9375 107.484 57.1562C108.734 58.3646 109.359 59.8802 109.359 61.7031C109.359 63.5677 108.714 65.151 107.422 66.4531C106.13 67.7448 104.604 68.3906 102.844 68.3906C101.115 68.3906 99.6198 67.7604 98.3594 66.5C97.099 65.2292 96.4688 63.6719 96.4688 61.8281ZM105.844 61.8281C105.844 59.9115 105.776 58.6458 105.641 58.0312C105.516 57.4167 105.224 56.9323 104.766 56.5781C104.318 56.2135 103.698 56.0312 102.906 56.0312C102.156 56.0312 101.536 56.2188 101.047 56.5938C100.568 56.9583 100.271 57.4479 100.156 58.0625C100.042 58.6771 99.9844 59.9427 99.9844 61.8594C99.9844 63.7865 100.052 65.0625 100.188 65.6875C100.333 66.3125 100.641 66.8021 101.109 67.1562C101.589 67.5104 102.188 67.6875 102.906 67.6875C103.635 67.6875 104.24 67.5104 104.719 67.1562C105.208 66.7917 105.516 66.2917 105.641 65.6562C105.776 65.0104 105.844 63.7344 105.844 61.8281ZM120.516 55.5781V59.0781H119.875C119.396 57.0469 118.229 56.0312 116.375 56.0312C115.573 56.0312 114.901 56.2448 114.359 56.6719C113.828 57.0885 113.562 57.5677 113.562 58.1094C113.562 58.5677 113.75 58.9323 114.125 59.2031C114.51 59.4635 115.411 59.6875 116.828 59.875C119.943 60.2604 121.5 61.6771 121.5 64.125C121.5 65.3438 121.094 66.3594 120.281 67.1719C119.479 67.9844 118.479 68.3906 117.281 68.3906C116.104 68.3906 114.964 67.9062 113.859 66.9375L112.766 67.875H112.219V63.2656H112.766C113.661 66.2135 115.167 67.6875 117.281 67.6875C118.083 67.6875 118.812 67.4323 119.469 66.9219C120.125 66.4115 120.453 65.8125 120.453 65.125C120.453 64.5521 120.255 64.1198 119.859 63.8281C119.474 63.5365 118.422 63.2656 116.703 63.0156C113.776 62.5885 112.312 61.2865 112.312 59.1094C112.312 58.0365 112.703 57.1406 113.484 56.4219C114.276 55.6927 115.24 55.3281 116.375 55.3281C117.573 55.3281 118.578 55.724 119.391 56.5156C119.599 56.2969 119.812 55.9844 120.031 55.5781H120.516Z" fill="white"/>
<line x1="240.646" y1="83.0055" x2="280.646" y2="43.0055" stroke="white"/>
<line x1="241.354" y1="2.64645" x2="281.354" y2="42.6464" stroke="white"/>
</svg>
