<svg width="32" height="33" viewBox="0 0 32 33" fill="none" xmlns="http://www.w3.org/2000/svg">
<path d="M25.3972 13.4486C25.3972 20.0477 20.0477 25.3972 13.4486 25.3972V26.3972C20.5999 26.3972 26.3972 20.5999 26.3972 13.4486H25.3972ZM13.4486 25.3972C6.84958 25.3972 1.5 20.0477 1.5 13.4486H0.5C0.5 20.5999 6.29729 26.3972 13.4486 26.3972V25.3972ZM1.5 13.4486C1.5 6.84958 6.84958 1.5 13.4486 1.5V0.5C6.29729 0.5 0.5 6.29729 0.5 13.4486H1.5ZM13.4486 1.5C20.0477 1.5 25.3972 6.84958 25.3972 13.4486H26.3972C26.3972 6.29729 20.5999 0.5 13.4486 0.5V1.5ZM23.4182 25.1637L30.6464 32.3919L31.3536 31.6848L24.1253 24.4566L23.4182 25.1637Z" fill="white"/>
</svg>
