<svg width="187" height="138" viewBox="0 0 187 138" fill="none" xmlns="http://www.w3.org/2000/svg">
<path d="M65.2812 14.9844H61.7344V14.1875H72.5781V14.9844H69.5469C69.5469 17.6615 68.6875 19.5833 66.9688 20.75C65.25 21.9062 63.4531 22.4844 61.5781 22.4844C58.8385 22.4844 56.5573 21.3906 54.7344 19.2031C52.9115 17.0156 52 14.4583 52 11.5312C52 8.5625 52.9323 5.99479 54.7969 3.82812C56.6615 1.65104 58.9844 0.5625 61.7656 0.5625C63.2031 0.5625 64.5781 0.979167 65.8906 1.8125C66.2865 2.0625 66.5625 2.1875 66.7188 2.1875C67.0521 2.1875 67.3854 1.89062 67.7188 1.29688H68.4219L68.6406 6.98438H67.8438C66.9792 3.23438 64.9323 1.35938 61.7031 1.35938C60.026 1.35938 58.8021 1.73958 58.0312 2.5C57.2604 3.25 56.7865 4.20312 56.6094 5.35938C56.4427 6.50521 56.3594 8.14583 56.3594 10.2812C56.3594 14.125 56.4844 16.6719 56.7344 17.9219C56.9948 19.1719 57.5208 20.1146 58.3125 20.75C59.1042 21.375 60.0729 21.6875 61.2188 21.6875C62.1354 21.6875 62.9479 21.5 63.6562 21.125C64.375 20.75 64.8229 20.1927 65 19.4531C65.1875 18.7031 65.2812 17.5885 65.2812 16.1094V14.9844ZM85.7656 14.9219H77.8594C77.7865 18.0052 77.9583 19.9062 78.375 20.625C78.7917 21.3333 79.5365 21.6875 80.6094 21.6875C82.8177 21.6875 84.3125 20.4062 85.0938 17.8438H85.7656C85.4219 19.3958 84.7708 20.5417 83.8125 21.2812C82.8542 22.0208 81.7865 22.3906 80.6094 22.3906C78.9323 22.3906 77.474 21.7708 76.2344 20.5312C74.9948 19.2812 74.375 17.7135 74.375 15.8281C74.375 13.9948 74.9792 12.4531 76.1875 11.2031C77.4062 9.95312 78.8177 9.32812 80.4219 9.32812C81.8177 9.32812 83.0365 9.82292 84.0781 10.8125C85.1302 11.8021 85.6927 13.1719 85.7656 14.9219ZM77.8594 14.2188H82.4062C82.4896 13.4792 82.5312 12.9167 82.5312 12.5312C82.5312 10.8646 81.776 10.0312 80.2656 10.0312C79.5156 10.0312 78.9271 10.2344 78.5 10.6406C78.0729 11.0365 77.8594 11.5781 77.8594 12.2656V14.2188ZM89.9844 21.2031V10.5156H87.7656V9.71875H89.1875C90.5938 9.71875 91.8698 9.64062 93.0156 9.48438V12.5312H93.0781C94.151 10.3958 95.6667 9.32812 97.625 9.32812C98.5417 9.32812 99.2917 9.5625 99.875 10.0312C100.469 10.5 100.87 11.0521 101.078 11.6875C101.297 12.3229 101.406 13.3073 101.406 14.6406V21.2031H103.844V22H96.2812V21.2031H98.3594V13.3906C98.3594 12.1927 98.2812 11.3646 98.125 10.9062C97.9792 10.4479 97.5885 10.2188 96.9531 10.2188C95.9427 10.2188 95.0312 10.7396 94.2188 11.7812C93.4167 12.8125 93.0156 14.2031 93.0156 15.9531V21.2031H95.0625V22H87.7656V21.2031H89.9844ZM116.766 14.9219H108.859C108.786 18.0052 108.958 19.9062 109.375 20.625C109.792 21.3333 110.536 21.6875 111.609 21.6875C113.818 21.6875 115.312 20.4062 116.094 17.8438H116.766C116.422 19.3958 115.771 20.5417 114.812 21.2812C113.854 22.0208 112.786 22.3906 111.609 22.3906C109.932 22.3906 108.474 21.7708 107.234 20.5312C105.995 19.2812 105.375 17.7135 105.375 15.8281C105.375 13.9948 105.979 12.4531 107.188 11.2031C108.406 9.95312 109.818 9.32812 111.422 9.32812C112.818 9.32812 114.036 9.82292 115.078 10.8125C116.13 11.8021 116.693 13.1719 116.766 14.9219ZM108.859 14.2188H113.406C113.49 13.4792 113.531 12.9167 113.531 12.5312C113.531 10.8646 112.776 10.0312 111.266 10.0312C110.516 10.0312 109.927 10.2344 109.5 10.6406C109.073 11.0365 108.859 11.5781 108.859 12.2656V14.2188ZM120.953 21.2031V10.5156H118.422V9.71875H120.984C122.297 9.71875 123.297 9.65104 123.984 9.51562V12.4688H124.047C124.776 10.5 125.854 9.51562 127.281 9.51562C127.906 9.51562 128.406 9.70833 128.781 10.0938C129.167 10.4688 129.359 10.9271 129.359 11.4688C129.359 11.9688 129.203 12.375 128.891 12.6875C128.589 12.9896 128.193 13.1406 127.703 13.1406C126.807 13.1406 126.359 12.6927 126.359 11.7969L126.422 11.125C126.422 10.8854 126.312 10.7656 126.094 10.7656C125.75 10.7656 125.312 11.2292 124.781 12.1562C124.25 13.0833 123.984 14.5 123.984 16.4062V21.2031H126.578V22H118.422V21.2031H120.953ZM139.281 14.9844V13.3906C139.281 12.0885 139.172 11.2344 138.953 10.8281C138.745 10.4219 138.172 10.2188 137.234 10.2188C135.547 10.2188 134.703 10.5417 134.703 11.1875C134.703 11.375 134.771 11.5833 134.906 11.8125C135.052 12.0312 135.125 12.2917 135.125 12.5938C135.125 13.0208 134.984 13.349 134.703 13.5781C134.422 13.7969 134.104 13.9062 133.75 13.9062C133.292 13.9062 132.938 13.7656 132.688 13.4844C132.438 13.1927 132.312 12.8542 132.312 12.4688C132.312 11.6354 132.797 10.9375 133.766 10.375C134.745 9.80208 136.104 9.51562 137.844 9.51562C139.24 9.51562 140.26 9.67708 140.906 10C141.552 10.3229 141.948 10.724 142.094 11.2031C142.25 11.6823 142.328 12.3594 142.328 13.2344V18.9844C142.328 19.8281 142.385 20.3542 142.5 20.5625C142.625 20.7708 142.812 20.875 143.062 20.875C143.438 20.875 143.802 20.6198 144.156 20.1094H144.531C144.26 21.6302 143.375 22.3906 141.875 22.3906C140.427 22.3906 139.562 21.5573 139.281 19.8906C138.062 21.5573 136.635 22.3906 135 22.3906C133.917 22.3906 133.052 22.099 132.406 21.5156C131.76 20.9219 131.438 20.1979 131.438 19.3438C131.438 16.6875 134.052 15.2344 139.281 14.9844ZM139.281 17.3906V15.7031C137.354 15.776 136.083 16.0677 135.469 16.5781C134.854 17.0781 134.547 17.8073 134.547 18.7656C134.547 19.4635 134.729 20.0052 135.094 20.3906C135.469 20.776 135.896 20.9688 136.375 20.9688C136.99 20.9688 137.542 20.7656 138.031 20.3594C138.531 19.9427 138.865 19.526 139.031 19.1094C139.198 18.6927 139.281 18.1198 139.281 17.3906ZM11.5625 56.75H12.2344C11.9219 58.2604 11.3073 59.4115 10.3906 60.2031C9.47396 60.9948 8.36979 61.3906 7.07812 61.3906C5.31771 61.3906 3.82812 60.7396 2.60938 59.4375C1.39062 58.125 0.78125 56.6198 0.78125 54.9219C0.78125 53.1719 1.40625 51.6354 2.65625 50.3125C3.90625 48.9896 5.45833 48.3281 7.3125 48.3281C8.63542 48.3281 9.71354 48.6667 10.5469 49.3438C11.3802 50.0104 11.7969 50.7604 11.7969 51.5938C11.7969 52.0104 11.651 52.3854 11.3594 52.7188C11.0781 53.0521 10.7083 53.2188 10.25 53.2188C9.80208 53.2188 9.42708 53.0781 9.125 52.7969C8.83333 52.5156 8.6875 52.1458 8.6875 51.6875C8.6875 51.3646 8.8125 51.0469 9.0625 50.7344C9.32292 50.4219 9.45312 50.2083 9.45312 50.0938C9.45312 49.8125 9.26042 49.5677 8.875 49.3594C8.48958 49.1406 7.98958 49.0312 7.375 49.0312C6.29167 49.0312 5.48438 49.3229 4.95312 49.9062C4.43229 50.4896 4.17188 51.724 4.17188 53.6094C4.17188 55.4948 4.21875 56.8906 4.3125 57.7969C4.41667 58.6927 4.68229 59.401 5.10938 59.9219C5.53646 60.4323 6.23958 60.6875 7.21875 60.6875C9.28125 60.6875 10.7292 59.375 11.5625 56.75ZM14.5 54.8281C14.5 53.026 15.1198 51.4948 16.3594 50.2344C17.599 48.9635 19.1354 48.3281 20.9688 48.3281C22.7604 48.3281 24.276 48.9375 25.5156 50.1562C26.7656 51.3646 27.3906 52.8802 27.3906 54.7031C27.3906 56.5677 26.7448 58.151 25.4531 59.4531C24.1615 60.7448 22.6354 61.3906 20.875 61.3906C19.1458 61.3906 17.651 60.7604 16.3906 59.5C15.1302 58.2292 14.5 56.6719 14.5 54.8281ZM23.875 54.8281C23.875 52.9115 23.8073 51.6458 23.6719 51.0312C23.5469 50.4167 23.2552 49.9323 22.7969 49.5781C22.349 49.2135 21.7292 49.0312 20.9375 49.0312C20.1875 49.0312 19.5677 49.2188 19.0781 49.5938C18.599 49.9583 18.3021 50.4479 18.1875 51.0625C18.0729 51.6771 18.0156 52.9427 18.0156 54.8594C18.0156 56.7865 18.0833 58.0625 18.2188 58.6875C18.3646 59.3125 18.6719 59.8021 19.1406 60.1562C19.6198 60.5104 20.2188 60.6875 20.9375 60.6875C21.6667 60.6875 22.2708 60.5104 22.75 60.1562C23.2396 59.7917 23.5469 59.2917 23.6719 58.6562C23.8073 58.0104 23.875 56.7344 23.875 54.8281ZM31.9531 60.2031V49.5156H29.7344V48.7188H31.1562C32.5625 48.7188 33.8385 48.6406 34.9844 48.4844V51.5312H35.0469C36.1198 49.3958 37.6354 48.3281 39.5938 48.3281C40.5104 48.3281 41.2604 48.5625 41.8438 49.0312C42.4375 49.5 42.8385 50.0521 43.0469 50.6875C43.2656 51.3229 43.375 52.3073 43.375 53.6406V60.2031H45.8125V61H38.25V60.2031H40.3281V52.3906C40.3281 51.1927 40.25 50.3646 40.0938 49.9062C39.9479 49.4479 39.5573 49.2188 38.9219 49.2188C37.9115 49.2188 37 49.7396 36.1875 50.7812C35.3854 51.8125 34.9844 53.2031 34.9844 54.9531V60.2031H37.0312V61H29.7344V60.2031H31.9531ZM52.7188 45.1562V48.7188H56.4219V49.5156H52.7188V57.25C52.7188 58.3854 52.7917 59.1615 52.9375 59.5781C53.0938 59.9948 53.5 60.2031 54.1562 60.2031C54.6562 60.2031 55.1354 60.0365 55.5938 59.7031C56.0625 59.3698 56.4167 58.8542 56.6562 58.1562H57.3281C56.849 60.1771 55.3958 61.1875 52.9688 61.1875C51.9479 61.1875 51.1979 61.0052 50.7188 60.6406C50.2396 60.2656 49.9427 59.8073 49.8281 59.2656C49.724 58.724 49.6719 57.9896 49.6719 57.0625V49.5156H46.8906V48.7188H49.6719V45.4219C50.7031 45.4219 51.7188 45.3333 52.7188 45.1562ZM70.7344 53.9219H62.8281C62.7552 57.0052 62.9271 58.9062 63.3438 59.625C63.7604 60.3333 64.5052 60.6875 65.5781 60.6875C67.7865 60.6875 69.2812 59.4062 70.0625 56.8438H70.7344C70.3906 58.3958 69.7396 59.5417 68.7812 60.2812C67.8229 61.0208 66.7552 61.3906 65.5781 61.3906C63.901 61.3906 62.4427 60.7708 61.2031 59.5312C59.9635 58.2812 59.3438 56.7135 59.3438 54.8281C59.3438 52.9948 59.9479 51.4531 61.1562 50.2031C62.375 48.9531 63.7865 48.3281 65.3906 48.3281C66.7865 48.3281 68.0052 48.8229 69.0469 49.8125C70.099 50.8021 70.6615 52.1719 70.7344 53.9219ZM62.8281 53.2188H67.375C67.4583 52.4792 67.5 51.9167 67.5 51.5312C67.5 49.8646 66.7448 49.0312 65.2344 49.0312C64.4844 49.0312 63.8958 49.2344 63.4688 49.6406C63.0417 50.0365 62.8281 50.5781 62.8281 51.2656V53.2188ZM74.9531 60.2031V49.5156H72.7344V48.7188H74.1562C75.5625 48.7188 76.8385 48.6406 77.9844 48.4844V51.5312H78.0469C79.1198 49.3958 80.6354 48.3281 82.5938 48.3281C83.5104 48.3281 84.2604 48.5625 84.8438 49.0312C85.4375 49.5 85.8385 50.0521 86.0469 50.6875C86.2656 51.3229 86.375 52.3073 86.375 53.6406V60.2031H88.8125V61H81.25V60.2031H83.3281V52.3906C83.3281 51.1927 83.25 50.3646 83.0938 49.9062C82.9479 49.4479 82.5573 49.2188 81.9219 49.2188C80.9115 49.2188 80 49.7396 79.1875 50.7812C78.3854 51.8125 77.9844 53.2031 77.9844 54.9531V60.2031H80.0312V61H72.7344V60.2031H74.9531ZM92.0625 42.4688C92.0625 42.0104 92.2292 41.6146 92.5625 41.2812C92.9062 40.9479 93.3073 40.7812 93.7656 40.7812C94.224 40.7812 94.6198 40.9479 94.9531 41.2812C95.2969 41.6042 95.4688 42 95.4688 42.4688C95.4688 42.9583 95.3021 43.3646 94.9688 43.6875C94.6354 44.0104 94.2344 44.1719 93.7656 44.1719C93.2969 44.1719 92.8958 44.0104 92.5625 43.6875C92.2292 43.3542 92.0625 42.9479 92.0625 42.4688ZM95.2031 48.4844V60.2031H97.25V61H89.9844V60.2031H92.1719V49.5156H89.9844V48.7188H92.2031C93.2656 48.7188 94.2656 48.6406 95.2031 48.4844ZM111.922 39.8125V60.2031H114.031V61H112.281C111.177 61 110.01 61.0625 108.781 61.1875V58.625H108.719C107.885 60.4688 106.552 61.3906 104.719 61.3906C103.25 61.3906 101.953 60.7396 100.828 59.4375C99.7135 58.125 99.1562 56.6406 99.1562 54.9844C99.1562 53.2135 99.7448 51.6615 100.922 50.3281C102.109 48.9948 103.505 48.3281 105.109 48.3281C106.745 48.3281 107.948 49.0625 108.719 50.5312H108.781V40.8438H105.938V40.0469H108.781C109.833 40.0469 110.88 39.9688 111.922 39.8125ZM105.203 49.0312C104.068 49.0312 103.354 49.4583 103.062 50.3125C102.781 51.1562 102.641 52.875 102.641 55.4688C102.641 57.7083 102.823 59.1198 103.188 59.7031C103.552 60.2865 104.141 60.5781 104.953 60.5781C105.828 60.5781 106.599 60.2812 107.266 59.6875C107.932 59.0938 108.37 58.4167 108.578 57.6562C108.786 56.8958 108.891 55.6615 108.891 53.9531C108.891 52.3281 108.562 51.1042 107.906 50.2812C107.25 49.4479 106.349 49.0312 105.203 49.0312ZM116.219 54.8281C116.219 53.026 116.839 51.4948 118.078 50.2344C119.318 48.9635 120.854 48.3281 122.688 48.3281C124.479 48.3281 125.995 48.9375 127.234 50.1562C128.484 51.3646 129.109 52.8802 129.109 54.7031C129.109 56.5677 128.464 58.151 127.172 59.4531C125.88 60.7448 124.354 61.3906 122.594 61.3906C120.865 61.3906 119.37 60.7604 118.109 59.5C116.849 58.2292 116.219 56.6719 116.219 54.8281ZM125.594 54.8281C125.594 52.9115 125.526 51.6458 125.391 51.0312C125.266 50.4167 124.974 49.9323 124.516 49.5781C124.068 49.2135 123.448 49.0312 122.656 49.0312C121.906 49.0312 121.286 49.2188 120.797 49.5938C120.318 49.9583 120.021 50.4479 119.906 51.0625C119.792 51.6771 119.734 52.9427 119.734 54.8594C119.734 56.7865 119.802 58.0625 119.938 58.6875C120.083 59.3125 120.391 59.8021 120.859 60.1562C121.339 60.5104 121.938 60.6875 122.656 60.6875C123.385 60.6875 123.99 60.5104 124.469 60.1562C124.958 59.7917 125.266 59.2917 125.391 58.6562C125.526 58.0104 125.594 56.7344 125.594 54.8281ZM139.75 40.0469H157.609L158.156 47.1719H157.359C156.87 44.7865 156.219 43.1354 155.406 42.2188C154.604 41.3021 153.547 40.8438 152.234 40.8438H150.531V60.2031H154.281V61H143.078V60.2031H146.828V40.8438H145.125C143.812 40.8438 142.75 41.3021 141.938 42.2188C141.135 43.1354 140.49 44.7865 140 47.1719H139.203L139.75 40.0469ZM157.844 59.4062C157.844 58.875 158.031 58.4167 158.406 58.0312C158.792 57.6458 159.25 57.4531 159.781 57.4531C160.333 57.4531 160.802 57.6458 161.188 58.0312C161.573 58.4062 161.766 58.8646 161.766 59.4062C161.766 59.9479 161.573 60.4167 161.188 60.8125C160.802 61.1979 160.333 61.3906 159.781 61.3906C159.25 61.3906 158.792 61.1979 158.406 60.8125C158.031 60.4167 157.844 59.9479 157.844 59.4062ZM164.859 40.0469H174.875V40.8438H171.547L176.984 55.625H177.047L182.078 40.8438H178.688V40.0469H186.109V40.8438H182.906L175.875 61.4844H175.453L167.672 40.8438H164.859V40.0469ZM182.406 59.4062C182.406 58.875 182.594 58.4167 182.969 58.0312C183.354 57.6458 183.812 57.4531 184.344 57.4531C184.896 57.4531 185.365 57.6458 185.75 58.0312C186.135 58.4062 186.328 58.8646 186.328 59.4062C186.328 59.9479 186.135 60.4167 185.75 60.8125C185.365 61.1979 184.896 61.3906 184.344 61.3906C183.812 61.3906 183.354 61.1979 182.969 60.8125C182.594 60.4167 182.406 59.9479 182.406 59.4062ZM86.7812 94.75H87.4531C87.1406 96.2604 86.526 97.4115 85.6094 98.2031C84.6927 98.9948 83.5885 99.3906 82.2969 99.3906C80.5365 99.3906 79.0469 98.7396 77.8281 97.4375C76.6094 96.125 76 94.6198 76 92.9219C76 91.1719 76.625 89.6354 77.875 88.3125C79.125 86.9896 80.6771 86.3281 82.5312 86.3281C83.8542 86.3281 84.9323 86.6667 85.7656 87.3438C86.599 88.0104 87.0156 88.7604 87.0156 89.5938C87.0156 90.0104 86.8698 90.3854 86.5781 90.7188C86.2969 91.0521 85.9271 91.2188 85.4688 91.2188C85.0208 91.2188 84.6458 91.0781 84.3438 90.7969C84.0521 90.5156 83.9062 90.1458 83.9062 89.6875C83.9062 89.3646 84.0312 89.0469 84.2812 88.7344C84.5417 88.4219 84.6719 88.2083 84.6719 88.0938C84.6719 87.8125 84.4792 87.5677 84.0938 87.3594C83.7083 87.1406 83.2083 87.0312 82.5938 87.0312C81.5104 87.0312 80.7031 87.3229 80.1719 87.9062C79.651 88.4896 79.3906 89.724 79.3906 91.6094C79.3906 93.4948 79.4375 94.8906 79.5312 95.7969C79.6354 96.6927 79.901 97.401 80.3281 97.9219C80.7552 98.4323 81.4583 98.6875 82.4375 98.6875C84.5 98.6875 85.9479 97.375 86.7812 94.75ZM89.7188 92.8281C89.7188 91.026 90.3385 89.4948 91.5781 88.2344C92.8177 86.9635 94.3542 86.3281 96.1875 86.3281C97.9792 86.3281 99.4948 86.9375 100.734 88.1562C101.984 89.3646 102.609 90.8802 102.609 92.7031C102.609 94.5677 101.964 96.151 100.672 97.4531C99.3802 98.7448 97.8542 99.3906 96.0938 99.3906C94.3646 99.3906 92.8698 98.7604 91.6094 97.5C90.349 96.2292 89.7188 94.6719 89.7188 92.8281ZM99.0938 92.8281C99.0938 90.9115 99.026 89.6458 98.8906 89.0312C98.7656 88.4167 98.474 87.9323 98.0156 87.5781C97.5677 87.2135 96.9479 87.0312 96.1562 87.0312C95.4062 87.0312 94.7865 87.2188 94.2969 87.5938C93.8177 87.9583 93.5208 88.4479 93.4062 89.0625C93.2917 89.6771 93.2344 90.9427 93.2344 92.8594C93.2344 94.7865 93.3021 96.0625 93.4375 96.6875C93.5833 97.3125 93.8906 97.8021 94.3594 98.1562C94.8385 98.5104 95.4375 98.6875 96.1562 98.6875C96.8854 98.6875 97.4896 98.5104 97.9688 98.1562C98.4583 97.7917 98.7656 97.2917 98.8906 96.6562C99.026 96.0104 99.0938 94.7344 99.0938 92.8281ZM107.172 98.2031V87.5156H104.953V86.7188H106.375C107.781 86.7188 109.057 86.6406 110.203 86.4844V89.5312H110.266C111.339 87.3958 112.854 86.3281 114.812 86.3281C115.729 86.3281 116.479 86.5625 117.062 87.0312C117.656 87.5 118.057 88.0521 118.266 88.6875C118.484 89.3229 118.594 90.3073 118.594 91.6406V98.2031H121.031V99H113.469V98.2031H115.547V90.3906C115.547 89.1927 115.469 88.3646 115.312 87.9062C115.167 87.4479 114.776 87.2188 114.141 87.2188C113.13 87.2188 112.219 87.7396 111.406 88.7812C110.604 89.8125 110.203 91.2031 110.203 92.9531V98.2031H112.25V99H104.953V98.2031H107.172ZM58.2188 116.844V137.484H57.5781L43.7812 116.75H43.7188V136.203H47.2656V137H39.8125V136.203H42.9219V116.844H39.5938V116.047H47.5938L57.3594 130.734H57.4219V116.844H53.9531V116.047H61.3906V116.844H58.2188ZM64.0312 130.828C64.0312 129.026 64.651 127.495 65.8906 126.234C67.1302 124.964 68.6667 124.328 70.5 124.328C72.2917 124.328 73.8073 124.938 75.0469 126.156C76.2969 127.365 76.9219 128.88 76.9219 130.703C76.9219 132.568 76.276 134.151 74.9844 135.453C73.6927 136.745 72.1667 137.391 70.4062 137.391C68.6771 137.391 67.1823 136.76 65.9219 135.5C64.6615 134.229 64.0312 132.672 64.0312 130.828ZM73.4062 130.828C73.4062 128.911 73.3385 127.646 73.2031 127.031C73.0781 126.417 72.7865 125.932 72.3281 125.578C71.8802 125.214 71.2604 125.031 70.4688 125.031C69.7188 125.031 69.099 125.219 68.6094 125.594C68.1302 125.958 67.8333 126.448 67.7188 127.062C67.6042 127.677 67.5469 128.943 67.5469 130.859C67.5469 132.786 67.6146 134.062 67.75 134.688C67.8958 135.312 68.2031 135.802 68.6719 136.156C69.151 136.51 69.75 136.688 70.4688 136.688C71.1979 136.688 71.8021 136.51 72.2812 136.156C72.7708 135.792 73.0781 135.292 73.2031 134.656C73.3385 134.01 73.4062 132.734 73.4062 130.828ZM88.0781 124.578V128.078H87.4375C86.9583 126.047 85.7917 125.031 83.9375 125.031C83.1354 125.031 82.4635 125.245 81.9219 125.672C81.3906 126.089 81.125 126.568 81.125 127.109C81.125 127.568 81.3125 127.932 81.6875 128.203C82.0729 128.464 82.974 128.688 84.3906 128.875C87.5052 129.26 89.0625 130.677 89.0625 133.125C89.0625 134.344 88.6562 135.359 87.8438 136.172C87.0417 136.984 86.0417 137.391 84.8438 137.391C83.6667 137.391 82.526 136.906 81.4219 135.938L80.3281 136.875H79.7812V132.266H80.3281C81.224 135.214 82.7292 136.688 84.8438 136.688C85.6458 136.688 86.375 136.432 87.0312 135.922C87.6875 135.411 88.0156 134.812 88.0156 134.125C88.0156 133.552 87.8177 133.12 87.4219 132.828C87.0365 132.536 85.9844 132.266 84.2656 132.016C81.3385 131.589 79.875 130.286 79.875 128.109C79.875 127.036 80.2656 126.141 81.0469 125.422C81.8385 124.693 82.8021 124.328 83.9375 124.328C85.1354 124.328 86.1406 124.724 86.9531 125.516C87.1615 125.297 87.375 124.984 87.5938 124.578H88.0781ZM91.7188 130.828C91.7188 129.026 92.3385 127.495 93.5781 126.234C94.8177 124.964 96.3542 124.328 98.1875 124.328C99.9792 124.328 101.495 124.938 102.734 126.156C103.984 127.365 104.609 128.88 104.609 130.703C104.609 132.568 103.964 134.151 102.672 135.453C101.38 136.745 99.8542 137.391 98.0938 137.391C96.3646 137.391 94.8698 136.76 93.6094 135.5C92.349 134.229 91.7188 132.672 91.7188 130.828ZM101.094 130.828C101.094 128.911 101.026 127.646 100.891 127.031C100.766 126.417 100.474 125.932 100.016 125.578C99.5677 125.214 98.9479 125.031 98.1562 125.031C97.4062 125.031 96.7865 125.219 96.2969 125.594C95.8177 125.958 95.5208 126.448 95.4062 127.062C95.2917 127.677 95.2344 128.943 95.2344 130.859C95.2344 132.786 95.3021 134.062 95.4375 134.688C95.5833 135.312 95.8906 135.802 96.3594 136.156C96.8385 136.51 97.4375 136.688 98.1562 136.688C98.8854 136.688 99.4896 136.51 99.9688 136.156C100.458 135.792 100.766 135.292 100.891 134.656C101.026 134.01 101.094 132.734 101.094 130.828ZM112.594 121.156V124.719H116.297V125.516H112.594V133.25C112.594 134.385 112.667 135.161 112.812 135.578C112.969 135.995 113.375 136.203 114.031 136.203C114.531 136.203 115.01 136.036 115.469 135.703C115.938 135.37 116.292 134.854 116.531 134.156H117.203C116.724 136.177 115.271 137.188 112.844 137.188C111.823 137.188 111.073 137.005 110.594 136.641C110.115 136.266 109.818 135.807 109.703 135.266C109.599 134.724 109.547 133.99 109.547 133.062V125.516H106.766V124.719H109.547V121.422C110.578 121.422 111.594 121.333 112.594 121.156ZM121.141 136.203V125.516H118.609V124.719H121.172C122.484 124.719 123.484 124.651 124.172 124.516V127.469H124.234C124.964 125.5 126.042 124.516 127.469 124.516C128.094 124.516 128.594 124.708 128.969 125.094C129.354 125.469 129.547 125.927 129.547 126.469C129.547 126.969 129.391 127.375 129.078 127.688C128.776 127.99 128.38 128.141 127.891 128.141C126.995 128.141 126.547 127.693 126.547 126.797L126.609 126.125C126.609 125.885 126.5 125.766 126.281 125.766C125.938 125.766 125.5 126.229 124.969 127.156C124.438 128.083 124.172 129.5 124.172 131.406V136.203H126.766V137H118.609V136.203H121.141ZM131.406 130.828C131.406 129.026 132.026 127.495 133.266 126.234C134.505 124.964 136.042 124.328 137.875 124.328C139.667 124.328 141.182 124.938 142.422 126.156C143.672 127.365 144.297 128.88 144.297 130.703C144.297 132.568 143.651 134.151 142.359 135.453C141.068 136.745 139.542 137.391 137.781 137.391C136.052 137.391 134.557 136.76 133.297 135.5C132.036 134.229 131.406 132.672 131.406 130.828ZM140.781 130.828C140.781 128.911 140.714 127.646 140.578 127.031C140.453 126.417 140.161 125.932 139.703 125.578C139.255 125.214 138.635 125.031 137.844 125.031C137.094 125.031 136.474 125.219 135.984 125.594C135.505 125.958 135.208 126.448 135.094 127.062C134.979 127.677 134.922 128.943 134.922 130.859C134.922 132.786 134.99 134.062 135.125 134.688C135.271 135.312 135.578 135.802 136.047 136.156C136.526 136.51 137.125 136.688 137.844 136.688C138.573 136.688 139.177 136.51 139.656 136.156C140.146 135.792 140.453 135.292 140.578 134.656C140.714 134.01 140.781 132.734 140.781 130.828ZM155.453 124.578V128.078H154.812C154.333 126.047 153.167 125.031 151.312 125.031C150.51 125.031 149.839 125.245 149.297 125.672C148.766 126.089 148.5 126.568 148.5 127.109C148.5 127.568 148.688 127.932 149.062 128.203C149.448 128.464 150.349 128.688 151.766 128.875C154.88 129.26 156.438 130.677 156.438 133.125C156.438 134.344 156.031 135.359 155.219 136.172C154.417 136.984 153.417 137.391 152.219 137.391C151.042 137.391 149.901 136.906 148.797 135.938L147.703 136.875H147.156V132.266H147.703C148.599 135.214 150.104 136.688 152.219 136.688C153.021 136.688 153.75 136.432 154.406 135.922C155.062 135.411 155.391 134.812 155.391 134.125C155.391 133.552 155.193 133.12 154.797 132.828C154.411 132.536 153.359 132.266 151.641 132.016C148.714 131.589 147.25 130.286 147.25 128.109C147.25 127.036 147.641 126.141 148.422 125.422C149.214 124.693 150.177 124.328 151.312 124.328C152.51 124.328 153.516 124.724 154.328 125.516C154.536 125.297 154.75 124.984 154.969 124.578H155.453Z" fill="white"/>
</svg>
