<svg width="1440" height="810" viewBox="0 0 1440 810" fill="none" xmlns="http://www.w3.org/2000/svg">
<path fill-rule="evenodd" clip-rule="evenodd" d="M689.123 242.61C778.695 242.61 851.295 315.21 851.295 404.783C851.295 494.355 778.695 567 689.123 567C599.55 567 526.943 494.355 526.943 404.783C526.943 315.21 599.55 242.61 689.123 242.61Z" fill="#FAAB22"/>
<path fill-rule="evenodd" clip-rule="evenodd" d="M599.7 330.975H768.36V289.658C768.346 289.598 768.346 289.537 768.36 289.478C768.309 287.955 768.078 286.445 767.67 284.978C767.365 283.899 766.818 282.904 766.073 282.068C765.27 281.28 764.294 280.692 763.223 280.35H763.133C761.548 279.854 759.902 279.581 758.243 279.54H758.25H676.387C675.457 282.783 673.601 285.683 671.048 287.888C667.992 290.502 664.104 291.938 660.083 291.938H562.012C557.53 291.93 553.233 290.148 550.06 286.982C546.886 283.816 545.095 279.523 545.078 275.04C545.087 270.551 546.875 266.248 550.048 263.073C553.222 259.898 557.523 258.109 562.012 258.098H660.083C664.104 258.099 667.993 259.538 671.048 262.155C673.603 264.358 675.459 267.259 676.387 270.503H758.25H758.49H758.76C761.464 270.594 764.137 271.1 766.688 272.003C768.961 272.81 771.015 274.135 772.688 275.873C774.303 277.609 775.514 279.681 776.235 281.94C776.987 284.342 777.392 286.84 777.435 289.358C777.435 289.478 777.435 289.598 777.435 289.688V330.975H862.74C863.337 330.975 863.909 331.212 864.331 331.634C864.753 332.056 864.99 332.628 864.99 333.225V349.103H881.385L909.038 324C909.256 323.8 909.512 323.645 909.791 323.544C910.07 323.443 910.366 323.398 910.662 323.412C910.959 323.426 911.249 323.499 911.517 323.625C911.786 323.752 912.026 323.93 912.225 324.15C912.586 324.567 912.786 325.099 912.788 325.65V466.245C912.788 466.842 912.55 467.414 912.129 467.836C911.707 468.258 911.134 468.495 910.538 468.495C910.221 468.495 909.907 468.429 909.617 468.3C909.328 468.17 909.069 467.981 908.858 467.745L880.695 442.245H864.945V514.05C864.945 514.647 864.708 515.219 864.286 515.641C863.864 516.063 863.292 516.3 862.695 516.3H599.7C599.103 516.3 598.531 516.063 598.109 515.641C597.687 515.219 597.45 514.647 597.45 514.05V333.233C597.45 332.636 597.687 332.063 598.109 331.642C598.531 331.22 599.103 330.983 599.7 330.983V330.975ZM749.625 391.838H622.035V455.438H749.625V391.838ZM817.035 399.233C815.328 397.52 813.225 396.255 810.912 395.55C808.599 394.846 806.148 394.723 803.776 395.192C801.404 395.662 799.184 396.71 797.314 398.243C795.445 399.776 793.982 401.746 793.056 403.98C792.13 406.214 791.77 408.641 792.008 411.048C792.245 413.454 793.073 415.765 794.417 417.774C795.762 419.784 797.581 421.431 799.715 422.569C801.848 423.707 804.23 424.301 806.648 424.298C809.55 424.294 812.386 423.431 814.798 421.817C817.211 420.203 819.091 417.911 820.202 415.23C821.313 412.549 821.606 409.599 821.042 406.752C820.478 403.904 819.084 401.288 817.035 399.233ZM799.86 440.31H773.288V452.31H799.86V440.31ZM840.008 440.31H813.427V452.31H840L840.008 440.31Z" fill="#999999"/>
</svg>
