<svg width="522" height="428" viewBox="0 0 522 428" fill="none" xmlns="http://www.w3.org/2000/svg">
<path d="M503.306 304.061L488.818 296.182L488.92 243.557L503.401 251.436L503.306 304.061Z" fill="#191C21"/>
<path d="M481.345 289.529L466.864 281.65L466.87 277.386L481.352 285.265L481.345 289.529Z" fill="#212121"/>
<path d="M488.271 276.109L473.79 268.23L473.796 263.966L488.278 271.846L488.271 276.109Z" fill="#212121"/>
<path d="M419.797 372.114L405.316 364.26C405.706 364.265 406.094 364.317 406.472 364.413L420.96 372.292C420.58 372.195 420.19 372.144 419.797 372.14" fill="#20242A"/>
<path d="M420.96 372.267L406.472 364.388C406.786 364.469 407.09 364.582 407.381 364.724L421.862 372.604C421.575 372.459 421.272 372.346 420.96 372.267" fill="#1F2329"/>
<path d="M421.862 372.604L407.381 364.724L407.552 364.813L422.04 372.693C421.983 372.659 421.924 372.629 421.862 372.604" fill="#1E2128"/>
<path d="M463.083 292.096L448.601 284.217L466.864 281.65L481.345 289.529L463.083 292.096Z" fill="#2D2D2D"/>
<path d="M463.089 287.832L448.608 279.953L466.87 277.386L481.352 285.265L463.089 287.832Z" fill="#717171"/>
<path d="M463.083 292.096L448.601 284.217L448.608 279.953L463.089 287.833L463.083 292.096Z" fill="#525252"/>
<path d="M481.352 285.266L481.345 289.529L463.083 292.096L463.089 287.833L481.352 285.266Z" fill="#8C8C8C"/>
<path d="M463.108 279.648L448.62 271.769L473.79 268.23L488.271 276.109L463.108 279.648Z" fill="#2D2D2D"/>
<path d="M488.278 271.845L488.271 276.109L463.108 279.648L463.115 275.385L488.278 271.845Z" fill="#DFDFDF"/>
<path d="M463.108 279.648L448.62 271.769L448.633 267.506L463.115 275.385L463.108 279.648Z" fill="#828282"/>
<path d="M463.115 275.385L448.633 267.506L473.796 263.966L488.278 271.845L463.115 275.385Z" fill="#B4B4B4"/>
<path d="M453.399 297.396L438.917 289.516L438.962 263.28L453.45 271.166L453.399 297.396Z" fill="#212121"/>
<path d="M399.324 356.381L384.842 348.502C385.411 348.452 385.984 348.497 386.539 348.636L401.02 356.515C400.466 356.376 399.893 356.331 399.324 356.381" fill="#23303F"/>
<path d="M401.02 356.515L386.539 348.635C386.852 348.717 387.156 348.83 387.447 348.972L401.929 356.851C401.638 356.709 401.333 356.596 401.02 356.515" fill="#222F3D"/>
<path d="M401.929 356.852L387.447 348.972L387.619 349.061L402.1 356.941L401.929 356.852Z" fill="#212D3C"/>
<path d="M421.939 301.818L407.457 293.939L438.917 289.516L453.399 297.396L421.939 301.818Z" fill="#2D2D2D"/>
<path d="M421.99 275.582L407.502 267.703L438.962 263.286L453.45 271.166L421.99 275.582Z" fill="#717171"/>
<path d="M421.939 301.818L407.457 293.939L407.502 267.703L421.989 275.582L421.939 301.818Z" fill="#525252"/>
<path d="M386.265 302.892L371.784 295.013L371.79 290.749L386.272 298.628L386.265 302.892Z" fill="#212121"/>
<path d="M393.185 289.472L378.704 281.593L378.71 277.329L393.192 285.208L393.185 289.472Z" fill="#212121"/>
<path d="M367.997 305.459L353.515 297.58L371.784 295.013L386.266 302.892L367.997 305.459Z" fill="#2D2D2D"/>
<path d="M368.003 301.195L353.522 293.316L371.79 290.749L386.272 298.628L368.003 301.195Z" fill="#717171"/>
<path d="M386.272 298.628L386.265 302.892L367.997 305.459L368.003 301.196L386.272 298.628Z" fill="#8C8C8C"/>
<path d="M367.997 305.459L353.515 297.58L353.522 293.316L368.003 301.195L367.997 305.459Z" fill="#525252"/>
<path d="M368.016 293.011L353.534 285.132L378.704 281.593L393.185 289.472L368.016 293.011Z" fill="#2D2D2D"/>
<path d="M368.016 293.011L353.534 285.132L353.541 280.868L368.029 288.748L368.016 293.011Z" fill="#828282"/>
<path d="M368.029 288.748L353.541 280.868L378.71 277.329L393.192 285.208L368.029 288.748Z" fill="#B4B4B4"/>
<path d="M360.658 310.428L346.176 302.549L346.227 276.319L360.708 284.198L360.658 310.428Z" fill="#212121"/>
<path d="M329.204 314.85L314.716 306.971L346.176 302.549L360.658 310.428L329.204 314.85Z" fill="#2D2D2D"/>
<path d="M329.248 288.614L314.767 280.741L346.227 276.319L360.708 284.198L329.248 288.614Z" fill="#717171"/>
<path d="M329.204 314.851L314.716 306.971L314.767 280.741L329.248 288.614L329.204 314.851Z" fill="#525252"/>
<path d="M360.708 284.198L360.658 310.428L329.204 314.85L329.248 288.614L360.708 284.198Z" fill="#8C8C8C"/>
<path d="M284.247 355.225L269.759 347.346L273.889 332.108L288.377 339.988L284.247 355.225Z" fill="#1B1E23"/>
<path d="M293.524 315.924L279.036 308.045L279.049 303.781L293.531 311.661L293.524 315.924Z" fill="#212121"/>
<path d="M300.45 302.504L285.963 294.632L285.975 290.362L300.457 298.247L300.45 302.504Z" fill="#212121"/>
<path d="M275.262 318.491L260.774 310.612L279.036 308.045L293.524 315.924L275.262 318.491Z" fill="#2D2D2D"/>
<path d="M275.268 314.228L260.787 306.349L279.049 303.781L293.531 311.661L275.268 314.228Z" fill="#717171"/>
<path d="M275.262 318.491L260.774 310.612L260.787 306.349L275.268 314.228L275.262 318.491Z" fill="#525252"/>
<path d="M293.531 311.661L293.524 315.924L275.262 318.491L275.268 314.228L293.531 311.661Z" fill="#8C8C8C"/>
<path d="M275.281 306.044L260.8 298.165L285.963 294.632L300.45 302.504L275.281 306.044Z" fill="#2D2D2D"/>
<path d="M275.281 306.044L260.8 298.165L260.806 293.901L275.294 301.78L275.281 306.044Z" fill="#828282"/>
<path d="M300.457 298.247L300.45 302.504L275.281 306.044L275.294 301.78L300.457 298.247Z" fill="#DFDFDF"/>
<path d="M275.294 301.78L260.806 293.901L285.975 290.362L300.457 298.247L275.294 301.78Z" fill="#B4B4B4"/>
<path d="M252.202 359.73L237.721 351.851L233.641 337.764L248.129 345.643L252.202 359.73Z" fill="#191B20"/>
<path d="M248.129 345.643L233.641 337.764L273.889 332.108L288.377 339.988L248.129 345.643Z" fill="#23262D"/>
<path d="M265.572 323.791L251.09 315.912L251.135 289.682L265.622 297.561L265.572 323.791Z" fill="#212121"/>
<path d="M235.268 341.729L220.786 333.856L488.818 296.182L503.306 304.061L235.268 341.729Z" fill="#23262D"/>
<path d="M246.038 300.312L231.557 292.433L251.135 289.682L265.622 297.561L246.038 300.312Z" fill="#717171"/>
<path d="M249.47 287.121L503.401 251.436L503.306 304.061L235.268 341.728L238.96 327.533L265.572 323.791L265.622 297.561L246.038 300.312L249.47 287.121ZM453.399 297.395L453.45 271.159L421.989 275.607L421.939 301.843L453.399 297.395ZM360.626 310.428L360.677 284.198L329.248 288.646L329.204 314.882L360.658 310.434L360.626 310.428ZM393.185 289.465V285.202L368.022 288.741V293.005L393.192 289.465H393.185ZM488.278 276.122V271.858L463.115 275.397V279.661L488.278 276.122ZM300.45 302.504V298.241L275.287 301.78V306.043L300.457 302.504H300.45ZM386.24 302.892V298.628L367.971 301.17V305.433L386.24 302.892ZM481.32 289.548V285.284L463.051 287.826V292.09L481.313 289.548H481.32ZM293.524 315.924V311.661L275.262 314.202V318.51L293.524 315.969" fill="#383838"/>
<path d="M453.45 271.166L453.399 297.396L421.939 301.818L421.989 275.582L453.45 271.166Z" fill="#8C8C8C"/>
<path d="M368.181 371.199L353.693 363.32L405.316 364.235L419.797 372.114L368.181 371.199Z" fill="#22262C"/>
<path d="M393.192 285.208L393.185 289.472L368.016 293.011L368.029 288.748L393.192 285.208Z" fill="#DFDFDF"/>
<path d="M503.401 251.436L488.919 243.557L489.332 20.3158L503.814 28.195L503.401 251.436Z" fill="#191C21"/>
<path d="M513.085 8.30642L498.597 0.427254C499.599 0.280943 500.621 0.332756 501.603 0.579754L516.084 8.45892C515.104 8.2121 514.085 8.16029 513.085 8.30642" fill="#20242A"/>
<path d="M516.084 8.45888L501.59 0.579712C502.063 0.703402 502.523 0.873679 502.963 1.08805L517.476 8.96721C517.037 8.75084 516.577 8.58049 516.103 8.45888" fill="#1F2329"/>
<path d="M517.476 8.9673L502.994 1.08813L503.255 1.22157L517.743 9.10074L517.476 8.9673Z" fill="#1E2128"/>
<path d="M280.339 369.649L368.181 371.199L419.797 372.114C422.936 372.165 425.097 375.005 424.633 378.469C424.213 381.607 421.754 384.187 418.952 384.562C418.674 384.601 418.394 384.618 418.113 384.613L276.958 382.129L280.339 369.649Z" fill="#2B2F38"/>
<path d="M280.339 369.649L265.851 361.776L353.693 363.32L368.181 371.199L280.339 369.649Z" fill="#22262C"/>
<path d="M276.959 382.122L262.477 374.243L265.851 361.776L280.339 369.649L276.959 382.122Z" fill="#1B1E23"/>
<path d="M280.339 369.649L265.851 361.776L266.989 357.589L281.47 365.468L280.339 369.649Z" fill="#1D2835"/>
<path d="M281.47 365.468L399.324 356.381C402.501 356.115 404.922 358.675 404.757 362.1C404.598 365.43 402.062 368.365 399.038 368.791L398.739 368.829L368.2 371.18L280.358 369.63L281.47 365.468Z" fill="#2E4054"/>
<path d="M281.47 365.468L266.989 357.589L384.842 348.502L399.324 356.381L281.47 365.468Z" fill="#253344"/>
<path d="M259.395 384.594L244.907 376.715L241.571 365.188L256.059 373.061L259.395 384.594Z" fill="#191B20"/>
<path d="M256.059 373.061L241.571 365.188L240.459 361.318L254.941 369.198L256.059 373.061Z" fill="#191B20"/>
<path d="M254.941 369.198L240.459 361.319L237.721 351.851L252.202 359.73L254.941 369.198Z" fill="#191B20"/>
<path d="M288.377 339.988L284.247 355.238L281.47 365.48L280.339 369.661L276.959 382.135C274.069 382.091 271.181 382.282 268.323 382.707C265.315 383.122 262.341 383.759 259.427 384.613L256.091 373.08L254.973 369.217L252.234 359.749L248.161 345.662L288.377 339.988Z" fill="#2B2F38"/>
<path d="M229.771 362.882L215.284 355.003L220.786 333.856L235.268 341.729L229.771 362.882Z" fill="#1B1D23"/>
<path d="M235.268 341.729L220.786 333.856L224.478 319.654L238.96 327.533L235.268 341.729Z" fill="#232323"/>
<path d="M238.96 327.533L224.478 319.654L251.09 315.912L265.572 323.791L238.96 327.533Z" fill="#2D2D2D"/>
<path d="M234.118 328.213L219.63 320.334L224.478 319.654L238.96 327.533L234.118 328.213Z" fill="#3B3B3B"/>
<path d="M265.622 297.561L265.572 323.791L238.96 327.533L246.038 300.312L265.622 297.561Z" fill="#8C8C8C"/>
<path d="M238.96 327.534L224.478 319.654L231.557 292.433L246.038 300.312L238.96 327.534Z" fill="#575757"/>
<path d="M249.47 287.121L234.988 279.242L488.92 243.557L503.401 251.436L249.47 287.121Z" fill="#2D2D2D"/>
<path d="M246.038 300.312L231.557 292.433L234.988 279.242L249.47 287.121L246.038 300.312Z" fill="#232323"/>
<path d="M234.118 328.213L219.63 320.334L219.681 294.104L234.162 301.983L234.118 328.213Z" fill="#575757"/>
<path d="M246.038 300.312L238.96 327.534L234.118 328.213L234.162 301.983L246.038 300.312Z" fill="#949494"/>
<path d="M234.162 301.983L219.681 294.104L231.557 292.433L246.038 300.312L234.162 301.983Z" fill="#787878"/>
<path d="M168.166 399.31L153.678 391.431L241.571 365.188L256.059 373.061L168.166 399.31Z" fill="#23262D"/>
<path d="M198.432 329.287L183.944 321.414L183.957 317.151L198.438 325.023L198.432 329.287Z" fill="#2A2A2A"/>
<path d="M205.358 315.874L190.87 307.994L190.877 303.731L205.364 311.61L205.358 315.874Z" fill="#2A2A2A"/>
<path d="M180.17 331.854L165.682 323.975L183.944 321.414L198.432 329.287L180.17 331.854Z" fill="#3B3B3B"/>
<path d="M180.176 327.591L165.688 319.711L183.957 317.151L198.438 325.023L180.176 327.591Z" fill="#787878"/>
<path d="M180.17 331.854L165.682 323.975L165.688 319.711L180.176 327.591L180.17 331.854Z" fill="#575757"/>
<path d="M180.189 319.406L165.707 311.527L190.87 307.994L205.358 315.874L180.189 319.406Z" fill="#3B3B3B"/>
<path d="M180.201 315.143L165.713 307.264L190.877 303.731L205.364 311.61L180.201 315.143Z" fill="#B4B4B4"/>
<path d="M205.364 311.61L205.358 315.873L180.189 319.406L180.201 315.143L205.364 311.61Z" fill="#DFDFDF"/>
<path d="M180.189 319.406L165.707 311.527L165.713 307.264L180.201 315.143L180.189 319.406Z" fill="#828282"/>
<path d="M139.07 315.346L124.588 307.467L156.042 303.044L170.53 310.924L139.07 315.346Z" fill="#787878"/>
<path d="M139.019 341.576L124.537 333.697L124.588 307.467L139.07 315.346L139.019 341.576Z" fill="#575757"/>
<path d="M139.019 341.576L124.537 333.697L124.588 307.467L139.07 315.346L139.019 341.576Z" fill="#2A2A2A"/>
<path d="M139.07 315.346L124.588 307.467L156.042 303.044L170.53 310.924L139.07 315.346Z" fill="#3B3B3B"/>
<path d="M170.479 337.154L139.019 341.576L139.07 315.346L170.53 310.924L170.479 337.154Z" fill="#484848"/>
<path d="M103.339 342.656L88.858 334.777L88.8643 330.513L103.352 338.393L103.339 342.656Z" fill="#2A2A2A"/>
<path d="M110.266 329.236L95.7842 321.357L95.7905 317.094L110.278 324.973L110.266 329.236Z" fill="#2A2A2A"/>
<path d="M85.0771 345.217L70.5956 337.338L88.8579 334.777L103.339 342.656L85.0771 345.217Z" fill="#3B3B3B"/>
<path d="M103.352 338.393L103.339 342.656L85.0771 345.217L85.0899 340.96L103.352 338.393Z" fill="#949494"/>
<path d="M85.0898 340.96L70.602 333.08L88.8643 330.513L103.352 338.393L85.0898 340.96Z" fill="#787878"/>
<path d="M85.0771 345.217L70.5956 337.338L70.602 333.081L85.0898 340.96L85.0771 345.217Z" fill="#575757"/>
<path d="M85.1025 332.769L70.621 324.89L95.7842 321.357L110.266 329.236L85.1025 332.769Z" fill="#3B3B3B"/>
<path d="M85.1089 328.506L70.6274 320.626L95.7905 317.094L110.278 324.973L85.1089 328.506Z" fill="#B4B4B4"/>
<path d="M85.1025 332.769L70.621 324.89L70.6274 320.626L85.1089 328.506L85.1025 332.769Z" fill="#828282"/>
<path d="M110.278 324.973L110.266 329.236L85.1025 332.769L85.1089 328.506L110.278 324.973Z" fill="#DFDFDF"/>
<path d="M33.2195 370.126L18.738 362.246L220.786 333.856L235.268 341.729L33.2195 370.126Z" fill="#4F4F4F"/>
<path d="M33.2132 370.125L18.7317 362.252L220.786 333.849L235.268 341.729L33.2132 370.125Z" fill="#31343B"/>
<path d="M43.9329 354.939L29.4515 347.06L29.5023 320.83L43.9838 328.709L43.9329 354.939Z" fill="#575757"/>
<path d="M75.4377 324.286L75.3932 350.523L43.9329 354.939L43.9838 328.709L75.4377 324.286Z" fill="#949494"/>
<path d="M43.9838 328.709L29.5023 320.83L60.9561 316.407L75.4377 324.286L43.9838 328.709Z" fill="#787878"/>
<path d="M43.9329 354.939L29.4515 347.06L29.5023 320.83L43.9838 328.709L43.9329 354.939Z" fill="#2A2A2A"/>
<path d="M43.9838 328.709L29.5023 320.83L60.9561 316.407L75.4377 324.286L43.9838 328.709Z" fill="#3B3B3B"/>
<path d="M75.3932 350.523L43.9329 354.939L43.9838 328.709L75.4377 324.286L75.3932 350.523Z" fill="#484848"/>
<path d="M246.038 300.312L234.162 301.99L234.111 328.226L238.96 327.546L235.268 341.741L33.2005 370.138L33.2958 317.513L249.47 287.121L246.038 300.312ZM110.266 329.236V324.973L85.0962 328.506V332.769L110.259 329.236H110.266ZM205.352 315.893V311.629L180.182 315.162V319.425L205.352 315.893V315.893ZM103.339 342.656V338.393L85.0771 340.934V345.192L103.339 342.65V342.656ZM198.432 329.306V325.043L180.169 327.584V331.854L198.432 329.312" fill="#484848"/>
<path d="M198.438 325.023L198.432 329.287L180.169 331.854L180.176 327.591L198.438 325.023Z" fill="#949494"/>
<path d="M137.056 393.242L122.574 385.363L240.459 361.318L254.941 369.198L137.056 393.242Z" fill="#263444"/>
<path d="M116.518 414.732L102.03 406.852L153.678 391.431L168.166 399.31L116.518 414.732Z" fill="#23262D"/>
<path d="M134.253 405.061L119.772 397.182C118.972 396.719 118.307 396.056 117.841 395.259C117.375 394.461 117.125 393.556 117.116 392.632C117.076 391.697 117.223 390.764 117.548 389.887L132.036 397.766C131.711 398.644 131.562 399.576 131.597 400.511C131.607 401.435 131.857 402.34 132.322 403.138C132.788 403.936 133.454 404.598 134.253 405.061" fill="#1C2632"/>
<path d="M132.036 397.766L117.548 389.887C117.673 389.554 117.82 389.229 117.986 388.915L132.468 396.794C132.301 397.107 132.156 397.432 132.036 397.766" fill="#1D2734"/>
<path d="M132.468 396.794L117.986 388.915C118.127 388.651 118.284 388.397 118.456 388.152L132.938 396.032C132.766 396.276 132.609 396.531 132.468 396.794" fill="#1E2936"/>
<path d="M132.938 396.031L118.456 388.152C118.614 387.93 118.786 387.718 118.971 387.517L133.459 395.396C133.274 395.598 133.1 395.81 132.938 396.031" fill="#1F2A38"/>
<path d="M133.459 395.396L118.971 387.517C119.155 387.309 119.35 387.112 119.556 386.926L134.044 394.805C133.836 394.989 133.641 395.187 133.459 395.396Z" fill="#202C3A"/>
<path d="M134.044 394.761L119.556 386.881C119.775 386.681 120.009 386.496 120.255 386.329L134.736 394.208C134.493 394.376 134.261 394.56 134.044 394.761" fill="#212D3C"/>
<path d="M134.736 394.233L120.255 386.354C120.547 386.152 120.855 385.973 121.176 385.82L135.664 393.699C135.341 393.853 135.031 394.031 134.736 394.233Z" fill="#222F3D"/>
<path d="M135.664 393.699L121.176 385.82C121.621 385.611 122.091 385.457 122.574 385.363L137.055 393.242C136.574 393.334 136.106 393.487 135.664 393.699Z" fill="#23303F"/>
<path d="M254.941 369.198L256.059 373.061L168.166 399.31L137.615 405.563C137.516 405.586 137.417 405.603 137.316 405.613C134.279 406.046 131.743 403.822 131.597 400.53C131.451 397.131 133.891 393.877 137.055 393.261L254.941 369.198Z" fill="#2E4054"/>
<path d="M503.814 28.1949L503.401 251.436L249.47 287.121L309.702 55.4734L503.814 28.1949Z" fill="#545454"/>
<path d="M309.702 55.4734L295.221 47.5942L489.333 20.3158L503.814 28.195L309.702 55.4734Z" fill="#444444"/>
<path d="M249.47 287.121L234.988 279.242L295.221 47.5942L309.702 55.4734L249.47 287.121Z" fill="#343434"/>
<path d="M114.256 426.417L99.7746 418.538C99.0561 418.13 98.4449 417.558 97.9919 416.867C97.5388 416.176 97.2568 415.388 97.1694 414.566C97.0241 413.444 97.1549 412.303 97.5506 411.243L112.032 419.122C111.636 420.183 111.506 421.323 111.651 422.446C111.741 423.266 112.024 424.054 112.477 424.744C112.929 425.434 113.539 426.008 114.256 426.417" fill="#191C21"/>
<path d="M112.032 419.122L97.5507 411.243C97.6719 410.906 97.8185 410.579 97.9891 410.265L112.471 418.144C112.305 418.461 112.159 418.788 112.032 419.122" fill="#1A1D23"/>
<path d="M112.471 418.144L97.9891 410.265C98.13 410.003 98.287 409.751 98.4593 409.509L112.941 417.388C112.771 417.631 112.614 417.884 112.471 418.144Z" fill="#1B1E24"/>
<path d="M112.941 417.388L98.4594 409.508C98.6174 409.286 98.7893 409.074 98.9741 408.873L113.456 416.752C113.271 416.953 113.099 417.165 112.941 417.388" fill="#1C1F25"/>
<path d="M113.456 416.733L98.9741 408.854C99.1554 408.646 99.3485 408.449 99.5523 408.263L114.04 416.142C113.834 416.328 113.639 416.525 113.456 416.733" fill="#1D2026"/>
<path d="M114.04 416.142L99.5522 408.263C99.7731 408.069 100.004 407.886 100.245 407.717L114.726 415.596C114.487 415.764 114.257 415.946 114.04 416.142" fill="#1E2128"/>
<path d="M114.726 415.596L100.245 407.717C100.539 407.513 100.849 407.334 101.173 407.183L115.654 415.094C115.331 415.247 115.021 415.425 114.726 415.628" fill="#1F2329"/>
<path d="M115.654 415.094L101.173 407.215C101.451 407.086 101.738 406.976 102.03 406.884L116.518 414.763C116.223 414.854 115.934 414.964 115.654 415.094" fill="#20242A"/>
<path d="M256.059 373.061L259.395 384.594L118.158 426.76C117.881 426.844 117.599 426.908 117.313 426.951C114.517 427.338 112.07 425.464 111.651 422.446C111.454 420.797 111.83 419.13 112.716 417.725C113.603 416.321 114.945 415.264 116.518 414.732L168.166 399.31L256.059 373.061Z" fill="#2B2F38"/>
<path d="M314.716 36.1821L300.234 28.303L498.604 0.427246L513.085 8.30641L314.716 36.1821Z" fill="#23262D"/>
<path d="M309.702 55.4734L295.221 47.5942L300.234 28.303L314.716 36.1821L309.702 55.4734Z" fill="#1B1D23"/>
<path d="M170.53 310.924L170.479 337.154L139.019 341.576L139.07 315.346L170.53 310.924Z" fill="#949494"/>
<path d="M33.7279 94.2592L19.2464 86.3801L295.221 47.5942L309.702 55.4734L33.7279 94.2592Z" fill="#4F4F4F"/>
<path d="M271.564 53.0779L257.076 45.1987C257.226 44.7917 257.303 44.3616 257.305 43.9279C257.329 43.4187 257.213 42.9125 256.97 42.4644C256.727 42.0164 256.366 41.6434 255.926 41.3862L270.414 49.2654C270.853 49.5237 271.213 49.8968 271.456 50.3446C271.699 50.7925 271.815 51.2981 271.792 51.8071C271.791 52.2408 271.714 52.6709 271.564 53.0779" fill="#24262B"/>
<path d="M267.287 55.2129L252.799 47.3337C252.95 47.4079 253.108 47.4674 253.27 47.5117L267.757 55.3908C267.595 55.3487 267.437 55.2891 267.287 55.2129" fill="#2D2F35"/>
<path d="M267.192 55.1683L252.71 47.2892L252.799 47.3337L267.287 55.2128L267.192 55.1683Z" fill="#2B2E33"/>
<path d="M267.288 55.2132L252.8 47.334C252.951 47.4081 253.108 47.4677 253.27 47.5119L267.758 55.3911C267.595 55.349 267.438 55.2893 267.288 55.2132" fill="#2D2F35"/>
<path d="M267.287 55.2129L252.799 47.3337C252.95 47.4079 253.108 47.4674 253.27 47.5117L267.757 55.3908C267.595 55.3487 267.437 55.2891 267.287 55.2129" fill="#2D2F35"/>
<path d="M267.751 55.3909L253.263 47.5117C253.602 47.596 253.954 47.6133 254.299 47.5625C254.598 47.5172 254.889 47.4295 255.163 47.302L269.651 55.1812C269.375 55.3093 269.082 55.397 268.781 55.4417C268.437 55.4926 268.088 55.4753 267.751 55.3909" fill="#2E3137"/>
<path d="M269.657 55.1811L255.17 47.3019C255.339 47.225 255.501 47.1313 255.652 47.0223L270.14 54.9015C269.986 55.0055 269.825 55.0989 269.657 55.1811Z" fill="#2D2F35"/>
<path d="M270.14 54.9015L255.678 47.0224C255.805 46.9384 255.927 46.8449 256.04 46.7428L270.522 54.6156C270.411 54.7201 270.292 54.8157 270.166 54.9015" fill="#2B2E33"/>
<path d="M270.496 54.6156L256.015 46.7428C256.116 46.6411 256.218 46.5394 256.313 46.4314L270.801 54.3106C270.706 54.4185 270.604 54.5204 270.496 54.6156" fill="#2A2C32"/>
<path d="M270.801 54.3105L256.313 46.4314C256.409 46.3248 256.498 46.2123 256.58 46.0946L271.068 53.9738C270.985 54.0882 270.897 54.2025 270.801 54.3105" fill="#292B30"/>
<path d="M271.068 53.9738L256.58 46.0946C256.669 45.9676 256.752 45.8341 256.828 45.7007L271.31 53.5798C271.233 53.7133 271.157 53.8467 271.068 53.9738Z" fill="#27292E"/>
<path d="M271.31 53.5799L256.828 45.7007C256.912 45.5381 256.987 45.3705 257.05 45.1987L271.564 53.0779C271.5 53.2509 271.424 53.4187 271.335 53.5799" fill="#26282D"/>
<path d="M271.564 53.0779L257.076 45.1987C257.226 44.7917 257.303 44.3616 257.305 43.9279C257.329 43.4187 257.213 42.9125 256.97 42.4644C256.727 42.0164 256.366 41.6434 255.926 41.3862L270.414 49.2654C270.853 49.5237 271.213 49.8968 271.456 50.3446C271.699 50.7925 271.815 51.2981 271.792 51.8071C271.791 52.2408 271.714 52.6709 271.564 53.0779" fill="#24262B"/>
<path d="M268.8 49.0112L254.318 41.1384C254.659 41.0875 255.007 41.1048 255.341 41.1893L269.829 49.0938C269.493 49.0074 269.143 48.988 268.8 49.0367" fill="#262728"/>
<path d="M269.829 49.0939L255.341 41.2147C255.504 41.2546 255.661 41.3122 255.811 41.3863L270.293 49.24C270.146 49.1642 269.99 49.1066 269.829 49.0685" fill="#242627"/>
<path d="M270.293 49.24L255.811 41.3608L255.9 41.4053L270.388 49.2845L270.293 49.24Z" fill="#232526"/>
<path d="M267.192 55.1685L252.71 47.2893C252.269 47.0329 251.907 46.6604 251.662 46.2122C251.418 45.7641 251.301 45.2575 251.325 44.7476C251.326 44.3138 251.403 43.8836 251.554 43.4768L266.042 51.356C265.888 51.7619 265.81 52.1927 265.813 52.6268C265.787 53.1363 265.901 53.6433 266.145 54.0918C266.388 54.5403 266.75 54.9129 267.192 55.1685" fill="#1E1F20"/>
<path d="M266.042 51.3877L251.554 43.5086C251.617 43.3356 251.694 43.1678 251.783 43.0066L266.264 50.8858C266.177 51.0471 266.103 51.2149 266.042 51.3877" fill="#1F2021"/>
<path d="M266.264 50.8857L251.783 43.0065C251.853 42.8694 251.934 42.7377 252.024 42.6125L266.48 50.4917C266.392 50.6184 266.312 50.7499 266.239 50.8857" fill="#202122"/>
<path d="M266.48 50.4918L252.024 42.6127C252.106 42.4929 252.195 42.3783 252.291 42.2695L266.779 50.1487C266.684 50.2567 266.595 50.3711 266.506 50.4918" fill="#212223"/>
<path d="M266.779 50.1486L252.291 42.2695C252.386 42.1616 252.488 42.0597 252.596 41.9645L267.116 49.8436C267.008 49.9389 266.906 50.0407 266.811 50.1486" fill="#222325"/>
<path d="M267.116 49.8437L252.628 41.9645C252.74 41.8584 252.861 41.7627 252.99 41.6786L267.472 49.5578C267.346 49.6436 267.227 49.7392 267.116 49.8437" fill="#232526"/>
<path d="M267.44 49.5577L252.958 41.6785C253.11 41.5708 253.272 41.4773 253.441 41.3989L267.929 49.2781C267.758 49.3564 267.594 49.45 267.44 49.5577" fill="#242627"/>
<path d="M267.929 49.2781L253.441 41.3989C253.718 41.2654 254.014 41.1774 254.318 41.1384L268.8 49.0112C268.497 49.0546 268.204 49.1446 267.929 49.2781" fill="#262728"/>
<path d="M268.8 49.0112C269.187 48.9601 269.581 48.996 269.953 49.1163C270.325 49.2366 270.665 49.4383 270.95 49.7067C271.234 49.975 271.455 50.3034 271.596 50.6678C271.737 51.0322 271.796 51.4236 271.767 51.8134C271.768 52.67 271.472 53.5004 270.928 54.1623C270.384 54.8243 269.627 55.2765 268.787 55.4416C268.399 55.4949 268.004 55.4607 267.632 55.3417C267.259 55.2226 266.917 55.0217 266.632 54.7537C266.347 54.4857 266.126 54.1573 265.984 53.7926C265.842 53.4278 265.784 53.036 265.813 52.6458C265.812 51.7876 266.109 50.9556 266.654 50.2925C267.199 49.6293 267.957 49.1764 268.8 49.0112V49.0112Z" fill="#323335"/>
<path d="M23.9295 391.812L9.44165 383.933L215.283 355.002L229.771 362.882L23.9295 391.812Z" fill="#23262D"/>
<path d="M19.5641 391.151L5.07623 383.272C5.5132 383.488 5.97095 383.658 6.44241 383.781L20.9303 391.66C20.4588 391.537 20.0011 391.367 19.5641 391.151" fill="#1F2329"/>
<path d="M20.9303 391.66L6.44244 383.781C7.423 384.024 8.44146 384.076 9.44168 383.933L23.9295 391.812C22.9293 391.955 21.9109 391.903 20.9303 391.66" fill="#20242A"/>
<path d="M19.2972 391.018L4.81573 383.139L5.07626 383.272L19.5641 391.151L19.2972 391.018Z" fill="#1E2128"/>
<path d="M19.5641 391.151L5.07623 383.272C5.5132 383.488 5.97095 383.658 6.44241 383.781L20.9303 391.66C20.4588 391.537 20.0011 391.367 19.5641 391.151" fill="#1F2329"/>
<path d="M19.2973 391.018L4.81574 383.139C2.39474 381.823 0.793469 379.129 0.799824 375.806L15.2877 383.685C15.2877 387.008 16.8763 389.696 19.2973 391.018Z" fill="#24262B"/>
<path d="M19.2973 391.018L4.81575 383.139C2.39475 381.823 0.799817 379.129 0.806171 375.806L15.2877 383.685C15.2877 387.008 16.8763 389.702 19.2973 391.018Z" fill="#191C21"/>
<path d="M33.3149 317.5L18.8334 309.621L234.988 279.242L249.47 287.121L33.3149 317.5Z" fill="#3B3B3B"/>
<path d="M33.2195 370.125L18.738 362.246L18.8333 309.621L33.3148 317.5L33.2195 370.125Z" fill="#2A2A2A"/>
<path d="M33.2132 370.125L18.7317 362.253L19.2464 86.3801L33.7279 94.2593L33.2132 370.125Z" fill="#393939"/>
<path d="M309.69 55.448L33.7152 94.2084L33.2005 370.075L235.268 341.678L229.771 362.831L23.9295 391.812C19.132 392.486 15.2749 388.838 15.2876 383.685L15.8341 87.5492C15.8341 82.3769 19.7166 77.6431 24.5141 76.9695L314.716 36.1821L309.69 55.448ZM268.8 49.0112C267.957 49.1764 267.199 49.6293 266.654 50.2924C266.109 50.9555 265.812 51.7875 265.813 52.6458C265.784 53.036 265.842 53.4278 265.984 53.7925C266.126 54.1572 266.347 54.4856 266.632 54.7537C266.918 55.0217 267.259 55.2226 267.632 55.3416C268.005 55.4606 268.399 55.4948 268.787 55.4416C269.627 55.274 270.384 54.8202 270.927 54.1575C271.471 53.4947 271.767 52.6641 271.767 51.807C271.795 51.4177 271.736 51.0271 271.594 50.6634C271.452 50.2998 271.231 49.9723 270.947 49.7046C270.663 49.437 270.323 49.2359 269.951 49.116C269.58 48.996 269.187 48.9602 268.8 49.0112" fill="#3D4148"/>
<path d="M309.702 55.4734L249.47 287.121L33.3149 317.5L33.2196 370.125L235.268 341.729L33.2132 370.125L33.7279 94.2592L309.702 55.4734Z" fill="#626262"/>
<path d="M24.5141 76.9695L10.0262 69.0904L300.234 28.303L314.716 36.1821L24.5141 76.9695Z" fill="#31343B"/>
<path d="M15.2876 383.685L0.799805 375.806L1.35263 79.6702L15.8341 87.5493L15.2876 383.685Z" fill="#191C21"/>
<path d="M513.085 8.30644C517.876 7.6329 521.752 11.2802 521.746 16.4461L521.193 312.588C521.193 317.742 517.292 322.476 512.5 323.149L284.272 355.225L288.403 339.975L248.154 345.63L252.227 359.717L23.9295 391.812C19.132 392.486 15.2749 388.838 15.2876 383.685L15.8341 87.5493L15.2876 383.685C15.2876 388.838 19.132 392.486 23.9295 391.812L229.771 362.882L235.268 341.735L503.306 304.061L503.401 251.436L503.814 28.195L309.69 55.448L314.703 36.1568L513.085 8.30644Z" fill="#2B2F38"/>
<path d="M15.2876 383.685L0.799805 375.806L1.35263 79.6702L15.8341 87.5493L15.2876 383.685Z" fill="#24262A"/>
<path d="M15.8341 87.5492L1.35266 79.67C1.35728 78.4078 1.58309 77.1562 2.01986 75.9719L16.5077 83.8447C16.0699 85.0311 15.842 86.2847 15.8341 87.5492" fill="#24262B"/>
<path d="M16.5077 83.8447L2.0199 75.9718C2.19815 75.4708 2.41045 74.9825 2.65533 74.5104L17.1368 82.3895C16.893 82.86 16.6807 83.3461 16.5014 83.8447" fill="#26282D"/>
<path d="M17.1622 82.3896L2.68073 74.5105C2.8924 74.1152 3.12794 73.7333 3.38604 73.3667L17.8675 81.2459C17.6117 81.6139 17.3762 81.9958 17.1622 82.3896" fill="#27292E"/>
<path d="M17.8676 81.2459L3.4115 73.3667C3.65296 73.0236 3.91349 72.6932 4.18673 72.3755L18.6618 80.2292C18.3836 80.5453 18.1227 80.8762 17.8803 81.2205" fill="#292B30"/>
<path d="M18.6619 80.2292L4.17401 72.35C4.45227 72.0379 4.7471 71.7409 5.05725 71.4604L19.5388 79.3396C19.2307 79.6201 18.9379 79.9171 18.6619 80.2292" fill="#2A2C32"/>
<path d="M19.526 79.365L5.04449 71.4858C5.37551 71.1878 5.72575 70.9119 6.09296 70.6598L20.5681 78.539C20.2032 78.7942 19.8532 79.07 19.5197 79.365" fill="#2B2E33"/>
<path d="M20.5682 78.5389L6.08667 70.6598C6.53201 70.353 7.00168 70.0831 7.49099 69.8528L21.9725 77.732C21.4819 77.9598 21.012 78.2298 20.5682 78.5389" fill="#2D2F35"/>
<path d="M21.9788 77.732L7.49731 69.8528C8.30122 69.4718 9.15817 69.2148 10.039 69.0903L24.5269 76.9695C23.6453 77.0907 22.7879 77.3479 21.9852 77.732" fill="#2E3137"/>
</svg>
